<svg width="100%" height="100%" viewBox="0 0 24 24" fill="none" xmlns="http://www.w3.org/2000/svg">
<g id="settings slider ver, slider two">
<path id="Rectangle 240648458" d="M20.1255 14.1255C20.8173 14.8173 21.1632 15.1632 21.4106 15.5669C21.6299 15.9247 21.7915 16.3149 21.8895 16.7231C22 17.1834 22 17.6726 22 18.651L22 21L20 21L20 18C20 17.4477 19.5523 17 19 17C18.4477 17 18 17.4477 18 18L18 21L16 21L16 18C16 17.4477 15.5523 17 15 17C14.4477 17 14 17.4477 14 18L14 21L12 21L12 18.651C12 17.6726 12 17.1834 12.1105 16.7231C12.2085 16.3149 12.3701 15.9247 12.5894 15.5669C12.8368 15.1632 13.1827 14.8173 13.8745 14.1255L14.5941 13.4059C15.113 12.887 15.3724 12.6276 15.5579 12.3249C15.7224 12.0564 15.8436 11.7638 15.9171 11.4577C16 11.1124 16 10.7455 16 10.0118L16 3L18 3L18 10.0118C18 10.7455 18 11.1124 18.0829 11.4577C18.1564 11.7638 18.2776 12.0564 18.4421 12.3249C18.6276 12.6276 18.887 12.887 19.4059 13.4059L20.1255 14.1255Z" fill="currentColor"/>
<path id="Rectangle 240648459" d="M10.5503 11.4497C11.4785 10.5215 12 9.2625 12 7.94975C12 5.21608 9.78392 3 7.05025 3L6.94975 3C4.21608 3 2 5.21608 2 7.94975C2 9.26251 2.52149 10.5215 3.44975 11.4498L4.8 12.8C5.11593 13.1159 5.2739 13.2739 5.40307 13.4467C5.70285 13.8479 5.89745 14.3177 5.96912 14.8133C6 15.0269 6 15.2503 6 15.6971L6 21L8 21L8 15.6971C8 15.2503 8 15.0269 8.03088 14.8133C8.10255 14.3177 8.29714 13.8479 8.59693 13.4467C8.7261 13.2739 8.88407 13.1159 9.2 12.8L10.5503 11.4497Z" fill="currentColor"/>
</g>
</svg>
