<svg xmlns="http://www.w3.org/2000/svg" width="100%" height="100%" viewBox="0 0 65 63.34" fill="currentcolor"><path d="M2.5,33.34A2.5,2.5,0,0,1,.73,29.08L27.9,1.9a6.52,6.52,0,0,1,9.2,0L64.27,29.08a2.5,2.5,0,1,1-3.54,3.53L33.56,5.44a1.53,1.53,0,0,0-2.12,0L4.27,32.61A2.49,2.49,0,0,1,2.5,33.34Z"/><path d="M51.5,63.34h-38A6.51,6.51,0,0,1,7,56.84v-20a2.5,2.5,0,0,1,5,0v20a1.5,1.5,0,0,0,1.5,1.5h38a1.5,1.5,0,0,0,1.5-1.5v-20a2.5,2.5,0,0,1,5,0v20A6.51,6.51,0,0,1,51.5,63.34Z"/><path d="M50.5,21.34a2.5,2.5,0,0,1-2.5-2.5v-8a2.5,2.5,0,0,1,5,0v8A2.5,2.5,0,0,1,50.5,21.34Z"/></svg>