<svg xmlns="http://www.w3.org/2000/svg" width="100%" height="100%" viewBox="0 0 22 22"><path d="M11,0C8,0,7.64,0,6.47.07A8,8,0,0,0,3.8.58,5.21,5.21,0,0,0,1.85,1.85,5.21,5.21,0,0,0,.58,3.8,8,8,0,0,0,.07,6.47C0,7.64,0,8,0,11s0,3.36.07,4.53A8,8,0,0,0,.58,18.2a5.21,5.21,0,0,0,1.27,1.95A5.34,5.34,0,0,0,3.8,21.42a8,8,0,0,0,2.67.51C7.64,22,8,22,11,22s3.36,0,4.53-.07a8,8,0,0,0,2.67-.51,5.63,5.63,0,0,0,3.22-3.22,8,8,0,0,0,.51-2.67C22,14.36,22,14,22,11s0-3.36-.07-4.53a8,8,0,0,0-.51-2.67,5.34,5.34,0,0,0-1.27-1.95A5.21,5.21,0,0,0,18.2.58,8,8,0,0,0,15.53.07C14.36,0,14,0,11,0Zm0,2c2.94,0,3.29,0,4.45.07a5.88,5.88,0,0,1,2,.38,3.2,3.2,0,0,1,1.26.82,3.34,3.34,0,0,1,.83,1.26,5.94,5.94,0,0,1,.37,2C20,7.71,20,8.06,20,11s0,3.29-.07,4.45a6.06,6.06,0,0,1-.39,2,3.69,3.69,0,0,1-2.08,2.09,6,6,0,0,1-2.05.37C14.26,20,13.91,20,11,20S7.69,20,6.52,20a6.08,6.08,0,0,1-2-.39,3.35,3.35,0,0,1-1.27-.82,3.32,3.32,0,0,1-.82-1.26A6.41,6.41,0,0,1,2,15.43c0-1.16-.05-1.52-.05-4.44S2,7.7,2,6.53a6.41,6.41,0,0,1,.39-2A3.24,3.24,0,0,1,3.2,3.22a3.38,3.38,0,0,1,1.27-.83A6,6,0,0,1,6.5,2C7.67,2,8,2,11,2Zm0,3.37A5.65,5.65,0,1,0,16.65,11,5.65,5.65,0,0,0,11,5.35Zm0,9.32A3.67,3.67,0,1,1,14.67,11,3.67,3.67,0,0,1,11,14.67Zm7.19-9.54a1.32,1.32,0,1,1-1.32-1.32A1.32,1.32,0,0,1,18.19,5.13Z" fill="currentColor"/></svg>
