<?xml version="1.0" encoding="UTF-8"?>
<svg id="Layer_1" data-name="Layer 1" xmlns="http://www.w3.org/2000/svg" xmlns:xlink="http://www.w3.org/1999/xlink" viewBox="0 0 48 39">
  <defs>
    <clipPath id="clippath">
      <rect x="0" width="48" height="39" fill="none"/>
    </clipPath>
  </defs>
  <g clip-path="#clippath">
    <path d="M47.27,15.37c-.46-1.2-1.4-2.27-2.54-3.04-3.3-2.09-8.32-2.24-11.72-.35-1.85,.94-3.07,2.81-3.45,4.74-.69,3.16-.51,6.92,1.93,9.29,2.84,2.49,6.98,3.04,10.65,2.02,.17-.03,.73-.17,1.11-.38l.11-.05c1.14-.47,2.23-1.25,3.04-2.29,1.88-2.74,2.01-6.85,.86-9.94Zm-5.99,7.1c-.13,.6-.53,1.22-1.17,1.45-1.01,.45-2.38,.32-3.32-.2-.79-.55-.89-1.47-.99-2.34-.08-1.72-.2-3.54,.28-5.11,.38-.97,1.42-1.22,2.36-1.3,.99,0,1.95,.15,2.56,.95,.38,.57,.36,1.32,.43,1.99-.03,1.42,.1,3.11-.15,4.56Zm-30.06,1.55c-.84-.05-1.78,.02-2.59-.08l.03-8.75,.05-.07,2.51-.02c.03-1.42,.05-2.94-.03-4.24l-9.56-.03-1.57,.03c-.03,1.32-.03,2.86,0,4.21,.86,.03,1.67,0,2.51,.08v8.47l-.02,.35-2.51,.05c-.05,1.37-.05,2.74,0,4.11H11.22v-4.11Zm28.15,5.98c-1.06,1.52-2.41,2.99-3.88,4.13-.05,.08-.21,.05-.25-.02-.64-.4-1.32-.72-1.93-1.12,.81-.97,1.6-1.94,2.21-3.02h-.79c-.63,.93-1.29,1.9-2.13,2.72-1.12-.45-2.13-.85-3.27-1.15l-.13-.09c.18-.5,.51-.98,.61-1.47h-.68l-.68,1.35c-1.49-.32-3.14-.5-4.67-.6-.08-.22,.02-.55-.08-.75h-.66c-.05,.3,.08,.53-.08,.77-1.57,.07-3.09,.25-4.56,.55l-.69-1.32c-.25,0-.53-.05-.71,.03l.63,1.47-.08,.07c-1.14,.33-2.25,.72-3.35,1.17l-.1-.05c-.71-.77-1.4-1.62-1.96-2.46-.13-.43-.63-.18-.91-.23,.61,1.1,1.42,2.07,2.23,3.07-.68,.4-1.37,.85-2.08,1.17-1.55-1.18-2.9-2.6-4.01-4.21-.3-.05-.51-.03-.81,0,1.83,2.84,4.67,5.33,7.64,6.8,0,0,0-.02,.03-.02,.02,0,.07,.05,.02,.07,2.01,.97,4.14,1.67,6.39,1.97,7.79,1.02,15.22-2.29,19.53-8.82-.27-.03-.54-.03-.81,0Zm-10.57,2.24l.07-.05c1.09,.25,2.13,.6,3.1,1.07-.81,.92-1.85,1.72-2.82,2.39-.58,.35-1.17,.73-1.78,1.02l-1.09-.47,.07-.17c.91-1.22,1.73-2.47,2.44-3.79Zm-5-.75c1.45,.03,2.89,.18,4.24,.5l.03,.08c-.71,1.34-1.6,2.64-2.56,3.86-.43,.05-.84-.12-1.27-.15l-.43-.05c-.05-1.47-.08-2.77,0-4.24Zm-4.89,.45c1.32-.25,2.69-.45,4.11-.45l.03,4.22c-.53,.12-1.12,.12-1.62,.25-1.04-1.22-1.9-2.55-2.64-3.92l.13-.1Zm-4.09,1.35c.99-.47,2.03-.83,3.09-1.1l.1,.03c.73,1.37,1.65,2.67,2.56,3.96-.35,.2-.79,.32-1.14,.52-1.72-.85-3.28-1.98-4.62-3.34v-.07h0Zm3.27,4.26c-2.13-.55-4.11-1.5-5.94-2.79v-.08c.61-.37,1.22-.77,1.88-1.05,1.45,1.42,2.94,2.5,4.57,3.51-.13,.15-.33,.3-.51,.4Zm9.41,.32c-2.69,.58-5.68,.6-8.37-.05-.05-.12,.13-.15,.2-.22,2.36-1.52,6.04-1.52,8.35,.12,.08,.15-.13,.1-.18,.15Zm2.44-.7l-1.19,.37c-.2-.1-.38-.25-.56-.4l.05-.08c1.62-.94,3.09-2.09,4.49-3.46,.68,.27,1.34,.65,1.96,1.07-1.42,1.13-3.07,1.87-4.75,2.49ZM7.34,8.94c.63-.87,1.31-1.69,2.05-2.47,.66-.62,1.27-1.22,1.98-1.67,.66,.42,1.39,.78,2.03,1.17-.79,.97-1.6,1.94-2.18,2.99,.18,.08,.51,.05,.76,0,.63-.92,1.32-1.84,2.13-2.66,1.09,.4,2.15,.82,3.27,1.12l.1,.1-.63,1.44c.28,.05,.46,.03,.73,0,.23-.42,.4-.89,.66-1.32,1.47,.33,3.02,.5,4.59,.55,.2,.18,.05,.55,.13,.77h.68c.07-.24-.03-.52,.07-.74,1.47-.08,3.02-.23,4.44-.58l.12,.03,.69,1.29c.23,0,.53,.05,.71-.05l-.64-1.44,.05-.05c1.16-.3,2.26-.75,3.37-1.19,.79,.82,1.52,1.79,2.18,2.74,.28,0,.56,.03,.76-.05-.31-.56-.68-1.08-1.09-1.57-.34-.48-.71-.93-1.12-1.34v-.13l1.78-1.02,.26-.1c1.54,1.17,2.9,2.57,4.01,4.16,.3,0,.56,.1,.81-.02C36.66,3.81,31.06,.54,25,.07l-.03,.05-.05-.05c-.68-.07-1.52-.1-2.26-.03-.28-.02-.61,0-.94,.03-6.09,.47-11.69,3.59-15.19,8.89,.25-.02,.56,.08,.81-.02Zm10.53-2.19l-.1,.02c-1.04-.27-2.06-.6-3.02-1.02l.05-.15c1.4-1.32,2.87-2.42,4.49-3.26,.38,.15,.76,.27,1.14,.45l-.07,.19c-.97,1.2-1.72,2.49-2.48,3.77Zm5.05,.67c-.71,.1-1.34-.02-2.06-.08-.68-.1-1.55-.17-2.23-.4,.74-1.36,1.6-2.69,2.64-3.9l1.62,.22c.08,1.29,.02,2.79,.02,4.16Zm.79,.03c-.05-1.32-.02-2.79,0-4.16,.51-.07,1.06-.15,1.57-.22,.99,1.24,1.96,2.52,2.62,3.88-1.37,.33-2.78,.5-4.19,.5Zm8.09-1.75c-.99,.42-2.01,.82-3.1,1.05-.79-1.32-1.65-2.64-2.61-3.92,.36-.2,.79-.34,1.17-.54,1.65,.82,3.25,1.99,4.59,3.33l-.05,.08Zm-3.25-4.26c2.13,.55,4.13,1.49,5.96,2.79l-.05,.1-1.75,.97h-.13c-1.34-1.34-2.91-2.51-4.51-3.44,.05-.17,.31-.3,.48-.42Zm-1.01-.25v.05c-2.21,1.59-5.78,1.74-8.12,.27-.13-.1-.38-.15-.41-.32,2.69-.62,5.86-.67,8.52,0Zm-15.47,3.09c1.6-1.17,3.37-2.04,5.25-2.64,.08-.08,.13-.15,.23-.15v.05c.2,.05,.36-.18,.53-.03,.15,.13,.33,.23,.46,.35-1.57,.97-3.12,2.12-4.54,3.51-.68-.24-1.32-.62-1.93-1.04v-.05Zm10.88,19.93c-2.38,.65-4.97,.15-6.7-1.64-.2-.25-.33-.55-.53-.79l-3.42,.02c-.05,2.02-.08,4.34,0,6.33l3.8-.02,.05-1.2c.43,.2,.86,.45,1.3,.67,2.64,1.1,6.03,1.35,8.65,0,1.9-1.04,2.92-3.06,2.64-5.23-.28-2.12-2.31-4.03-4.36-4.56l-6.14-1.77-.45-.23c-.2-.17-.33-.4-.28-.67,.48-.82,1.6-.57,2.44-.55,1.78,.25,3.6,.85,4.64,2.47,1.11,0,2.41,.02,3.62-.03,.05-2.04-.02-3.84-.05-5.9-1.14-.03-2.54-.03-3.68,.03-.05,.3,.05,.72-.08,1.02l-1.17-.62c-2.79-1.17-6.7-1.29-9.23,.53-1.65,1.19-2.16,3.34-1.72,5.23,.33,1.79,2.05,3.11,3.7,3.73,2.26,.8,4.61,1.37,6.9,2.14,.23,.1,.53,.33,.48,.6,0,.22-.23,.35-.41,.44Z" fill="currentColor"/>
  </g>
</svg>