<svg id="Layer_1" data-name="Layer 1" xmlns="http://www.w3.org/2000/svg" viewBox="0 0 26.47 26.26">
  <path d="M24.24,12.86l-2.99,2.99c-.51,.51-1.35,.51-1.86,0-.51-.51-.51-1.35,0-1.86l2.99-2.99c.94-.94,1.46-2.18,1.46-3.5,0-1.24-.45-2.42-1.26-3.33-.86-.95-2.07-1.5-3.43-1.53-.05,0-.1,0-.15,0-1.46,0-2.87,.58-3.9,1.61l-2.73,2.73c-.51,.51-1.35,.51-1.86,0-.25-.25-.39-.58-.39-.93s.14-.68,.39-.93l2.73-2.73C14.8,.81,16.99-.05,19.21,0c2.09,.06,3.98,.91,5.32,2.4,1.25,1.39,1.94,3.2,1.94,5.09,0,2.02-.79,3.93-2.23,5.37Z" fill='currentColor'/>
  <path d="M15.95,21.15l-2.74,2.74c-1.56,1.56-3.72,2.43-5.97,2.37-2.08-.06-3.97-.91-5.31-2.41C.69,22.46,0,20.66,0,18.77c-.02-2.02,.77-3.93,2.22-5.38l2.99-2.99c.25-.25,.58-.39,.93-.39s.68,.14,.93,.39c.25,.25,.39,.58,.39,.93s-.14,.68-.39,.93l-2.99,2.99c-.94,.94-1.46,2.19-1.44,3.5,0,1.25,.45,2.43,1.26,3.34,.85,.95,2.07,1.5,3.42,1.53,1.49,.02,2.97-.54,4.03-1.6l2.74-2.74c.51-.51,1.35-.51,1.86,0,.51,.51,.51,1.35,0,1.86Z" fill='currentColor'/>
  <path d="M7.35,17.15L17.25,7.25c.26-.26,.59-.38,.93-.38s.67,.13,.93,.38c.51,.51,.51,1.35,0,1.86l-9.9,9.9c-.5,.5-1.36,.5-1.86,0-.25-.25-.39-.58-.39-.93s.14-.68,.39-.93Z" fill='currentColor'/>
</svg>