<svg width="100%" height="100%" viewBox="0 0 24 24" fill="none" xmlns="http://www.w3.org/2000/svg">
<path fill-rule="evenodd" clip-rule="evenodd" d="M7 21L8 19H6V21H7ZM18 21V19H16L17 21H18Z" fill="currentColor"/>
<path fill-rule="evenodd" clip-rule="evenodd" d="M5.88636 5.47729C5.92643 4.95646 5.94646 4.69604 6.0607 4.4988C6.16129 4.32513 6.31181 4.18575 6.49268 4.09877C6.6981 4 6.95928 4 7.48165 4H16.5184C17.0407 4 17.3019 4 17.5073 4.09877C17.6882 4.18575 17.8387 4.32513 17.9393 4.4988C18.0535 4.69604 18.0736 4.95646 18.1136 5.47729L18.6584 12.5588C16.5924 11.5354 14.3141 11 12 11C9.68588 11 7.40759 11.5354 5.34163 12.5588L5.88636 5.47729ZM5.21208 14.243L5 17H6V19H12H18V17H19L18.7879 14.243L18.5 14.7417C16.5238 13.6007 14.282 13 12 13C9.71802 13 7.47625 13.6007 5.5 14.7417L5.21208 14.243Z" fill="currentColor"/>
<path fill-rule="evenodd" clip-rule="evenodd" d="M4.30889 11H6.00009L6.99911 19H6.10889C5.70913 19 5.50926 19 5.33744 18.9346C5.18566 18.8769 5.05023 18.783 4.94286 18.6612C4.82131 18.5233 4.75113 18.3361 4.61076 17.9618L2.81076 13.1618C2.53839 12.4355 2.4022 12.0723 2.46721 11.7817C2.52409 11.5274 2.67794 11.3054 2.89601 11.1629C3.14529 11 3.53316 11 4.30889 11ZM19.6913 11H18.0001L17.0011 19H17.8913C18.291 19 18.4909 19 18.6627 18.9346C18.8145 18.8769 18.95 18.783 19.0573 18.6612C19.1789 18.5233 19.2491 18.3361 19.3894 17.9618L21.1894 13.1618C21.4618 12.4355 21.598 12.0723 21.533 11.7817C21.4761 11.5274 21.3222 11.3054 21.1042 11.1629C20.8549 11 20.467 11 19.6913 11Z" fill="currentColor"/>
</svg>
