<?xml version="1.0" encoding="UTF-8"?>
<svg id="a" data-name="Layer 1" xmlns="http://www.w3.org/2000/svg" xmlns:xlink="http://www.w3.org/1999/xlink" viewBox="0 0 22 22">
  <defs>
    <clipPath id="b">
      <rect width="22" height="22" fill="none"/>
    </clipPath>
  </defs>
  <g clip-path="url(#b)">
    <path d="m4.62,13.9c0,.61-.24,1.2-.68,1.63-.43.43-1.02.68-1.63.68-.61,0-1.2-.25-1.63-.68-.43-.43-.68-1.02-.68-1.63,0-.61.25-1.2.68-1.63.43-.43,1.02-.68,1.63-.68h2.31v2.31Zm1.17,0c0-.61.25-1.2.68-1.63.43-.43,1.02-.68,1.63-.68.61,0,1.2.25,1.63.68.43.43.68,1.02.68,1.63v5.79c0,.61-.25,1.2-.68,1.63-.43.43-1.02.68-1.63.68-.61,0-1.2-.25-1.63-.68-.43-.43-.68-1.02-.68-1.63v-5.79Zm2.31-9.28c-.61,0-1.2-.25-1.63-.68-.43-.43-.68-1.02-.68-1.63,0-.61.25-1.2.68-1.63C6.9.25,7.49,0,8.1,0c.61,0,1.2.25,1.63.68.43.43.68,1.02.68,1.63v2.31h-2.31Zm0,1.17c.61,0,1.2.25,1.63.68.43.43.68,1.02.68,1.63,0,.61-.25,1.2-.68,1.63-.43.43-1.02.68-1.63.68H2.31c-.61,0-1.2-.25-1.63-.68-.43-.43-.68-1.02-.68-1.63,0-.61.25-1.2.68-1.63.43-.43,1.02-.68,1.63-.68h5.79Zm9.28,2.31c0-.61.25-1.2.68-1.63.43-.43,1.02-.68,1.63-.68.61,0,1.2.25,1.63.68.43.43.68,1.02.68,1.63,0,.61-.25,1.2-.68,1.63-.43.43-1.02.68-1.63.68h-2.31v-2.31Zm-1.16,0c0,.61-.25,1.2-.68,1.63-.43.43-1.02.68-1.63.68-.61,0-1.2-.25-1.63-.68-.43-.43-.68-1.02-.68-1.63V2.31c0-.61.24-1.2.68-1.63.43-.43,1.02-.68,1.63-.68.61,0,1.2.25,1.63.68.43.43.68,1.02.68,1.63v5.79Zm-2.31,9.28c.61,0,1.2.25,1.63.68.43.43.68,1.02.68,1.63,0,.61-.25,1.2-.68,1.63-.43.43-1.02.68-1.63.68-.61,0-1.2-.25-1.63-.68-.43-.43-.68-1.02-.68-1.63v-2.31h2.31Zm0-1.16c-.61,0-1.2-.25-1.63-.68-.43-.43-.68-1.02-.68-1.63,0-.61.25-1.2.68-1.63.43-.43,1.02-.68,1.63-.68h5.79c.61,0,1.2.24,1.63.68.43.43.68,1.02.68,1.63,0,.61-.25,1.2-.68,1.63-.43.43-1.02.68-1.63.68h-5.79Z"/>
  </g>
</svg>