<svg width="100%" height="100%" viewBox="0 0 24 24" fill="none" xmlns="http://www.w3.org/2000/svg">
<path fill-rule="evenodd" clip-rule="evenodd" d="M5 21L6 19H4V21H5ZM20 21V19H18L19 21H20Z" fill="currentColor"/>
<path fill-rule="evenodd" clip-rule="evenodd" d="M2 8.8C2 7.11984 2 6.27976 2.32698 5.63803C2.6146 5.07354 3.07354 4.6146 3.63803 4.32698C4.27976 4 5.11984 4 6.8 4H17.2C18.8802 4 19.7202 4 20.362 4.32698C20.9265 4.6146 21.3854 5.07354 21.673 5.63803C22 6.27976 22 7.11984 22 8.8V12.7787C18.8002 11.6032 15.4151 11 12 11C8.58492 11 5.19984 11.6032 2 12.7787V8.8ZM2 14.9201V19H4H12H20H22V14.9201C18.8196 13.652 15.426 13 12 13C8.57397 13 5.18035 13.652 2 14.9201Z" fill="currentColor"/>
<path fill-rule="evenodd" clip-rule="evenodd" d="M1.81037 11H3.99726L4.99628 19H2.41213C1.91223 19 1.66227 19 1.46231 18.9074C1.28613 18.8257 1.13752 18.6946 1.03462 18.5299C0.917833 18.3431 0.886741 18.095 0.824557 17.599L0.222799 12.799C0.144857 12.1773 0.105886 11.8665 0.203259 11.6254C0.288759 11.4138 0.444091 11.2378 0.643454 11.1266C0.870499 11 1.18379 11 1.81037 11ZM22.187 11H19.9992L19.0002 19H21.5876C22.0877 19 22.3378 19 22.5378 18.9073C22.714 18.8256 22.8626 18.6944 22.9655 18.5297C23.0823 18.3427 23.1133 18.0945 23.1752 17.5983L23.7747 12.7983C23.8523 12.1768 23.8911 11.866 23.7936 11.6251C23.7081 11.4136 23.5528 11.2376 23.3534 11.1265C23.1264 11 22.8133 11 22.187 11Z" fill="currentColor"/>
</svg>
