<?xml version="1.0" encoding="UTF-8"?>
<svg id="a" data-name="Layer 1" xmlns="http://www.w3.org/2000/svg" xmlns:xlink="http://www.w3.org/1999/xlink" viewBox="0 0 24 24">
  <defs>
    <clipPath id="b">
      <rect width="24" height="24" fill="none"/>
    </clipPath>
  </defs>
  <g clip-path="url(#b)">
    <g>
      <path d="m18.25,15.88c-.78-.77-1.76-.77-2.54,0-.59.59-1.19,1.18-1.77,1.78-.16.16-.29.2-.49.09-.38-.21-.79-.38-1.16-.61-1.72-1.08-3.17-2.48-4.44-4.05-.63-.78-1.2-1.61-1.59-2.55-.08-.19-.06-.31.09-.47.59-.57,1.17-1.16,1.76-1.75.81-.82.81-1.78,0-2.6-.46-.47-.93-.93-1.39-1.4-.48-.48-.95-.96-1.44-1.44-.78-.76-1.76-.76-2.54,0-.6.59-1.17,1.19-1.78,1.77C.36,5.19.08,5.84.02,6.61c-.09,1.24.21,2.42.64,3.56.88,2.37,2.22,4.47,3.84,6.4,2.19,2.61,4.81,4.67,7.87,6.16,1.38.67,2.81,1.18,4.36,1.27,1.07.06,2-.21,2.74-1.04.51-.57,1.08-1.09,1.62-1.63.8-.81.8-1.79.01-2.59-.95-.95-1.9-1.9-2.86-2.85Z"/>
      <path d="m17.29,11.89l1.84-.31c-.29-1.69-1.09-3.23-2.3-4.44-1.28-1.28-2.91-2.09-4.69-2.34l-.26,1.85c1.38.19,2.64.82,3.64,1.81.94.94,1.55,2.13,1.78,3.44Z"/>
      <path d="m20.17,3.89C18.05,1.76,15.35.41,12.38,0l-.26,1.85c2.57.36,4.89,1.52,6.73,3.36,1.74,1.74,2.89,3.95,3.3,6.37l1.84-.31c-.48-2.81-1.81-5.35-3.83-7.38Z"/>
    </g>
  </g>
</svg>