<svg width="64" height="64" viewBox="0 0 64 64" fill="none" xmlns="http://www.w3.org/2000/svg">
<path fill-rule="evenodd" clip-rule="evenodd" d="M32 0C23.5161 0.009776 15.3824 3.38433 9.38338 9.38337C3.38433 15.3824 0.00977599 23.5161 0 32C0.00957274 40.484 3.38407 48.6178 9.38315 54.6168C15.3822 60.6159 23.516 63.9904 32 64C40.484 63.9906 48.6179 60.6162 54.6171 54.6171C60.6162 48.6179 63.9906 40.4841 64 32C63.9904 23.516 60.6159 15.3822 54.6168 9.38315C48.6177 3.38406 40.484 0.00957274 32 0ZM46.8765 55.7761C46.7164 55.7176 46.5756 55.6483 46.5756 55.596C46.5884 55.4622 46.5484 55.3288 46.4642 55.2241C46.3799 55.1194 46.2581 55.0518 46.1246 55.0358C46.0032 55.0358 45.6912 54.9364 45.372 54.8348L45.3719 54.8348C45.0377 54.7284 44.6957 54.6195 44.5564 54.6195C44.4277 54.6212 44.3041 54.6702 44.2093 54.7572C44.1901 54.7404 44.1582 54.7154 44.1194 54.6848C43.9589 54.5586 43.6791 54.3387 43.6791 54.2185C43.6964 54.04 43.6432 53.8618 43.5307 53.7222C43.4182 53.5825 43.2554 53.4924 43.0773 53.4713C42.9127 53.4713 42.6382 53.3849 42.3636 53.2983L42.3635 53.2983C42.0886 53.2117 41.8135 53.125 41.6483 53.125C41.4836 53.125 40.6587 52.7493 39.8318 52.3728C39.0011 51.9944 38.1685 51.6152 38.0015 51.6152C37.9235 51.6168 37.8468 51.6353 37.7766 51.6695C37.7065 51.7036 37.6446 51.7526 37.5952 51.813C37.5535 51.7081 37.4825 51.6173 37.3907 51.5516C37.2989 51.4858 37.1901 51.4478 37.0773 51.4421C37.0122 51.4279 36.9539 51.392 36.9119 51.3403C36.87 51.2885 36.8469 51.224 36.8465 51.1574C36.8639 50.9795 36.8111 50.8019 36.6994 50.6625C36.5877 50.523 36.4259 50.4328 36.2485 50.4109C36.1515 50.4109 35.9858 50.3186 35.8027 50.2165L35.8026 50.2165C35.5762 50.0903 35.323 49.9492 35.1397 49.9492C35.1304 49.9492 35.0604 49.897 34.9554 49.8188L34.9553 49.8187C34.6409 49.5844 34.0133 49.1166 33.7653 49.1166C33.4848 49.0376 33.2165 48.9203 32.9681 48.768C32.8141 45.3061 32.4675 42.5133 32.2381 40.6653C32.1809 40.2039 32.1309 39.8014 32.0931 39.4621C31.9969 38.601 31.933 38.1324 31.933 38.1324C31.8061 37.3151 31.7122 36.2855 31.6422 35.1081C31.2359 28.2516 31.6383 16.324 31.8838 11.1589C31.9192 10.3671 31.953 9.72682 31.9769 9.29435C31.9769 9.24068 31.981 9.19262 31.9848 9.14835V9.14831V9.14829V9.14826V9.14824C31.9865 9.12907 31.9881 9.11062 31.9892 9.09272C31.9892 9.01115 31.9954 8.93882 32 8.88804L32.0069 8.74413C31.6421 9.40788 31.4262 10.1432 31.3744 10.8988C30.6148 15.3751 30.1381 19.8947 29.9469 24.4309C29.8699 25.94 29.8284 27.3736 29.8038 28.7103C29.7152 31.6825 29.7987 34.6573 30.0539 37.6198C30.1105 38.3999 30.1659 39.175 30.2218 39.9556L30.2224 39.9648L30.223 39.9724L30.2233 39.9769C30.4213 42.7441 30.6242 45.5809 30.9003 48.9473L30.8894 48.9512C30.788 48.9877 30.6816 49.0261 30.5702 49.0766C30.0546 49.2943 29.4929 49.6091 29.4275 49.8415C29.3774 50.0138 29.2066 50.2032 29.0712 50.2032C28.8987 50.2032 28.5681 50.6193 28.3441 50.9013L28.344 50.9014C28.2293 51.0458 28.1425 51.1551 28.1193 51.1551C27.5569 51.3674 27.0894 51.7746 26.8018 52.3024C26.6182 52.5763 26.3364 52.7691 26.0146 52.8411C25.8492 52.8411 25.6087 53.0279 25.3682 53.2147C25.1277 53.4015 24.8873 53.5883 24.7218 53.5883C24.6163 53.5883 24.3702 53.6394 24.1028 53.6949L24.1027 53.6949C23.7848 53.7608 23.4369 53.833 23.2597 53.833C23.1385 53.8398 23.0222 53.8832 22.926 53.9574C22.8299 54.0315 22.7584 54.133 22.721 54.2486C22.4796 54.0466 22.1722 53.9406 21.8576 53.9507C21.4722 53.9507 21.0093 54.1947 20.697 54.3593L20.697 54.3593C20.5379 54.4431 20.4179 54.5063 20.3671 54.5063C20.2591 54.5073 20.1542 54.5426 20.0677 54.6072C19.9807 54.5423 19.8753 54.507 19.7668 54.5063C19.7381 54.5068 19.7095 54.5098 19.6814 54.5156C19.6535 54.5099 19.6252 54.5068 19.5968 54.5063C19.4113 54.5063 19.0558 54.8304 18.7397 55.1186C18.4867 55.3492 18.259 55.5568 18.1639 55.5568C17.9123 55.6121 17.6694 55.7017 17.4421 55.823H17.1889C13.1376 53.3055 9.79477 49.7969 7.47607 45.6286C5.15736 41.4603 3.9393 36.7698 3.9369 32C3.94545 24.5602 6.90468 17.4276 12.1654 12.1669C17.4261 6.90622 24.5587 3.94699 31.9985 3.93843C39.4386 3.94638 46.5718 6.90533 51.833 12.1661C57.0942 17.4269 60.0538 24.5598 60.0623 32C60.0593 36.7557 58.8477 41.4326 56.5412 45.5916C54.2347 49.7505 50.909 53.2551 46.8765 55.7761ZM28.071 32.462C26.7975 30.4771 24.8355 29.0328 22.5619 28.4066C22.2803 28.3173 21.9879 28.2357 21.6824 28.1595C21.6824 28.1595 17.5138 27.1799 15.8062 27.3277C15.8062 27.3277 15.8332 27.3408 15.8894 27.3654C15.9836 27.4078 16.1212 27.4878 16.3192 27.6029L16.3192 27.6029C16.6061 27.7697 17.0197 28.0101 17.6116 28.3165C19.9043 29.4872 22.0837 30.8677 24.1218 32.4404C24.624 32.8375 25.12 33.1991 25.5966 33.5466L25.5966 33.5466L25.5967 33.5466L25.5967 33.5467L25.5968 33.5467L25.5968 33.5467C27.3245 34.8064 28.7968 35.8797 29.3861 37.7832C29.3708 36.6124 29.2213 35.4472 28.9405 34.3104C28.7194 33.6642 28.4278 33.0443 28.071 32.462ZM40.1691 15.7976C38.6579 16.3929 37.2052 17.1271 35.8298 17.9908C34.2791 18.8696 33.0162 20.1787 32.1937 21.7599C32.2353 21.212 32.5493 18.7865 33.348 17.7676C34.2682 16.5981 35.5886 15.8103 37.0548 15.556C37.2372 15.5168 37.4258 15.4821 37.622 15.4552C38.9097 15.2791 40.2113 15.2276 41.5089 15.3013C41.5089 15.3013 41.4904 15.3059 41.4542 15.3182L41.4483 15.3203C41.2906 15.3747 40.8203 15.537 40.1691 15.7976ZM33.6558 37.7656C33.7513 37.6361 33.8462 37.5026 33.9426 37.367C34.1242 37.1115 34.3111 36.8486 34.5176 36.5913C34.6217 36.472 34.7238 36.3489 34.8268 36.2248L34.8269 36.2246L34.8271 36.2244C35.0516 35.9539 35.2801 35.6785 35.5411 35.427L36.0975 34.8552L36.6916 34.3165C36.9508 34.0694 37.2328 33.8489 37.5137 33.6294L37.5137 33.6294L37.5137 33.6294L37.5137 33.6293L37.5865 33.5724C37.6935 33.4878 37.7997 33.4039 37.9082 33.3208L37.9251 33.3077C37.9272 33.3054 37.9294 33.3033 37.9319 33.3015C37.9335 33.3003 37.9351 33.2991 37.9368 33.2981L37.939 33.2969L38.0142 33.2399C38.1311 33.1511 38.2477 33.0626 38.3668 32.9783C38.77 32.699 39.1748 32.4327 39.585 32.205C39.633 32.1766 39.6829 32.1504 39.7327 32.1241L39.7826 32.0977L39.7997 32.0886L39.822 32.0765L39.8251 32.0751L39.8275 32.0737C39.8299 32.0723 39.8322 32.0706 39.8343 32.0688L39.8697 32.0511C40.0098 31.9741 40.149 31.901 40.2876 31.8325L40.4576 31.7417C40.7962 31.5709 41.1263 31.4285 41.4411 31.3C39.8068 31.4379 38.2122 31.877 36.7377 32.5951C36.3586 32.8223 35.9923 33.0702 35.6404 33.3377C34.5199 34.1294 33.6276 35.2022 33.0532 36.4481C32.9455 36.6979 32.8557 36.9551 32.7847 37.2177C32.7272 37.4277 32.6822 37.641 32.65 37.8564C32.6869 38.3881 32.737 38.8568 32.7993 39.25C32.8305 39.188 32.8609 39.1259 32.8917 39.0629L32.8921 39.0621C32.9197 39.0057 32.9477 38.9486 32.9771 38.8898C33.1879 38.5351 33.4103 38.1611 33.6558 37.7656ZM42.7645 31.0042C42.8861 30.9796 42.9954 30.9611 43.1039 30.9442C43.4522 30.8942 43.8044 30.8772 44.1558 30.8934L44.2259 30.898C43.3712 31.1312 42.6415 31.6893 42.1928 32.4533C41.4286 34.178 40.3513 35.7461 39.0154 37.0781C38.0191 38.0619 36.8847 38.895 35.648 39.5514C34.7947 40.0129 33.8888 40.3697 32.95 40.6141C32.9543 40.6002 32.961 40.5795 32.9699 40.5521L32.9699 40.5519C32.9817 40.5156 32.9973 40.4675 33.0162 40.4079C33.0231 40.3915 33.0297 40.375 33.0363 40.3584C33.0488 40.3272 33.0614 40.2956 33.077 40.264L33.4925 39.2951C33.6757 38.9558 33.875 38.5848 34.0835 38.1939C34.1704 38.063 34.2569 37.9272 34.3449 37.7889L34.345 37.7887C34.5049 37.5376 34.67 37.2782 34.853 37.0242C34.9514 36.8997 35.0476 36.7708 35.1448 36.6405C35.345 36.3722 35.5495 36.0981 35.7857 35.8453L36.2967 35.2628L36.8492 34.7103C37.0855 34.4593 37.3462 34.2343 37.6055 34.0106L37.6055 34.0105L37.6056 34.0105C37.7398 33.8947 37.8736 33.7792 38.0035 33.6606C38.1412 33.5574 38.276 33.4512 38.4099 33.3456L38.4099 33.3456C38.6764 33.1356 38.9395 32.9283 39.2155 32.7526C39.2893 32.7033 39.3622 32.6531 39.4347 32.6032L39.4348 32.6031L39.4349 32.6031C39.5625 32.5151 39.6889 32.4281 39.8165 32.3486C40.0202 32.228 40.2192 32.1101 40.4136 31.9946C40.8046 31.7715 41.1893 31.5845 41.5471 31.4213C41.8596 31.292 42.1458 31.1751 42.4175 31.0912C42.5337 31.0612 42.6553 31.0304 42.7645 31.0042ZM27.8729 15.1907C27.6368 15.0125 27.3915 14.8469 27.138 14.6944C26.1514 14.2136 25.0843 13.9198 23.9906 13.8279C24.2015 13.9133 24.4216 14.008 24.6486 14.1234L24.7632 14.1826C24.8555 14.2288 24.9486 14.2788 25.0417 14.3288L25.0418 14.3288C25.0493 14.3342 25.0573 14.3388 25.0657 14.3427L25.0741 14.3473L25.228 14.432C25.5035 14.5859 25.7736 14.7636 26.0437 14.9499C26.1399 15.0191 26.2346 15.0907 26.33 15.1638L26.34 15.1707L26.3508 15.1784C26.4126 15.2229 26.4679 15.2684 26.524 15.3145L26.5655 15.3485C26.7733 15.5042 26.9731 15.6704 27.1642 15.8464L27.5635 16.205C27.6161 16.2598 27.6686 16.3142 27.7211 16.3685C27.7922 16.4422 27.8632 16.5157 27.9337 16.5897C28.1009 16.7504 28.2471 16.9263 28.3912 17.0997L28.3912 17.0997C28.4671 17.1911 28.5425 17.2818 28.6201 17.3693C28.7622 17.5478 28.8913 17.7295 29.0168 17.9063L29.0169 17.9063L29.0171 17.9066C29.0771 17.9911 29.1363 18.0744 29.1957 18.1557C29.2527 18.2489 29.338 18.4074 29.4257 18.5706C29.5003 18.7093 29.5767 18.8512 29.639 18.9591L29.7613 17.8048L29.7441 17.7444L29.744 17.7444C29.6924 17.5634 29.6314 17.3498 29.5989 17.2738C29.2165 16.4399 28.6212 15.7215 27.8729 15.1907ZM29.2179 19.1276C29.3205 19.3646 29.4134 19.5806 29.4965 19.7755C29.5111 19.8086 29.5242 19.8394 29.535 19.8686C29.5411 19.8878 29.5467 19.9053 29.5517 19.921C29.5648 19.9619 29.574 19.9906 29.5796 20.0056C28.9509 19.8441 28.3445 19.6055 27.7743 19.2953C26.9466 18.857 26.188 18.2993 25.5226 17.6401C24.6279 16.7495 23.9062 15.7006 23.3941 14.5466C23.0944 14.0348 22.6064 13.6606 22.0344 13.5039H22.0805C22.3148 13.493 22.5496 13.5049 22.7816 13.5393C22.8585 13.5493 22.9355 13.5624 23.0124 13.5793C23.0894 13.5962 23.1663 13.6162 23.2433 13.6362C23.4161 13.6895 23.5971 13.7634 23.7937 13.8436L23.8266 13.8571C24.0659 13.9671 24.3229 14.0918 24.5854 14.2419C24.6353 14.2717 24.6861 14.3015 24.7373 14.3315C24.8193 14.3795 24.9023 14.4282 24.9847 14.4789C25.0751 14.5344 25.164 14.5959 25.2544 14.6584C25.298 14.6886 25.3419 14.7189 25.3864 14.749C25.5734 14.8677 25.7509 15.0076 25.9305 15.1492C26.0186 15.2185 26.1071 15.2883 26.1975 15.3561C26.2862 15.4373 26.3776 15.5162 26.4694 15.5954C26.6412 15.7436 26.8139 15.8927 26.9709 16.0587L27.341 16.4289L27.6827 16.8182C27.8381 16.9844 27.9735 17.1655 28.1063 17.3431C28.1733 17.4328 28.2396 17.5215 28.3076 17.607C28.4291 17.7763 28.5385 17.9479 28.6445 18.1144C28.7043 18.2082 28.763 18.3003 28.8224 18.3896L29.2179 19.1276Z" fill="currentCOlor"/>
</svg>
