<svg xmlns="http://www.w3.org/2000/svg" width="100%" height="100%" viewBox="0 0 22 18"><path d="M22,2.14a9.09,9.09,0,0,1-2.59.72,4.58,4.58,0,0,0,2-2.51,9.38,9.38,0,0,1-2.87,1.09,4.47,4.47,0,0,0-5.42-.9,4.54,4.54,0,0,0-2.26,5A12.73,12.73,0,0,1,1.5.84,4.62,4.62,0,0,0,.89,3.13a4.55,4.55,0,0,0,2,3.78,4.4,4.4,0,0,1-2-.57V6.4a4.56,4.56,0,0,0,1,2.87,4.48,4.48,0,0,0,2.59,1.58,4.59,4.59,0,0,1-2,.08,4.52,4.52,0,0,0,4.22,3.15A9,9,0,0,1,1.07,16,9.59,9.59,0,0,1,0,16,12.82,12.82,0,0,0,19.76,5.1c0-.2,0-.39,0-.59A9.15,9.15,0,0,0,22,2.16Z" fill="currentColor"/></svg>
