<svg width="100%" height="100%" viewBox="0 0 345 80" fill="none" xmlns="http://www.w3.org/2000/svg">
<path d="M98.7876 55.3075C93.7564 55.3075 90.375 51.0953 90.375 39.9843C90.375 28.8733 93.7564 24.6602 98.7876 24.6602C103.819 24.6602 107.2 28.8724 107.2 39.9843C107.2 51.0963 103.819 55.3075 98.7876 55.3075ZM98.7876 27.3862C95.9066 27.3862 93.5912 29.8641 93.5912 39.9872C93.5912 50.1103 95.9018 52.5882 98.7876 52.5882C101.673 52.5882 103.984 50.1113 103.984 39.9872C103.984 29.8631 101.674 27.3891 98.7876 27.3891V27.3862Z" fill="white"/>
<path d="M116.147 25.0742L123.817 47.0481H123.898V25.0742H127.116V54.8934H123.652L114.415 28.9526H114.332V54.9001H111.115V25.081L116.147 25.0742Z" fill="white"/>
<path d="M145.4 25.0742V27.8003H135.007V37.9609H142.678V40.687H135.007V52.1712H145.891V54.9001H131.791V25.081L145.4 25.0742Z" fill="white"/>
<path d="M153.005 29.5346H148.057V25.0742H163.068V29.5346H158.119V54.9001H153.005V29.5346Z" fill="white"/>
<path d="M171.143 54.8992H166.029V25.0801H173.206C178.936 25.0801 181.865 27.5156 181.865 33.8777C181.865 38.6699 180.01 40.6111 178.278 41.396L182.608 54.8992H177.412L173.782 42.5474C172.905 42.6369 172.024 42.6786 171.143 42.6724V54.8992ZM171.143 38.4583H172.957C175.721 38.4583 176.752 37.4262 176.752 33.8738C176.752 30.3215 175.721 29.2894 172.957 29.2894H171.143V38.4583Z" fill="white"/>
<path d="M186.07 54.8992V25.0801H199.765V29.5404H191.187V37.2242H197.786V41.6836H191.187V50.4418H200.341V54.8992H186.07Z" fill="white"/>
<path d="M203.793 54.8992V25.0801H217.486V29.5404H208.908V37.2242H215.507V41.6836H208.908V50.4418H218.064V54.8992H203.793Z" fill="white"/>
<path d="M221.438 25.0742H228.449C233.232 25.0742 236.366 28.2957 236.366 33.2504C236.366 38.2052 233.232 41.4267 228.449 41.4267H224.655V54.8934H221.438L221.438 25.0742ZM224.656 38.7054H228.035C231.252 38.7054 233.151 36.974 233.151 33.2533C233.151 29.5327 231.252 27.8003 228.035 27.8003H224.656V38.7054Z" fill="white"/>
<path d="M242.867 25.0742V52.1712H252.517V54.9001H239.648V25.081L242.867 25.0742Z" fill="white"/>
<path d="M265.401 25.0742L271.958 54.8934H268.741L266.969 46.0525H259.382L257.607 54.9001H254.391L260.946 25.081L265.401 25.0742ZM259.831 43.3303H266.511L263.213 27.3039H263.131L259.831 43.3303Z" fill="white"/>
<path d="M279.763 25.0742L287.432 47.0481H287.513V25.0742H290.732V54.8934H287.267L278.034 28.9565H277.952V54.9001H274.736V25.081L279.763 25.0742Z" fill="white"/>
<path d="M308.895 25.0742V27.8003H302.789V54.9001H299.573V27.8032H293.469V25.0771L308.895 25.0742Z" fill="white"/>
<path d="M325.434 25.0742V27.8003H315.043V37.9609H322.713V40.687H315.043V52.1712H325.932V54.9001H311.826V25.081L325.434 25.0742Z" fill="white"/>
<path d="M329.412 25.0742H334.94C341.206 25.0742 345 28.5429 345 39.9838C345 51.4247 341.206 54.8934 334.94 54.8934H329.412V25.0742ZM332.629 52.1712H334.358C339.064 52.1712 341.782 50.1868 341.782 39.9848C341.782 29.7828 339.061 27.8003 334.358 27.8003H332.629V52.1712Z" fill="white"/>
<path d="M39.935 0C29.3473 0.01222 19.1968 4.23041 11.7102 11.7292C4.22354 19.228 0.0122001 29.3951 0 40C0.0119465 50.605 4.22321 60.7722 11.7099 68.2711C19.1966 75.7699 29.3472 79.988 39.935 80C50.5228 79.9883 60.6736 75.7702 68.1603 68.2713C75.6471 60.7724 79.8583 50.6051 79.8699 40C79.858 29.395 75.6467 19.2278 68.1601 11.7289C60.6734 4.23008 50.5227 0.0119659 39.935 0ZM58.5004 69.7201C58.3006 69.647 58.1249 69.5604 58.1249 69.495C58.1409 69.3278 58.0909 69.161 57.9858 69.0301C57.8806 68.8993 57.7286 68.8148 57.5621 68.7947C57.2519 68.7947 55.9449 68.2743 55.6049 68.2743C55.4443 68.2765 55.2902 68.3378 55.1718 68.4465C55.0489 68.3388 54.5101 67.9598 54.5101 67.7732C54.5318 67.55 54.4653 67.3273 54.3249 67.1527C54.1845 66.9781 53.9814 66.8655 53.7591 66.8392C53.3481 66.8392 52.3878 66.4063 51.9758 66.4063C51.5638 66.4063 47.8405 64.519 47.4247 64.519C47.3274 64.521 47.2316 64.5441 47.144 64.5868C47.0565 64.6295 46.9792 64.6907 46.9176 64.7663C46.8656 64.6351 46.777 64.5217 46.6624 64.4395C46.5478 64.3573 46.4121 64.3098 46.2713 64.3026C46.1901 64.2849 46.1173 64.24 46.0649 64.1753C46.0125 64.1106 45.9837 64.03 45.9832 63.9467C46.0049 63.7244 45.9391 63.5024 45.7997 63.3281C45.6603 63.1538 45.4584 63.041 45.237 63.0137C44.9662 63.0137 44.2671 62.4365 43.8532 62.4365C43.8071 62.4365 42.551 61.3957 42.138 61.3957C41.788 61.297 41.4532 61.1503 41.1431 60.96C40.903 55.5521 40.2874 51.4506 40.0512 49.3276C39.9311 48.2513 39.8514 47.6654 39.8514 47.6654C39.693 46.6439 39.5758 45.3569 39.4884 43.8851C38.9814 35.3145 39.4836 20.405 39.79 13.9486C39.8341 12.9588 39.8764 12.1585 39.9062 11.6179C39.9062 11.5217 39.9167 11.44 39.9215 11.3659C39.9215 11.2639 39.9292 11.1735 39.935 11.11C39.9407 10.9917 39.9436 10.9302 39.9436 10.9302C39.4883 11.7599 39.2189 12.679 39.1542 13.6235C38.2063 19.2188 37.6113 24.8684 37.3728 30.5387C37.2767 32.425 37.2249 34.217 37.1942 35.8878C37.0836 39.6031 37.1878 43.3216 37.5063 47.0248C37.828 51.465 38.1199 55.7782 38.5626 61.1841C38.432 61.2312 38.2947 61.2803 38.1507 61.3457C37.5072 61.6179 36.8062 62.0113 36.7245 62.3018C36.6621 62.5173 36.4489 62.7539 36.2799 62.7539C35.9543 62.7539 35.1774 63.9438 35.092 63.9438C34.3902 64.2093 33.8068 64.7182 33.4478 65.378C33.2187 65.7203 32.867 65.9614 32.4654 66.0514C32.0525 66.0514 31.265 66.9854 30.852 66.9854C30.5639 66.9854 29.4346 67.2913 29.0274 67.2913C28.8761 67.2998 28.7309 67.354 28.6109 67.4467C28.491 67.5394 28.4018 67.6663 28.3551 67.8107C28.0538 67.5582 27.6703 67.4257 27.2776 67.4384C26.5516 67.4384 25.6057 68.1329 25.4174 68.1329C25.2827 68.1341 25.1519 68.1782 25.0439 68.2589C24.9353 68.1779 24.8038 68.1338 24.6684 68.1329C24.6326 68.1335 24.5969 68.1373 24.5618 68.1445C24.527 68.1374 24.4916 68.1335 24.4561 68.1329C24.0393 68.1329 22.935 69.4459 22.668 69.4459C22.3539 69.5152 22.0509 69.6271 21.7672 69.7788H21.4512C16.3953 66.6319 12.2236 62.2462 9.32989 57.0358C6.43623 51.8254 4.91612 45.9623 4.91312 40C4.9238 30.7003 8.61682 21.7845 15.182 15.2087C21.7472 8.63277 30.6485 4.93374 39.9331 4.92304C49.2181 4.93297 58.1201 8.63167 64.686 15.2076C71.2518 21.7836 74.9452 30.6998 74.9559 40C74.9521 45.9446 73.44 51.7908 70.5616 56.9895C67.6832 62.1882 63.5328 66.5688 58.5004 69.7201Z" fill="white"/>
<path d="M35.0325 40.5775C33.4433 38.0963 30.9948 36.291 28.1574 35.5082C27.8059 35.3966 27.441 35.2947 27.0598 35.1994C27.0598 35.1994 21.8576 33.9749 19.7266 34.1596C19.7266 34.1596 19.7602 34.176 19.8303 34.2067C20.1184 34.3366 20.7311 34.7483 21.9795 35.3957C24.8408 36.859 27.5606 38.5846 30.104 40.5505C33.0033 42.8466 35.7355 44.1933 36.6738 47.2291C36.6547 45.7655 36.4681 44.3089 36.1177 42.888C35.8418 42.0802 35.4779 41.3054 35.0325 40.5775Z" fill="white"/>
<path d="M44.7156 22.4924C46.4322 21.4127 48.2451 20.495 50.131 19.751C50.954 19.421 51.5456 19.2171 51.7348 19.1517C51.7799 19.1363 51.803 19.1305 51.803 19.1305C50.1836 19.0384 48.5592 19.1028 46.9523 19.3229C46.7074 19.3566 46.4721 19.3999 46.2445 19.4489C44.4146 19.7668 42.7669 20.7515 41.6185 22.2134C40.6217 23.487 40.2298 26.5189 40.178 27.2038C41.2044 25.2273 42.7805 23.5909 44.7156 22.4924Z" fill="white"/>
<path d="M42.0013 47.205C42.3451 46.7385 42.6822 46.2296 43.0769 45.7371C43.4898 45.2629 43.8787 44.7406 44.3541 44.2818L45.0484 43.5671L45.7898 42.8937C46.1413 42.558 46.5264 42.2617 46.9067 41.9636C47.0402 41.8577 47.1727 41.7529 47.3081 41.649L47.3293 41.6327C47.3342 41.6272 47.34 41.6227 47.3465 41.6192C47.5242 41.4845 47.7 41.3489 47.8805 41.221C48.3837 40.8718 48.8889 40.539 49.4007 40.2543C49.4968 40.1975 49.5986 40.1475 49.6965 40.0936C49.7022 40.0913 49.7074 40.0881 49.7119 40.084L49.756 40.0619C49.9308 39.9657 50.1047 39.8743 50.2775 39.7887L50.4898 39.6752C50.9123 39.4616 51.3243 39.2837 51.7171 39.123C49.6776 39.2954 47.6875 39.8443 45.8474 40.7419C45.3743 41.0259 44.9171 41.3358 44.478 41.6702C43.0796 42.6598 41.9661 44.0008 41.2493 45.5582C41.1148 45.8704 41.0028 46.1919 40.9142 46.5201C40.8425 46.7827 40.7863 47.0493 40.7461 47.3185C40.7922 47.9832 40.8546 48.569 40.9324 49.0605C41.0063 48.9134 41.0765 48.7662 41.1542 48.6103C41.4174 48.1669 41.6949 47.6994 42.0013 47.205Z" fill="white"/>
<path d="M53.7947 38.6783C53.6593 38.6995 53.5229 38.7226 53.3712 38.7533C53.2348 38.786 53.0831 38.8245 52.938 38.862C52.599 38.9669 52.2418 39.1131 51.8519 39.2747C51.4053 39.4786 50.9252 39.7124 50.4373 39.9913C50.1947 40.1356 49.9463 40.2831 49.6921 40.4338C49.4424 40.5896 49.1965 40.7685 48.942 40.9388C48.4244 41.2687 47.9433 41.6881 47.4295 42.0739C46.9541 42.5086 46.4365 42.9097 45.989 43.3859L45.2995 44.0765C45.0856 44.3209 44.8731 44.5636 44.6618 44.8047C44.2239 45.2741 43.8734 45.8022 43.4979 46.2783C43.1435 46.7708 42.8429 47.2797 42.5375 47.7405C42.2773 48.2291 42.0285 48.6927 41.8 49.1169L41.2814 50.328C41.2516 50.3886 41.2305 50.4492 41.2055 50.5079C41.1642 50.6387 41.1354 50.7253 41.1229 50.7657C42.2945 50.4602 43.425 50.0141 44.4899 49.4373C46.0333 48.6168 47.449 47.5754 48.6924 46.3457C50.3595 44.6807 51.704 42.7206 52.6576 40.5646C53.2176 39.6097 54.1282 38.912 55.1949 38.6206L55.1075 38.6148C54.6688 38.5946 54.2293 38.6158 53.7947 38.6783Z" fill="white"/>
<path d="M34.7844 18.9867C34.4897 18.764 34.1836 18.5569 33.8673 18.3663C32.636 17.7654 31.3043 17.3982 29.9395 17.2832C30.2026 17.39 30.4772 17.5083 30.7605 17.6526L30.9036 17.7266C31.0189 17.7844 31.1351 17.8469 31.2513 17.9094C31.2606 17.9161 31.2706 17.9219 31.2811 17.9267L31.2916 17.9325L31.4837 18.0383C31.8275 18.2307 32.1646 18.4529 32.5017 18.6857C32.6217 18.7722 32.7398 18.8617 32.8589 18.9531L32.8714 18.9617L32.8848 18.9714C32.9809 19.0406 33.0644 19.1118 33.1528 19.1839C33.4122 19.3786 33.6615 19.5863 33.8999 19.8063L34.3983 20.2545C34.553 20.4161 34.7076 20.5749 34.8603 20.7355C35.1791 21.0423 35.4365 21.3934 35.7169 21.7099C35.9791 22.0398 36.2057 22.3784 36.4352 22.693C36.5668 22.9084 36.8194 23.4038 36.9884 23.6972L37.1411 22.2543C37.0729 22.0158 36.9836 21.6964 36.9384 21.5906C36.4612 20.5483 35.7182 19.6502 34.7844 18.9867Z" fill="white"/>
<path d="M36.8105 24.7194C36.7068 24.4757 36.5909 24.2058 36.4629 23.9095L35.9692 22.987C35.7637 22.6773 35.564 22.3397 35.3268 22.0088C35.0742 21.6904 34.8389 21.3354 34.547 21.0228L34.1206 20.5361L33.6587 20.0734C33.3581 19.755 33.0114 19.4866 32.6935 19.1952C32.3507 18.9374 32.029 18.6575 31.6813 18.4362C31.5104 18.3208 31.3471 18.2015 31.18 18.0986C31.0129 17.9957 30.8439 17.8995 30.6816 17.8023C30.3541 17.6148 30.0334 17.4589 29.7347 17.3214C29.4735 17.2146 29.2343 17.1155 29.0067 17.0453C28.9107 17.0203 28.8147 16.9953 28.7186 16.9741C28.6226 16.953 28.5266 16.9366 28.4305 16.9241C28.141 16.8811 27.848 16.8663 27.5557 16.8799C27.5201 16.8799 27.498 16.8799 27.498 16.8799C28.2119 17.0757 28.821 17.5435 29.195 18.1832C29.834 19.6257 30.7347 20.9368 31.8513 22.0501C32.6816 22.8741 33.6284 23.5713 34.6613 24.1192C35.3729 24.5069 36.1296 24.8051 36.9142 25.007C36.9046 24.981 36.8864 24.9224 36.8585 24.8358C36.8451 24.7992 36.8288 24.7608 36.8105 24.7194Z" fill="white"/>
</svg>
