<?xml version="1.0" encoding="UTF-8"?>
<svg id="a" data-name="Layer 1" xmlns="http://www.w3.org/2000/svg" viewBox="0 0 111 67">
  <path d="m7.5,26h2.5v7.5h12.5v-7.5h2.5v17.5h-2.5v-7.5h-12.5v7.5h-2.5v-17.5Z" fill-rule="evenodd"/>
  <path d="m32.5,39.75l5-10.75,6.74,14.5h2.76s-8.13-17.5-8.13-17.5h-2.75l-8.12,17.5h2.75s0,0,0,0l8.63-4.55-1.06-2.27-5.82,3.06h0Z" fill-rule="evenodd"/>
  <path d="m62.5,28.5h-12.5v-2.5h12.5c2.76,0,5,2.24,5,5s-2.24,5-5,5h-10v7.5h-2.5v-10h12.5c1.38,0,2.5-1.12,2.5-2.5s-1.12-2.5-2.5-2.5Z" fill-rule="evenodd"/>
  <path d="m71.25,43.5v-17.5h2.5v17.5h-2.5Z" fill-rule="evenodd"/>
  <path d="m7.5,48.5h2.5v7.5h12.5v-7.5h2.5v17.5h-2.5v-7.5h-12.5v7.5h-2.5v-17.5Z" fill-rule="evenodd"/>
  <path d="m37.5,63.5c3.45,0,6.25-2.8,6.25-6.25s-2.8-6.25-6.25-6.25-6.25,2.8-6.25,6.25,2.8,6.25,6.25,6.25Zm0,2.5c4.83,0,8.75-3.92,8.75-8.75s-3.92-8.75-8.75-8.75-8.75,3.92-8.75,8.75,3.92,8.75,8.75,8.75Z" fill-rule="evenodd"/>
  <path d="m64.6,48.5h2.9v17.5h-2.5v-14.12l-4.6,5.37h-3.29l-4.6-5.37v14.12h-2.5v-17.5h2.9l5.85,6.83,5.85-6.83Z"/>
  <path d="m71.25,48.5h17.5v2.5h-17.5v-2.5Zm0,7.5h17.5v2.5h-17.5v-2.5Zm17.5,7.5h-17.5v2.5h17.5v-2.5Z" fill-rule="evenodd"/>
  <path d="m97.5,51h12.5v-2.5h-12.5c-2.76,0-5,2.24-5,5s2.24,5,5,5h7.5c1.38,0,2.5,1.12,2.5,2.5s-1.12,2.5-2.5,2.5h-12.5v2.5h12.5c2.76,0,5-2.24,5-5s-2.24-5-5-5h-7.5c-1.38,0-2.5-1.12-2.5-2.5s1.12-2.5,2.5-2.5Z" fill-rule="evenodd"/>
  <path d="m73.75,19.59L37.5.84,0,20.24v45.76h2.5V21.76L37.5,3.66l36.25,18.75v-2.81Z" fill-rule="evenodd"/>
</svg>