<svg width="810" height="156" viewBox="0 0 810 156" fill="none" xmlns="http://www.w3.org/2000/svg">
	<path
		d="M76.3594 97.9297H55.4062V80.8438H76.3594C79.2656 80.8438 81.6328 80.1875 83.4609 78.875C85.3359 77.5625 86.6953 75.7578 87.5391 73.4609C88.3828 71.1172 88.8047 68.4922 88.8047 65.5859C88.8047 62.6328 88.3594 59.8906 87.4688 57.3594C86.625 54.7812 85.2891 52.6953 83.4609 51.1016C81.6797 49.5078 79.3125 48.7109 76.3594 48.7109H62.0156V134H41.4844V31.625H76.3594C83.25 31.625 89.1797 33.0781 94.1484 35.9844C99.1172 38.8906 102.914 42.8984 105.539 48.0078C108.211 53.0703 109.547 58.8828 109.547 65.4453C109.547 72.0547 108.211 77.7969 105.539 82.6719C102.914 87.5 99.1172 91.25 94.1484 93.9219C89.1797 96.5938 83.25 97.9297 76.3594 97.9297ZM180.141 116.984V134H137.602V116.984H180.141ZM143.93 31.625V134H123.328V31.625H143.93ZM230.695 49.9062L208.688 134H186.961L218.953 31.625H232.523L230.695 49.9062ZM248.062 134L225.914 49.9062L223.875 31.625H237.656L269.93 134H248.062ZM248.836 95.8203V112.906H202.641V95.8203H248.836ZM284.344 31.625L299.953 77.75L315.422 31.625H337.852L310.289 96.8047V134H289.547V96.8047L261.984 31.625H284.344ZM380.602 31.625H413.438C420.281 31.625 426.117 32.7969 430.945 35.1406C435.773 37.4844 439.477 40.9531 442.055 45.5469C444.633 50.1406 445.922 55.8125 445.922 62.5625C445.922 68.0938 445.172 72.8281 443.672 76.7656C442.172 80.6562 440.039 83.9141 437.273 86.5391C434.508 89.1172 431.203 91.1797 427.359 92.7266L421.102 96.4531H394.453L394.383 79.3672H412.875C415.688 79.3672 418.008 78.7578 419.836 77.5391C421.711 76.2734 423.094 74.5156 423.984 72.2656C424.922 69.9688 425.391 67.2969 425.391 64.25C425.391 61.0156 424.969 58.25 424.125 55.9531C423.328 53.6094 422.039 51.8281 420.258 50.6094C418.523 49.3438 416.25 48.7109 413.438 48.7109H401.203V134H380.602V31.625ZM427.078 134L408.305 88.3672L429.891 88.2969L449.086 133.016V134H427.078ZM518.977 116.984V134H474.469V116.984H518.977ZM480.867 31.625V134H460.266V31.625H480.867ZM513 73.1094V89.6328H474.469V73.1094H513ZM518.836 31.625V48.7109H474.469V31.625H518.836ZM589.711 116.984V134H545.203V116.984H589.711ZM551.602 31.625V134H531V31.625H551.602ZM583.734 73.1094V89.6328H545.203V73.1094H583.734ZM589.57 31.625V48.7109H545.203V31.625H589.57ZM658.547 116.984V134H616.008V116.984H658.547ZM622.336 31.625V134H601.734V31.625H622.336Z"
		fill="white" />
	<path d="M810 82.5L714.75 134.029V30.9715L810 82.5Z" fill="white" />
</svg>