<svg width="608" height="103" viewBox="0 0 608 103" fill="none" xmlns="http://www.w3.org/2000/svg">
<path d="M32.6641 62.8516H10.3047V51.8125H32.6641C36.8828 51.8125 40.2812 50.9688 42.8594 49.2812C45.4844 47.5938 47.3828 45.25 48.5547 42.25C49.7734 39.25 50.3828 35.8281 50.3828 31.9844C50.3828 28.4688 49.7734 25.1641 48.5547 22.0703C47.3828 18.9766 45.4844 16.4922 42.8594 14.6172C40.2812 12.6953 36.8828 11.7344 32.6641 11.7344H12.9766V103H0.0390625V0.625H32.6641C39.2734 0.625 44.8516 1.96094 49.3984 4.63281C53.9453 7.30469 57.3906 11.0078 59.7344 15.7422C62.125 20.4297 63.3203 25.7969 63.3203 31.8438C63.3203 38.4062 62.125 44.0078 59.7344 48.6484C57.3906 53.2891 53.9453 56.8281 49.3984 59.2656C44.8516 61.6562 39.2734 62.8516 32.6641 62.8516ZM133 91.9609V103H90.5312V91.9609H133ZM92.8516 0.625V103H79.9141V0.625H92.8516ZM182.992 9.69531L155.008 103H141.789L174.766 0.625H183.062L182.992 9.69531ZM205.633 103L177.648 9.69531L177.508 0.625H185.875L218.852 103H205.633ZM205.633 65.1016V76.2109H156.273V65.1016H205.633ZM232.07 0.625L252.953 52.0234L273.906 0.625H288.531L259.422 64.75V103H246.484V64.75L217.375 0.625H232.07ZM335.078 0.625H363.695C370.352 0.625 375.93 1.79688 380.43 4.14062C384.977 6.48437 388.398 9.95313 390.695 14.5469C393.039 19.0938 394.211 24.6953 394.211 31.3516C394.211 36.0391 393.438 40.3281 391.891 44.2188C390.344 48.0625 388.094 51.3438 385.141 54.0625C382.188 56.7344 378.602 58.7266 374.383 60.0391L370.867 61.5156H345.344L345.203 50.4766H363.555C367.492 50.4766 370.773 49.6328 373.398 47.9453C376.023 46.2109 377.992 43.8906 379.305 40.9844C380.617 38.0781 381.273 34.8672 381.273 31.3516C381.273 27.4141 380.688 23.9688 379.516 21.0156C378.344 18.0625 376.469 15.7891 373.891 14.1953C371.359 12.5547 367.961 11.7344 363.695 11.7344H348.016V103H335.078V0.625ZM384.227 103L363.836 56.5938L377.266 56.5234L398.078 102.156V103H384.227ZM466.562 91.9609V103H422.125V91.9609H466.562ZM424.445 0.625V103H411.508V0.625H424.445ZM460.586 44.6406V55.6797H422.125V44.6406H460.586ZM465.859 0.625V11.7344H422.125V0.625H465.859ZM538.141 91.9609V103H493.703V91.9609H538.141ZM496.023 0.625V103H483.086V0.625H496.023ZM532.164 44.6406V55.6797H493.703V44.6406H532.164ZM537.438 0.625V11.7344H493.703V0.625H537.438ZM607.75 91.9609V103H565.281V91.9609H607.75ZM567.602 0.625V103H554.664V0.625H567.602Z" fill="white"/>
</svg>
