<svg width="608" height="103" viewBox="0 0 608 103" fill="none" xmlns="http://www.w3.org/2000/svg">
<path d="M32.7109 62.8516H10.3516V51.8125H32.7109C36.9297 51.8125 40.3281 50.9688 42.9062 49.2812C45.5312 47.5938 47.4297 45.25 48.6016 42.25C49.8203 39.25 50.4297 35.8281 50.4297 31.9844C50.4297 28.4688 49.8203 25.1641 48.6016 22.0703C47.4297 18.9766 45.5312 16.4922 42.9062 14.6172C40.3281 12.6953 36.9297 11.7344 32.7109 11.7344H13.0234V103H0.0859375V0.625H32.7109C39.3203 0.625 44.8984 1.96094 49.4453 4.63281C53.9922 7.30469 57.4375 11.0078 59.7812 15.7422C62.1719 20.4297 63.3672 25.7969 63.3672 31.8438C63.3672 38.4062 62.1719 44.0078 59.7812 48.6484C57.4375 53.2891 53.9922 56.8281 49.4453 59.2656C44.8984 61.6562 39.3203 62.8516 32.7109 62.8516ZM133.047 91.9609V103H90.5781V91.9609H133.047ZM92.8984 0.625V103H79.9609V0.625H92.8984ZM183.039 9.69531L155.055 103H141.836L174.812 0.625H183.109L183.039 9.69531ZM205.68 103L177.695 9.69531L177.555 0.625H185.922L218.898 103H205.68ZM205.68 65.1016V76.2109H156.32V65.1016H205.68ZM232.117 0.625L253 52.0234L273.953 0.625H288.578L259.469 64.75V103H246.531V64.75L217.422 0.625H232.117ZM335.125 0.625H363.742C370.398 0.625 375.977 1.79688 380.477 4.14062C385.023 6.48437 388.445 9.95313 390.742 14.5469C393.086 19.0938 394.258 24.6953 394.258 31.3516C394.258 36.0391 393.484 40.3281 391.938 44.2188C390.391 48.0625 388.141 51.3438 385.188 54.0625C382.234 56.7344 378.648 58.7266 374.43 60.0391L370.914 61.5156H345.391L345.25 50.4766H363.602C367.539 50.4766 370.82 49.6328 373.445 47.9453C376.07 46.2109 378.039 43.8906 379.352 40.9844C380.664 38.0781 381.32 34.8672 381.32 31.3516C381.32 27.4141 380.734 23.9688 379.562 21.0156C378.391 18.0625 376.516 15.7891 373.938 14.1953C371.406 12.5547 368.008 11.7344 363.742 11.7344H348.062V103H335.125V0.625ZM384.273 103L363.883 56.5938L377.312 56.5234L398.125 102.156V103H384.273ZM466.609 91.9609V103H422.172V91.9609H466.609ZM424.492 0.625V103H411.555V0.625H424.492ZM460.633 44.6406V55.6797H422.172V44.6406H460.633ZM465.906 0.625V11.7344H422.172V0.625H465.906ZM538.188 91.9609V103H493.75V91.9609H538.188ZM496.07 0.625V103H483.133V0.625H496.07ZM532.211 44.6406V55.6797H493.75V44.6406H532.211ZM537.484 0.625V11.7344H493.75V0.625H537.484ZM607.797 91.9609V103H565.328V91.9609H607.797ZM567.648 0.625V103H554.711V0.625H567.648Z" fill="white"/>
</svg>
