<svg width="34" height="32" viewBox="0 0 34 32" fill="none" xmlns="http://www.w3.org/2000/svg">
<path fill-rule="evenodd" clip-rule="evenodd" d="M0.140137 27.2754H33.283V31.5132H0.140456L0.140137 27.2754Z" fill="#FF0000"/>
<path fill-rule="evenodd" clip-rule="evenodd" d="M7.76921 0.487305L2.19812 18.1674H6.23174L10.0158 5.67049L11.9124 11.9182H9.45896L8.47917 15.4847H12.995L13.8093 18.1674H17.9582L12.3878 0.487305H7.76921ZM24.2967 0.487305H18.5056V18.1674H22.5104V4.05389H24.1242C25.9967 4.05389 27.0628 4.99862 27.0628 6.70575C27.0628 8.38233 25.9967 9.35783 24.1242 9.35783H23.8649V12.9243H24.2967C28.6185 12.9243 31.154 10.6227 31.154 6.70575C31.154 2.71252 28.6185 0.487305 24.2967 0.487305Z" fill="black"/>
</svg>
