<svg width="26" height="24" viewBox="0 0 26 24" fill="none" xmlns="http://www.w3.org/2000/svg">
<path fill-rule="evenodd" clip-rule="evenodd" d="M0.188477 20.4561H25.0456V23.6344H0.188716L0.188477 20.4561Z" fill="#FF0000"/>
<path fill-rule="evenodd" clip-rule="evenodd" d="M5.91025 0.365234L1.73193 13.6253H4.75715L7.59518 4.25262L9.01763 8.93844H7.17757L6.44272 11.6133H9.82961L10.4403 13.6253H13.552L9.37419 0.365234H5.91025ZM18.3059 0.365234H13.9625V13.6253H16.9662V3.04018H18.1765C19.5809 3.04018 20.3805 3.74872 20.3805 5.02907C20.3805 6.2865 19.5809 7.01813 18.1765 7.01813H17.982V9.69299H18.3059C21.5472 9.69299 23.4488 7.96674 23.4488 5.02907C23.4488 2.03415 21.5472 0.365234 18.3059 0.365234Z" fill="black"/>
</svg>
