<svg width="88" height="28" viewBox="0 0 88 28" fill="none" xmlns="http://www.w3.org/2000/svg">
<path fill-rule="evenodd" clip-rule="evenodd" d="M26.339 14.0001C26.339 21.2108 20.4921 27.0578 13.2813 27.0578C6.07058 27.0578 0.223633 21.2108 0.223633 14.0001C0.223633 6.78933 6.07058 0.942383 13.2813 0.942383C20.4921 0.942383 26.339 6.78933 26.339 14.0001ZM13.2958 2.82849C7.1297 2.82849 2.12425 7.83394 2.12425 14.0001C2.12425 20.1662 7.1297 25.1717 13.2958 25.1717C19.462 25.1717 24.4674 20.1662 24.4674 14.0001C24.4674 7.83394 19.462 2.82849 13.2958 2.82849ZM38.7438 18.5134H36.4659L35.9291 16.5982H32.6502L32.1279 18.5134H29.821L32.8098 8.70559H35.7695L38.7438 18.5134ZM33.129 14.7702H35.3778L34.2461 10.6642L33.129 14.7702ZM41.8196 14.1463V18.5134H39.7013V11.3316H41.4569L41.602 12.0135C42.0372 11.7234 42.9513 11.3026 43.5316 11.1865L43.7057 13.1887L43.6313 13.2224C43.0316 13.4935 42.2652 13.8399 41.8196 14.1463ZM46.3898 15.7858C46.3898 16.5257 46.6945 16.8594 47.5505 16.8594C48.0873 16.8594 48.508 16.8014 49.0158 16.6853L49.277 18.4408C48.5661 18.6004 48.0437 18.6584 47.5359 18.6584C45.2001 18.6584 44.257 17.7879 44.257 15.7422V14.1173C44.257 12.0571 45.2146 11.2011 47.5359 11.2011C48.0437 11.2011 48.5515 11.2591 49.277 11.4332L49.0158 13.1887C48.5806 13.0872 47.9567 13.0146 47.5505 13.0146C46.709 13.0146 46.3898 13.3628 46.3898 14.0883V15.7858ZM54.7322 18.5134V13.7691C54.7322 13.4499 54.5871 13.2468 54.2099 13.2468C53.8181 13.2468 53.1217 13.5369 52.6575 13.7836V18.5134H50.5392V8.41541L52.6284 8.12524V11.8539C53.499 11.4622 54.3695 11.1865 55.1965 11.1865C56.4152 11.1865 56.8504 12.1006 56.8504 13.4934V18.5134H54.7322ZM58.5479 8.19779H60.6662V10.4466H58.5479V8.19779ZM58.5479 11.3606H60.6662V18.5424H58.5479V11.3606ZM66.6147 18.5134V13.7691C66.6147 13.4499 66.4696 13.2468 66.0924 13.2468C65.7007 13.2468 65.0042 13.5079 64.54 13.7691V18.5134H62.4217V11.3316H64.0031L64.2353 11.8684C65.1203 11.4477 66.281 11.1865 67.0935 11.1865C68.3122 11.1865 68.7474 12.1006 68.7474 13.4934V18.5134H66.6147ZM72.186 15.6842V15.9018C72.186 16.7288 72.5052 16.9464 73.4917 16.9464C74.1591 16.9464 75.0441 16.8304 75.6825 16.6418L75.9872 18.2377C75.3343 18.4698 74.2897 18.6875 73.2886 18.6875C70.9527 18.6875 70.0677 17.5413 70.0677 15.7712V14.0883C70.0677 12.5358 70.7496 11.2156 73.158 11.2156C75.5374 11.2156 76.0598 12.6374 76.0598 14.1898V15.6842H72.186ZM74.0431 13.7691C74.0431 13.2613 73.898 12.855 73.158 12.855C72.4181 12.855 72.186 13.2613 72.186 13.7691V14.0737H74.0431V13.7691ZM79.1356 15.7858C79.1356 16.5257 79.4402 16.8594 80.2962 16.8594C80.8331 16.8594 81.2538 16.8014 81.7616 16.6853L82.0228 18.4408C81.3118 18.6004 80.7895 18.6584 80.2817 18.6584C77.9459 18.6584 77.0028 17.7879 77.0028 15.7422V14.1173C77.0028 12.0571 77.9604 11.2011 80.2817 11.2011C80.7895 11.2011 81.2973 11.2591 82.0228 11.4332L81.7616 13.1887C81.3263 13.0872 80.7025 13.0146 80.2962 13.0146C79.4547 13.0146 79.1356 13.3628 79.1356 14.0883V15.7858ZM85.7079 18.673C84.3441 18.673 83.5317 18.1506 83.5317 16.8304V13.0581H82.5596V11.3461H83.5317V9.61962L85.6499 9.32945V11.3461H87.2749L87.1588 13.0581H85.6354V16.5402C85.6354 16.8304 85.8095 16.9319 86.0706 16.9319C86.3028 16.9319 86.6365 16.9029 86.9557 16.8014L87.2023 18.3973C86.7671 18.5714 86.2012 18.673 85.7079 18.673ZM17.1556 18.1502C17.3297 18.1647 17.4603 17.9906 17.3732 17.7439C17.2862 17.4973 16.5317 15.1759 16.5462 15.1614C16.4666 14.9094 16.2051 14.9242 16.1276 14.9286C16.1203 14.929 16.1147 14.9293 16.111 14.9293H13.1802L13.688 13.5365H15.6612C15.8643 13.5365 15.9369 13.3333 15.8933 13.1738C15.8353 12.9706 14.7181 10.243 14.7181 10.243L15.5451 8.00871L19.3174 17.8455C19.3222 17.8572 19.3269 17.8687 19.3315 17.8801C19.3952 18.0366 19.4414 18.1502 19.7526 18.1502H20.8262V19.7026H16.1545V18.1502H17.1556ZM15.2695 5.75989H11.6568L6.12909 19.7896H9.84328L15.2695 5.75989Z" fill="black"/>
</svg>
