<svg width="117" height="36" viewBox="0 0 117 36" fill="none" xmlns="http://www.w3.org/2000/svg">
<path fill-rule="evenodd" clip-rule="evenodd" d="M34.8967 18.0001C34.8967 27.6144 27.1008 35.4104 17.4864 35.4104C7.8721 35.4104 0.0761719 27.6144 0.0761719 18.0001C0.0761719 8.38577 7.8721 0.589844 17.4864 0.589844C27.1008 0.589844 34.8967 8.38577 34.8967 18.0001ZM17.5058 3.10466C9.28426 3.10466 2.61033 9.77859 2.61033 18.0001C2.61033 26.2216 9.28426 32.8955 17.5058 32.8955C25.7273 32.8955 32.4012 26.2216 32.4012 18.0001C32.4012 9.77859 25.7273 3.10466 17.5058 3.10466ZM51.4364 24.018H48.3992L47.6835 21.4645H43.3116L42.6152 24.018H39.5393L43.5244 10.9409H47.4707L51.4364 24.018ZM43.9499 19.027H46.9484L45.4395 13.5525L43.9499 19.027ZM55.5374 18.1952V24.018H52.7131V14.4423H55.0538L55.2473 15.3515C55.8276 14.9646 57.0463 14.4036 57.8201 14.2489L58.0522 16.9184L57.9529 16.9633C57.1534 17.3248 56.1316 17.7867 55.5374 18.1952ZM61.631 20.3811C61.631 21.3677 62.0373 21.8127 63.1786 21.8127C63.8944 21.8127 64.4553 21.7353 65.1324 21.5805L65.4806 23.9212C64.5327 24.134 63.8363 24.2114 63.1592 24.2114C60.0448 24.2114 58.7873 23.0507 58.7873 20.3231V18.1565C58.7873 15.4096 60.0641 14.2682 63.1592 14.2682C63.8363 14.2682 64.5134 14.3456 65.4806 14.5777L65.1324 16.9184C64.5521 16.783 63.7202 16.6863 63.1786 16.6863C62.0566 16.6863 61.631 17.1506 61.631 18.1178V20.3811ZM72.7542 24.018V17.6922C72.7542 17.2666 72.5608 16.9958 72.0578 16.9958C71.5355 16.9958 70.607 17.3827 69.9879 17.7116V24.018H67.1636V10.554L69.9492 10.1671V15.1387C71.1099 14.6164 72.2706 14.2489 73.3733 14.2489C74.9982 14.2489 75.5786 15.4676 75.5786 17.3247V24.018H72.7542ZM77.8419 10.2639H80.6662V13.2623H77.8419V10.2639ZM77.8419 14.481H80.6662V24.0566H77.8419V14.481ZM88.5976 24.018V17.6922C88.5976 17.2666 88.4041 16.9958 87.9012 16.9958C87.3789 16.9958 86.4503 17.344 85.8313 17.6922V24.018H83.0069V14.4423H85.1155L85.425 15.1581C86.6051 14.5971 88.1526 14.2489 89.2359 14.2489C90.8609 14.2489 91.4412 15.4676 91.4412 17.3247V24.018H88.5976ZM96.0259 20.2457V20.5359C96.0259 21.6386 96.4515 21.9287 97.767 21.9287C98.6568 21.9287 99.8368 21.774 100.688 21.5225L101.094 23.6504C100.224 23.9599 98.8309 24.2501 97.4961 24.2501C94.3816 24.2501 93.2016 22.7219 93.2016 20.3618V18.1178C93.2016 16.0479 94.1108 14.2876 97.322 14.2876C100.495 14.2876 101.191 16.1833 101.191 18.2532V20.2457H96.0259ZM98.5021 17.6922C98.5021 17.0152 98.3086 16.4735 97.322 16.4735C96.3355 16.4735 96.0259 17.0152 96.0259 17.6922V18.0985H98.5021V17.6922ZM105.292 20.3811C105.292 21.3677 105.698 21.8127 106.84 21.8127C107.555 21.8127 108.116 21.7353 108.793 21.5805L109.142 23.9212C108.194 24.134 107.497 24.2114 106.82 24.2114C103.706 24.2114 102.448 23.0507 102.448 20.3231V18.1565C102.448 15.4096 103.725 14.2682 106.82 14.2682C107.497 14.2682 108.174 14.3456 109.142 14.5777L108.793 16.9184C108.213 16.783 107.381 16.6863 106.84 16.6863C105.718 16.6863 105.292 17.1506 105.292 18.1178V20.3811ZM114.055 24.2308C112.237 24.2308 111.154 23.5343 111.154 21.774V16.7443H109.857V14.4617H111.154V12.1596L113.978 11.7727V14.4617H116.144L115.99 16.7443H113.959V21.3871C113.959 21.774 114.191 21.9094 114.539 21.9094C114.848 21.9094 115.293 21.8707 115.719 21.7353L116.048 23.8632C115.467 24.0953 114.713 24.2308 114.055 24.2308ZM22.652 23.5338C22.8842 23.5531 23.0583 23.321 22.9422 22.9921C22.8261 22.6633 21.8202 19.5681 21.8396 19.5488C21.7334 19.2127 21.3847 19.2324 21.2814 19.2383C21.2717 19.2388 21.2642 19.2393 21.2592 19.2393H17.3516L18.0287 17.3822H20.6595C20.9304 17.3822 21.0271 17.1113 20.9691 16.8985C20.8917 16.6277 19.4021 12.9909 19.4021 12.9909L20.5048 10.0118L25.5344 23.1275C25.5409 23.1432 25.5472 23.1585 25.5533 23.1736C25.6382 23.3823 25.6998 23.5338 26.1148 23.5338H27.5463V25.6037H21.3173V23.5338H22.652ZM20.1372 7.01339H15.3204L7.95006 25.7197H12.9023L20.1372 7.01339Z" fill="black"/>
</svg>
