<svg width="121" height="24" viewBox="0 0 121 24" fill="none" xmlns="http://www.w3.org/2000/svg">
<path d="M0.1427 0.571289H8.94022C10.6159 0.571289 11.8727 1.00435 12.8037 1.72612C13.8277 2.59224 14.3863 3.8433 14.3863 5.38307C14.3863 7.16343 13.6881 8.27015 12.2917 8.9438V9.04003C14.1536 9.66556 15.2242 11.3978 15.2242 13.4669C15.2242 15.4397 14.4794 16.9795 13.2692 17.9418C12.2451 18.7117 10.9418 19.0485 9.17295 19.0485H0.1427V0.571289ZM8.05581 7.78897C8.98677 7.78897 9.68498 7.25967 9.68498 6.15296C9.68498 5.09437 8.98676 4.56507 8.00926 4.56507H4.98366V7.74085H8.05581V7.78897ZM8.47474 14.9585C9.54534 14.9585 10.3366 14.2849 10.3366 13.0819C10.3366 11.7827 9.49879 11.2053 8.47474 11.2053H5.03021V15.0066H8.47474V14.9585ZM16.0155 0.571289H20.6237V19.0967H16.0155V0.571289ZM21.5546 12.5045C21.5546 8.31826 24.1613 5.52743 28.211 5.52743C32.2606 5.52743 34.8207 8.36638 34.8207 12.5045C34.8207 16.6908 32.2606 19.4816 28.211 19.4816C24.1613 19.4816 21.5546 16.6908 21.5546 12.5045ZM30.2125 12.5045C30.2125 10.1949 29.5143 8.75132 28.1179 8.75132C26.7214 8.75132 26.0698 10.1949 26.0698 12.5045C26.0698 14.8142 26.7214 16.3058 28.1179 16.3058C29.5143 16.2577 30.2125 14.8142 30.2125 12.5045ZM35.3328 12.5045C35.3328 8.31826 37.9394 5.52743 41.9891 5.52743C46.0387 5.52743 48.5523 8.31826 48.5523 12.5045C48.5523 16.6908 45.9922 19.4816 41.9425 19.4816C37.9394 19.4816 35.3328 16.6908 35.3328 12.5045ZM43.9906 12.5045C43.9906 10.1949 43.2924 8.75132 41.896 8.75132C40.4996 8.75132 39.8479 10.1949 39.8479 12.5045C39.8479 14.8142 40.4996 16.3058 41.896 16.3058C43.2924 16.2577 43.9906 14.8142 43.9906 12.5045ZM49.4833 5.86425H53.7657V7.83708H53.8588C54.6966 6.29731 55.8603 5.47931 57.7222 5.47931C59.3514 5.47931 60.5616 6.29731 61.1668 7.74085H61.2598C62.2839 6.00861 63.6338 5.47931 65.2164 5.47931C68.1955 5.47931 69.4522 7.74085 69.4522 10.7723V19.0485H64.9837V11.5903C64.9837 10.243 64.5647 9.37685 63.4476 9.37685C62.3304 9.37685 61.7719 10.4354 61.7719 11.879V19.0485H57.3033V11.5903C57.3033 10.243 56.8844 9.37685 55.7672 9.37685C54.6501 9.37685 54.0915 10.4354 54.0915 11.879V19.0485H49.4833V5.86425ZM75.0845 17.3163H75.038V19.0485H70.7556V0.571289H75.2242V7.21155H75.3173C76.1551 6.05672 77.3188 5.43119 78.948 5.43119C82.1598 5.43119 84.0217 8.4145 84.0217 12.4083C84.0217 16.8832 82.0201 19.4816 78.6687 19.4816C77.2723 19.4816 75.8293 18.808 75.0845 17.3163ZM79.4135 12.3602C79.4135 10.243 78.6687 8.84756 77.3188 8.84756C75.9224 8.84756 75.0845 10.243 75.0845 12.3602C75.0845 14.4773 75.9689 15.8728 77.3188 15.8728C78.6687 15.8728 79.4135 14.5255 79.4135 12.3602ZM84.5337 12.4564C84.5337 8.31826 87.1869 5.47931 91.0038 5.47931C92.9123 5.47931 94.3553 6.10484 95.4724 7.21155C96.9619 8.70321 97.6136 11.0129 97.5671 13.7075H89.0023C89.1885 15.3435 89.9332 16.2096 91.2831 16.2096C92.0744 16.2096 92.7727 15.8246 93.0519 14.9585H97.3809C96.6361 17.99 94.3553 19.4816 91.1435 19.4816C87.1869 19.4335 84.5337 16.6427 84.5337 12.4564ZM89.0023 11.061H93.0985C93.0054 9.47309 92.1675 8.65509 91.0969 8.65509C89.8401 8.60697 89.1419 9.52121 89.0023 11.061ZM102.641 8.12579H102.734C103.665 6.29731 104.875 5.57555 106.411 5.57555C106.784 5.57555 107.016 5.62366 107.156 5.7199V9.7618H107.063C104.41 9.28062 102.874 10.5798 102.874 13.5631V19.0967H98.3584V5.86425H102.641V8.12579ZM107.621 19.0967H111.95C112.137 19.6741 112.695 20.2034 113.766 20.2034C115.209 20.2034 115.721 19.2891 115.721 17.8937V16.9314H115.628C114.929 17.7975 113.952 18.423 112.555 18.423C109.809 18.423 107.389 16.3058 107.389 12.1677C107.389 8.36638 109.344 5.43119 112.323 5.43119C114.045 5.43119 115.069 6.15296 115.767 7.25967H115.86V5.81613H120.143V17.2682C120.143 19.3854 119.444 21.0214 118.374 21.9837C117.257 22.9942 115.674 23.4273 113.859 23.4273C110.414 23.4754 108.04 22.0318 107.621 19.0967ZM115.907 11.9752C115.907 10.3392 115.162 8.99191 113.859 8.99191C112.602 8.99191 111.811 10.1467 111.811 11.9752C111.811 13.7556 112.602 15.0066 113.859 15.0066C115.116 15.0066 115.907 13.7075 115.907 11.9752Z" fill="black"/>
</svg>
