<svg width="91" height="18" viewBox="0 0 91 18" fill="none" xmlns="http://www.w3.org/2000/svg">
<path d="M0.0234375 0.428711H6.62157C7.87836 0.428711 8.82095 0.753507 9.51917 1.29483C10.2872 1.94442 10.7061 2.88272 10.7061 4.03755C10.7061 5.37282 10.1825 6.20285 9.13515 6.70809V6.78027C10.5316 7.24942 11.3345 8.5486 11.3345 10.1004C11.3345 11.58 10.776 12.7348 9.86828 13.4566C9.10024 14.034 8.12274 14.2867 6.79613 14.2867H0.0234375V0.428711ZM5.95827 5.84197C6.65649 5.84197 7.18015 5.445 7.18015 4.61496C7.18015 3.82102 6.65648 3.42405 5.92336 3.42405H3.65416V5.80588H5.95827V5.84197ZM6.27247 11.2191C7.07541 11.2191 7.6689 10.7139 7.6689 9.81169C7.6689 8.8373 7.0405 8.40424 6.27247 8.40424H3.68907V11.2552H6.27247V11.2191ZM11.928 0.428711H15.3842V14.3227H11.928V0.428711ZM16.0824 9.37863C16.0824 6.23894 18.0374 4.14581 21.0746 4.14581C24.1119 4.14581 26.032 6.27503 26.032 9.37863C26.032 12.5183 24.1119 14.6114 21.0746 14.6114C18.0374 14.6114 16.0824 12.5183 16.0824 9.37863ZM22.5758 9.37863C22.5758 7.64639 22.0521 6.56374 21.0048 6.56374C19.9575 6.56374 19.4687 7.64639 19.4687 9.37863C19.4687 11.1109 19.9575 12.2296 21.0048 12.2296C22.0521 12.1935 22.5758 11.1109 22.5758 9.37863ZM26.416 9.37863C26.416 6.23894 28.371 4.14581 31.4082 4.14581C34.4455 4.14581 36.3307 6.23894 36.3307 9.37863C36.3307 12.5183 34.4106 14.6114 31.3733 14.6114C28.371 14.6114 26.416 12.5183 26.416 9.37863ZM32.9094 9.37863C32.9094 7.64639 32.3857 6.56374 31.3384 6.56374C30.2911 6.56374 29.8023 7.64639 29.8023 9.37863C29.8023 11.1109 30.2911 12.2296 31.3384 12.2296C32.3857 12.1935 32.9094 11.1109 32.9094 9.37863ZM37.0289 4.39843H40.2407V5.87806H40.3105C40.9389 4.72323 41.8116 4.10973 43.2081 4.10973C44.43 4.10973 45.3376 4.72323 45.7915 5.80588H45.8613C46.6293 4.5067 47.6418 4.10973 48.8287 4.10973C51.063 4.10973 52.0056 5.80588 52.0056 8.07945V14.2867H48.6542V8.69295C48.6542 7.68248 48.34 7.03288 47.5021 7.03288C46.6642 7.03288 46.2453 7.82683 46.2453 8.90948V14.2867H42.8939V8.69295C42.8939 7.68248 42.5797 7.03288 41.7418 7.03288C40.904 7.03288 40.485 7.82683 40.485 8.90948V14.2867H37.0289V4.39843ZM56.2298 12.9875H56.1949V14.2867H52.9831V0.428711H56.3345V5.40891H56.4044C57.0328 4.54279 57.9055 4.07364 59.1274 4.07364C61.5362 4.07364 62.9327 6.31112 62.9327 9.30645C62.9327 12.6627 61.4315 14.6114 58.9179 14.6114C57.8706 14.6114 56.7884 14.1062 56.2298 12.9875ZM59.4765 9.27036C59.4765 7.68248 58.9179 6.63591 57.9055 6.63591C56.8582 6.63591 56.2298 7.68248 56.2298 9.27036C56.2298 10.8583 56.8931 11.9048 57.9055 11.9048C58.9179 11.9048 59.4765 10.8943 59.4765 9.27036ZM63.3167 9.34254C63.3167 6.23894 65.3066 4.10973 68.1693 4.10973C69.6006 4.10973 70.6829 4.57888 71.5207 5.40891C72.6379 6.52765 73.1266 8.25989 73.0917 10.2808H66.6681C66.8078 11.5078 67.3663 12.1574 68.3788 12.1574C68.9722 12.1574 69.4959 11.8687 69.7054 11.2191H72.9521C72.3935 13.4927 70.6829 14.6114 68.274 14.6114C65.3066 14.5754 63.3167 12.4822 63.3167 9.34254ZM66.6681 8.29598H69.7403C69.6705 7.10506 69.0421 6.49156 68.2391 6.49156C67.2965 6.45547 66.7729 7.14115 66.6681 8.29598ZM76.897 6.09459H76.9668C77.665 4.72323 78.5727 4.1819 79.7248 4.1819C80.004 4.1819 80.1786 4.21799 80.2833 4.29017V7.32159H80.2135C78.2236 6.96071 77.0715 7.93509 77.0715 10.1726V14.3227H73.6852V4.39843H76.897V6.09459ZM80.6324 14.3227H83.8792C84.0188 14.7558 84.4377 15.1528 85.2407 15.1528C86.3229 15.1528 86.7069 14.4671 86.7069 13.4205V12.6988H86.6371C86.1134 13.3484 85.3803 13.8175 84.333 13.8175C82.2732 13.8175 80.4579 12.2296 80.4579 9.12601C80.4579 6.27503 81.9241 4.07364 84.1584 4.07364C85.4501 4.07364 86.2182 4.61496 86.7418 5.445H86.8117V4.36234H90.0234V12.9514C90.0234 14.5393 89.4998 15.7663 88.6968 16.488C87.859 17.2459 86.672 17.5707 85.3105 17.5707C82.7271 17.6068 80.9466 16.5241 80.6324 14.3227ZM86.8466 8.98166C86.8466 7.75465 86.288 6.74418 85.3105 6.74418C84.3679 6.74418 83.7744 7.6103 83.7744 8.98166C83.7744 10.3169 84.3679 11.2552 85.3105 11.2552C86.2531 11.2552 86.8466 10.2808 86.8466 8.98166Z" fill="black"/>
</svg>
