<svg width="37" height="30" viewBox="0 0 37 30" fill="none" xmlns="http://www.w3.org/2000/svg">
<path fill-rule="evenodd" clip-rule="evenodd" d="M0.311035 29.5716L9.54361 2.95999C10.738 2.94402 11.917 3.00237 13.0763 3.13078L0.482349 29.5716L5.96707 20.9352V28.1986H8.02349V23.2276L11.1082 28.1986H13.1649V19.6273H10.9369V23.9128L8.36633 19.6273H6.79768L12.6493 10.4131V8.65735H13.7643L16.844 3.80809C20.5705 4.74177 24.0199 6.41182 27.0257 8.65735H27.4528C24.3764 6.31187 20.8278 4.56457 16.9942 3.57153L18.9901 0.428711H14.3633L13.209 2.85214C12.0428 2.70884 10.8574 2.63402 9.65757 2.63153L10.4218 0.428711H6.30897L5.78705 2.91986C3.9179 3.18518 2.07416 3.61175 0.311127 4.19977V4.54273C2.05097 3.96249 3.86929 3.53946 5.71297 3.27344L0.311035 29.057V29.5716ZM32.5293 13.1148L33.8917 15.4397C34.9656 17.0141 35.8896 18.702 36.6416 20.485V21.1712C36.2174 20.1103 35.7326 19.0805 35.1917 18.086H32.5293L31.1583 15.6862L29.7872 18.086H26.874L29.6159 13.2861L26.874 8.65759H29.9587L31.1583 10.7147L32.1864 8.65759H35.2707L32.5293 13.1148ZM12.6501 8.65759V18.086H15.392V15.0003H18.1341V12.4291H15.392V11.2288H18.6481L18.4768 8.65759H12.6501ZM24.303 11.4005L24.1315 15.3434C24.1315 15.8577 23.7886 16.2004 23.446 16.2004C22.932 16.2004 22.5894 15.8577 22.5894 15.3434V11.4005C22.5894 10.8864 22.932 10.5434 23.446 10.5434C23.7886 10.5434 24.303 10.8864 24.303 11.4005ZM23.446 8.65771C20.7043 8.65771 18.6477 10.8864 18.6477 13.4578C18.6477 16.0291 20.7043 18.0862 23.446 18.0864C26.0166 18.0864 28.2443 16.0293 28.2443 13.4578C28.2443 10.8864 26.0166 8.65771 23.446 8.65771ZM19.1628 19.6273H13.6788V28.1986H19.1628V26.1413H15.7352V24.7701H18.6484V22.8844H15.7352V21.6848H19.1628V19.6273ZM21.7332 19.6273H19.6765L21.5616 28.1986H23.6183L24.6464 23.2276L25.6745 28.1986H27.5596L29.6162 19.6273H27.7313L26.7026 24.599L25.6745 19.6273H23.7894L22.7613 24.599L21.7332 19.6273ZM32.7007 26.3129C31.8441 26.3129 31.3298 25.9702 31.1587 25.1129L29.1018 25.6272C29.4447 27.3414 30.6443 28.1986 32.5294 28.1986C33.5575 28.1986 34.4145 27.8559 35.1 27.1702C35.4428 26.6556 35.7854 25.9702 35.7854 25.2845C35.7854 24.5988 35.4426 23.9126 35.1 23.5703C34.4145 23.0558 33.7292 22.8842 33.0433 22.713C32.8292 22.6273 32.6365 22.5631 32.4679 22.5068C31.9619 22.3381 31.6726 22.2416 31.6726 21.8557C31.6726 21.5128 32.0152 21.17 32.5296 21.17C33.0433 21.17 33.3866 21.5128 33.7292 22.0273L35.6143 21.5128C35.1 20.1416 34.0719 19.2843 32.7007 19.2843C30.6445 19.2843 29.4449 20.4839 29.4449 22.1985C29.4449 23.5703 30.3019 24.2558 32.0155 24.7699C32.2755 24.8739 32.504 24.9306 32.6961 24.9783C33.1371 25.0877 33.3866 25.1496 33.3866 25.6272C33.3866 25.9702 33.2151 26.3129 32.7007 26.3129Z" fill="#003566"/>
</svg>
