<svg width="50" height="40" viewBox="0 0 50 40" fill="none" xmlns="http://www.w3.org/2000/svg">
<path fill-rule="evenodd" clip-rule="evenodd" d="M0.636719 39.4284L12.9469 3.94616C14.5394 3.92487 16.1114 4.00266 17.6572 4.17388L0.865137 39.4284L8.17815 27.9131V37.5973H10.92V30.9692L15.033 37.5973H17.7752V26.1688H14.8046V31.8829L11.3772 26.1688H9.28593L17.0878 13.8838V11.5424H18.5747L22.6807 5.07697C27.6494 6.32186 32.2484 8.54851 36.256 11.5424H36.8255C32.7237 8.41525 27.9924 6.08559 22.881 4.76156L25.5421 0.571289H19.3731L17.8341 3.80236C16.2791 3.6113 14.6986 3.51153 13.0988 3.50821L14.1178 0.571289H8.63397L7.93811 3.89264C5.4459 4.2464 2.98758 4.81516 0.636858 5.5992V6.05648C2.95665 5.28282 5.38109 4.71878 7.83934 4.36408L0.636719 38.7424V39.4284ZM43.5944 17.4854L45.4128 20.5884C46.8439 22.6869 48.0752 24.9365 49.0775 27.3129V28.2277C48.5118 26.813 47.8653 25.4398 47.144 24.1137H43.5944L41.7665 20.914L39.9382 24.1137H36.054L39.7098 17.7139L36.054 11.5425H40.1669L41.7665 14.2853L43.1373 11.5425H47.2496L43.5944 17.4854ZM32.6259 15.1995L32.3972 20.4566C32.3972 21.1424 31.9401 21.5994 31.4833 21.5994C30.798 21.5994 30.3412 21.1424 30.3412 20.4566V15.1995C30.3412 14.514 30.798 14.0568 31.4833 14.0568C31.9401 14.0568 32.6259 14.514 32.6259 15.1995ZM31.4833 11.5424C27.8277 11.5424 25.0855 14.514 25.0855 17.9426C25.0855 21.3709 27.8277 24.1137 31.4833 24.114C34.9107 24.114 37.881 21.3712 37.881 17.9426C37.881 14.514 34.9107 11.5424 31.4833 11.5424ZM17.0889 11.5425V24.1137H20.7447V19.9994H24.4009V16.5711H20.7447V14.9708H25.0861L24.8577 11.5425H17.0889ZM25.7725 26.1688H18.4605V37.5973H25.7725V34.8542H21.2023V33.026H25.0866V30.5117H21.2023V28.9122H25.7725V26.1688ZM29.1996 26.1688H26.4574L28.9709 37.5973H31.7131L33.0839 30.9692L34.4547 37.5973H36.9681L39.7103 26.1688H37.1971L35.8255 32.7978L34.4547 26.1688H31.9412L30.5704 32.7978L29.1996 26.1688ZM43.823 35.083C42.6809 35.083 41.9951 34.626 41.767 33.483L39.0245 34.1687C39.4816 36.4543 41.0811 37.5973 43.5946 37.5973C44.9654 37.5973 46.1081 37.1403 47.022 36.2261C47.4792 35.54 47.936 34.626 47.936 33.7117C47.936 32.7975 47.4789 31.8826 47.022 31.4262C46.1081 30.7402 45.1944 30.5114 44.2798 30.2832C43.9944 30.1689 43.7374 30.0832 43.5126 30.0082C42.838 29.7833 42.4522 29.6547 42.4522 29.1401C42.4522 28.6828 42.909 28.2258 43.5949 28.2258C44.2798 28.2258 44.7376 28.6828 45.1944 29.3689L47.7079 28.6828C47.022 26.8546 45.6512 25.7115 43.823 25.7115C41.0814 25.7115 39.4819 27.311 39.4819 29.5971C39.4819 31.4262 40.6246 32.3402 42.9093 33.0257C43.256 33.1644 43.5607 33.2399 43.8169 33.3035C44.4048 33.4494 44.7376 33.5319 44.7376 34.1687C44.7376 34.626 44.5088 35.083 43.823 35.083Z" fill="#003566"/>
</svg>
