<svg width="147" height="22" viewBox="0 0 147 22" fill="none" xmlns="http://www.w3.org/2000/svg">
<path fill-rule="evenodd" clip-rule="evenodd" d="M14.3872 13.9332L20.5874 4.82959H23.6177V20.812H20.0847V11.7085H20.0288L13.8565 20.812H10.8262V11.7085H10.7703L4.59804 20.812H0.338867L11.3289 4.82959H14.3313V13.9332H14.3872ZM77.4508 9.33361H79.6712L79.1964 11.9268H76.9481L75.2584 20.812H71.7533L73.443 11.9268H71.6975L72.2281 9.3882C72.8414 9.41665 73.443 9.21711 73.9119 8.82971C74.3808 8.44231 74.6823 7.89577 74.7557 7.29998L75.0071 5.93512H78.0932L77.4508 9.33361ZM46.9108 20.812L49.9411 4.82959H53.4741L51.8263 13.4964H51.8822L55.9459 9.33361H60.0933L54.717 14.3699L57.7892 20.812H53.8093L51.547 15.2707H51.4912L50.4439 20.812H46.9108ZM33.4464 17.1388C34.0842 16.5999 34.5137 15.8635 34.6634 15.0525C34.7648 14.6992 34.778 14.3273 34.7018 13.968C34.6256 13.6087 34.4623 13.2724 34.2256 12.9876C33.9889 12.7028 33.6857 12.4776 33.3415 12.3311C32.9973 12.1845 32.6221 12.1208 32.2475 12.1454C31.4082 12.174 30.6045 12.484 29.9713 13.0233C29.3381 13.5626 28.9141 14.2984 28.7704 15.1071C28.6794 15.4575 28.6728 15.8237 28.7513 16.1769C28.8299 16.5301 28.9912 16.8607 29.2228 17.1426C29.4543 17.4244 29.7496 17.6499 30.0855 17.8012C30.4214 17.9524 30.7886 18.0254 31.1583 18.0143C32.001 17.9868 32.8085 17.6778 33.4464 17.1388ZM35.5292 10.5212L35.7805 9.32016V9.3611H39.2018L37.0094 20.8395H33.5323L33.7557 19.6112C33.2993 20.1466 32.7234 20.5727 32.0722 20.8567C31.421 21.1406 30.7118 21.2748 29.9992 21.249C26.2707 21.249 24.6508 18.3691 25.2653 15.0798C25.5351 13.4156 26.3866 11.8941 27.6749 10.7743C28.9632 9.65449 30.6086 9.00559 32.3313 8.938C32.9655 8.85564 33.6104 8.9628 34.1812 9.24538C34.752 9.52796 35.2219 9.97273 35.5292 10.5212ZM44.5084 9.33381H41.2267L39.0343 20.8122H42.5673L43.7682 14.5066C44.1453 12.7459 45.2904 12.3911 46.9382 12.3911L47.5806 8.938C46.9361 8.89747 46.2921 9.02376 45.7134 9.30412C45.1348 9.58448 44.6421 10.009 44.2849 10.5349L44.5084 9.33381ZM62.1736 13.7966C62.4275 13.2103 62.8536 12.7106 63.3979 12.3608C63.9422 12.011 64.5804 11.8267 65.2318 11.8312C65.5165 11.7986 65.805 11.825 66.0785 11.9087C66.352 11.9924 66.6043 12.1315 66.8191 12.317C67.0339 12.5024 67.2063 12.7301 67.325 12.985C67.4437 13.24 67.5061 13.5165 67.508 13.7966H62.1736ZM65.7346 8.93774C63.9838 9.02918 62.3141 9.68794 60.9891 10.81C59.664 11.9321 58.7591 13.4535 58.4172 15.1342C58.2336 15.8727 58.2274 16.6428 58.3989 17.3841C58.5705 18.1254 58.9152 18.8179 59.4061 19.4074C59.8969 19.9968 60.5207 20.4673 61.2285 20.782C61.9364 21.0967 62.7091 21.2471 63.4863 21.2214C64.7411 21.2121 65.967 20.8522 67.0193 20.1841C68.2281 19.4511 69.2387 18.4447 69.9658 17.2497H66.3769C66.0883 17.5864 65.7271 17.8565 65.319 18.0405C64.911 18.2246 64.4663 18.3181 64.0169 18.3143C63.7117 18.349 63.4024 18.3176 63.1109 18.2224C62.8195 18.1273 62.553 17.9705 62.3305 17.7635C62.1079 17.5564 61.9347 17.3039 61.8231 17.0241C61.7116 16.7443 61.6644 16.4438 61.6848 16.1442H70.4965C70.6151 15.8543 70.6994 15.552 70.7478 15.2434C71.4181 11.6675 69.3234 8.93774 65.7346 8.93774Z" fill="black"/>
<path d="M137.373 4.84261H140.878L139.816 10.534C140.18 9.99758 140.683 9.56633 141.276 9.28541C141.868 9.00448 142.526 8.88421 143.182 8.93717C143.746 8.90711 144.309 9.00764 144.826 9.23057C145.343 9.45351 145.799 9.79256 146.156 10.2201C146.91 11.3393 146.827 12.363 146.436 14.4102L145.235 20.825H141.73L142.903 14.574C143.014 14.0281 143.349 12.1582 141.506 12.1582C140.886 12.1634 140.29 12.3965 139.837 12.8112C139.385 13.2259 139.108 13.7918 139.062 14.3966L137.847 20.8114H134.398L137.373 4.84261ZM122.598 9.33298H120.434L121.034 5.93449H117.948L117.641 7.24475C117.567 7.84055 117.266 8.38709 116.797 8.77449C116.328 9.16189 115.727 9.36143 115.113 9.33298L114.638 11.9262H116.37L114.694 20.8114H118.199L119.875 11.9262H122.123L122.598 9.33298ZM105.687 18.0134C106.542 18.0015 107.366 17.6995 108.018 17.1592C108.67 16.6189 109.11 15.8739 109.262 15.0517C109.364 14.6984 109.377 14.3265 109.301 13.9671C109.224 13.6078 109.061 13.2716 108.824 12.9868C108.588 12.7019 108.284 12.4768 107.94 12.3302C107.596 12.1837 107.221 12.12 106.846 12.1446C106.007 12.1732 105.203 12.4832 104.57 13.0225C103.937 13.5618 103.513 14.2976 103.369 15.1063C103.278 15.4567 103.272 15.8229 103.35 16.1761C103.429 16.5293 103.59 16.8599 103.821 17.1418C104.053 17.4236 104.348 17.6491 104.684 17.8003C105.02 17.9516 105.387 18.0246 105.757 18.0134M111.678 20.7432H108.131L108.354 19.5148C107.899 20.0703 107.317 20.5139 106.655 20.8101C105.993 21.1064 105.27 21.247 104.542 21.2209C100.814 21.2209 99.1797 18.341 99.8081 15.0517C100.083 13.3946 100.935 11.8812 102.22 10.7671C103.505 9.65305 105.144 9.00666 106.86 8.93717C107.489 8.86878 108.123 8.98558 108.683 9.27257C109.243 9.55956 109.703 10.0036 110.002 10.5477L110.254 9.34663H113.731L111.678 20.7432ZM104.933 0.748047L98.0905 4.84261H100.032L93.8313 13.9325V4.84261H90.7452L84.5449 13.9325V4.84261H80.9561V20.8114H84.0143L90.2145 11.6669V20.8114H93.2448L104.263 4.84261H105.994L104.933 0.748047ZM134.063 16.4575C133.474 17.8284 132.496 19.0057 131.243 19.8499C129.991 20.6941 128.517 21.1698 126.997 21.2209C126.201 21.264 125.405 21.1223 124.675 20.8074C123.946 20.4925 123.303 20.0133 122.799 19.409C122.295 18.8047 121.944 18.0924 121.776 17.3303C121.608 16.5683 121.626 15.7781 121.83 15.0244C122.178 13.3388 123.101 11.8184 124.448 10.7125C125.795 9.60657 127.487 8.98061 129.245 8.93717C129.922 8.89433 130.601 8.98737 131.24 9.21058C131.879 9.43378 132.464 9.78242 132.96 10.235C133.456 10.6876 133.852 11.2347 134.123 11.8424C134.394 12.4501 134.535 13.1057 134.538 13.7688H130.977C130.875 13.2735 130.589 12.8328 130.173 12.5326C129.758 12.2324 129.243 12.0941 128.729 12.1446C127.908 12.1574 127.12 12.458 126.507 12.9917C125.894 13.5253 125.498 14.2565 125.391 15.0517C125.273 15.3936 125.242 15.7583 125.3 16.1146C125.358 16.4709 125.505 16.8079 125.726 17.0967C125.947 17.3855 126.237 17.6174 126.57 17.7724C126.904 17.9273 127.271 18.0007 127.639 17.9862C128.198 17.9793 128.747 17.8358 129.235 17.5688C129.722 17.3018 130.134 16.9198 130.432 16.4575H134.021H134.063Z" fill="#6BB55B"/>
</svg>
