<svg width="196" height="28" viewBox="0 0 196 28" fill="none" xmlns="http://www.w3.org/2000/svg">
<path fill-rule="evenodd" clip-rule="evenodd" d="M19.183 17.9106L27.4499 5.77246H31.4903V27.0824H26.7796V14.9443H26.7052L18.4754 27.0824H14.435V14.9443H14.3605L6.1308 27.0824H0.451904L15.1053 5.77246H19.1085V17.9106H19.183ZM103.268 11.7778H106.228L105.595 15.2354H102.598L100.345 27.0824H95.6712L97.9241 15.2354H95.5967L96.3042 11.8506C97.122 11.8885 97.9241 11.6225 98.5493 11.106C99.1745 10.5894 99.5765 9.8607 99.6743 9.06631L100.009 7.2465H104.124L103.268 11.7778ZM62.5479 27.0824L66.5883 5.77246H71.299L69.1019 17.3282H69.1764L74.5946 11.7778H80.1245L72.9561 18.4929L77.0524 27.0824H71.7458L68.7295 19.694H68.655L67.2586 27.0824H62.5479ZM44.5953 22.1849C45.4457 21.4663 46.0185 20.4845 46.218 19.4031C46.3532 18.932 46.3707 18.4361 46.2692 17.957C46.1676 17.4779 45.9499 17.0297 45.6343 16.6499C45.3187 16.2701 44.9144 15.9699 44.4555 15.7745C43.9965 15.5791 43.4963 15.4942 42.9968 15.527C41.8777 15.5651 40.8061 15.9784 39.9619 16.6975C39.1177 17.4166 38.5523 18.3976 38.3606 19.4759C38.2393 19.9431 38.2306 20.4313 38.3353 20.9023C38.4399 21.3733 38.6551 21.814 38.9638 22.1898C39.2725 22.5657 39.6663 22.8663 40.1141 23.068C40.562 23.2697 41.0516 23.3669 41.5445 23.3521C42.6681 23.3154 43.7449 22.9035 44.5953 22.1849ZM47.3724 13.3614L47.7075 11.76V11.8145H52.2693L49.346 27.1191H44.7098L45.0077 25.4813C44.3992 26.1953 43.6313 26.7634 42.763 27.1419C41.8947 27.5205 40.9492 27.6995 39.9991 27.6651C35.0277 27.6651 32.8679 23.8253 33.6872 19.4395C34.0469 17.2205 35.1822 15.1918 36.9 13.6988C38.6177 12.2057 40.8117 11.3405 43.1085 11.2504C43.9542 11.1406 44.8141 11.2835 45.5751 11.6603C46.3361 12.037 46.9627 12.6301 47.3724 13.3614ZM59.3446 11.7782H54.9691L52.0458 27.0827H56.7565L58.3578 18.6752C58.8605 16.3277 60.3873 15.8545 62.5844 15.8545L63.4409 11.2504C62.5816 11.1964 61.7229 11.3648 60.9514 11.7386C60.1799 12.1124 59.5229 12.6784 59.0467 13.3796L59.3446 11.7782ZM82.8982 17.7286C83.2368 16.9469 83.8048 16.2807 84.5306 15.8143C85.2563 15.3479 86.1072 15.1021 86.9758 15.1081C87.3553 15.0646 87.74 15.0998 88.1047 15.2114C88.4693 15.323 88.8058 15.5085 89.0922 15.7558C89.3786 16.003 89.6084 16.3066 89.7667 16.6465C89.925 16.9864 90.0081 17.3552 90.0108 17.7286H82.8982ZM87.6461 11.2501C85.3118 11.3721 83.0856 12.2504 81.3188 13.7465C79.5521 15.2426 78.3455 17.2712 77.8896 19.5121C77.6449 20.4968 77.6365 21.5235 77.8653 22.512C78.094 23.5004 78.5536 24.4237 79.2081 25.2096C79.8626 25.9956 80.6943 26.6229 81.6381 27.0425C82.5818 27.4621 83.6122 27.6626 84.6484 27.6284C86.3215 27.616 87.956 27.1361 89.3591 26.2453C90.9708 25.268 92.3183 23.9261 93.2878 22.3328H88.5026C88.1178 22.7817 87.6361 23.1418 87.0921 23.3872C86.548 23.6326 85.9551 23.7573 85.3559 23.7522C84.949 23.7985 84.5366 23.7567 84.1479 23.6297C83.7594 23.5028 83.4041 23.2939 83.1073 23.0177C82.8106 22.7416 82.5797 22.4051 82.4309 22.0319C82.2821 21.6588 82.2192 21.2583 82.2465 20.8587H93.9953C94.1535 20.4722 94.266 20.0692 94.3305 19.6576C95.2242 14.8897 92.4313 11.2501 87.6461 11.2501Z" fill="black"/>
<path d="M183.164 5.78998H187.837L186.422 13.3786C186.906 12.6633 187.578 12.0883 188.367 11.7137C189.157 11.3391 190.035 11.1788 190.909 11.2494C191.661 11.2093 192.413 11.3434 193.102 11.6406C193.791 11.9378 194.398 12.3899 194.875 12.96C195.881 14.4523 195.769 15.8171 195.247 18.5468L193.646 27.0999H188.973L190.537 18.7652C190.686 18.0373 191.133 15.5441 188.675 15.5441C187.848 15.5511 187.053 15.8619 186.45 16.4148C185.846 16.9677 185.477 17.7222 185.416 18.5286L183.797 27.0817H179.198L183.164 5.78998ZM163.464 11.7771H160.578L161.379 7.24583H157.264L156.854 8.99284C156.757 9.78723 156.355 10.516 155.729 11.0325C155.104 11.549 154.302 11.8151 153.484 11.7771L152.851 15.2348H155.16L152.926 27.0817H157.599L159.833 15.2348H162.831L163.464 11.7771ZM140.916 23.3511C142.056 23.3351 143.155 22.9325 144.024 22.2121C144.894 21.4918 145.48 20.4984 145.683 19.4021C145.818 18.931 145.836 18.4351 145.734 17.956C145.632 17.4769 145.415 17.0287 145.099 16.6489C144.783 16.2691 144.379 15.9689 143.92 15.7735C143.461 15.5781 142.961 15.4932 142.462 15.5259C141.343 15.5641 140.271 15.9774 139.427 16.6965C138.582 17.4155 138.017 18.3966 137.825 19.4749C137.704 19.942 137.695 20.4303 137.8 20.9013C137.905 21.3723 138.12 21.813 138.429 22.1888C138.737 22.5647 139.131 22.8653 139.579 23.067C140.027 23.2687 140.516 23.3659 141.009 23.3511M148.904 26.9907H144.175L144.473 25.3529C143.866 26.0935 143.09 26.685 142.207 27.08C141.325 27.475 140.36 27.6626 139.389 27.6276C134.418 27.6276 132.24 23.7879 133.078 19.4021C133.444 17.1927 134.58 15.1748 136.294 13.6893C138.007 12.2039 140.192 11.342 142.48 11.2494C143.318 11.1582 144.165 11.3139 144.911 11.6966C145.658 12.0792 146.27 12.6713 146.67 13.3968L147.005 11.7953H151.641L148.904 26.9907ZM139.911 0.330566L130.787 5.78998H133.375L125.108 17.9099V5.78998H120.994L112.727 17.9099V5.78998H107.941V27.0817H112.019L120.286 14.889V27.0817H124.326L139.017 5.78998H141.326L139.911 0.330566ZM178.751 21.2765C177.966 23.1044 176.661 24.6741 174.991 25.7997C173.321 26.9253 171.357 27.5596 169.329 27.6276C168.267 27.6852 167.207 27.4963 166.234 27.0764C165.261 26.6565 164.403 26.0176 163.732 25.2118C163.06 24.406 162.592 23.4563 162.368 22.4403C162.144 21.4242 162.168 20.3706 162.44 19.3657C162.904 17.1182 164.134 15.0911 165.93 13.6165C167.727 12.1419 169.982 11.3073 172.327 11.2494C173.23 11.1923 174.135 11.3163 174.987 11.6139C175.838 11.9115 176.619 12.3764 177.28 12.9799C177.941 13.5834 178.469 14.3127 178.83 15.123C179.192 15.9333 179.381 16.8074 179.384 17.6915H174.636C174.501 17.0312 174.119 16.4436 173.565 16.0433C173.01 15.643 172.324 15.4586 171.638 15.5259C170.544 15.543 169.493 15.9438 168.676 16.6554C167.859 17.367 167.331 18.3418 167.188 19.4021C167.031 19.8579 166.989 20.3443 167.067 20.8193C167.145 21.2943 167.339 21.7438 167.634 22.1288C167.929 22.5139 168.316 22.8231 168.76 23.0296C169.205 23.2362 169.694 23.3341 170.186 23.3147C170.931 23.3055 171.662 23.1142 172.313 22.7582C172.963 22.4022 173.512 21.8929 173.91 21.2765H178.695H178.751Z" fill="#6BB55B"/>
</svg>
