<svg width="279" height="20" viewBox="0 0 279 20" fill="none" xmlns="http://www.w3.org/2000/svg">
<path fill-rule="evenodd" clip-rule="evenodd" d="M104.732 6.43059H103.821C103.739 6.1966 103.66 5.97103 103.584 5.75372L103.583 5.75113C102.351 2.23341 101.875 0.87609 99.4328 0.87609C96.839 0.87609 95.3086 1.89604 95.3086 3.66644C95.3086 5.57924 97.4233 6.30985 99.7688 7.12017C102.689 8.12893 105.966 9.26123 105.966 12.9517C105.966 17.0839 103.288 19.7142 98.6289 19.7142C96.5944 19.7142 94.8007 19.0966 92.8455 17.9429V12.3079H93.7559L93.8305 12.5457C95.5332 17.9762 95.893 19.1238 99.2451 19.1238C101.146 19.1238 103.288 17.9429 103.288 15.8487C103.288 13.8615 101.168 13.0919 98.8183 12.2393C95.9009 11.1806 92.6308 9.99383 92.6308 6.18823C92.628 2.81212 95.1723 0.285645 99.3758 0.285645C101.211 0.287709 103.03 0.64285 104.732 1.33179V6.43059ZM0.143066 18.6896V19.28H8.14955V18.6933H6.40913V9.83759H6.46235L11.1215 19.28H17.2298V18.6933H16.1234L11.1747 9.46236C13.7994 9.43522 15.9142 7.98578 15.9142 5.19543C15.9142 2.05605 13.5846 0.714216 9.16635 0.714216H0.143066V1.30466H1.53521V18.6896H0.143066ZM6.83677 9.40809H6.40913V1.30466H7.98615C10.1337 1.30466 11.0384 2.35081 11.0384 5.35638C11.0384 8.36194 10.2915 9.40809 6.83677 9.40809ZM18.2967 1.30466H19.5553V18.6943H18.1632V19.2847H32.6757V12.3603H31.7653C30.7214 16.6534 30.1593 18.6933 28.5524 18.6933H24.4292V9.89186H25.9287C27.2667 9.89186 27.615 10.2138 28.4189 13.5945H29.0072V5.59779H28.4189C27.615 8.97952 27.2667 9.30141 25.9287 9.30141H24.4292V1.30466H28.5795C30.1323 1.30466 30.4805 2.2432 31.7653 6.61774H32.6757V0.714216H18.2967V1.30466ZM65.156 19.28H51.2859V18.7186H52.6781V1.30466H51.2859V0.714216H59.6407V1.30466H57.552V18.6933H61.086C62.6388 18.6933 63.0944 17.1634 64.2457 11.8503H65.156V19.28ZM75.5723 1.30466H76.831V18.6943H75.4388V19.2847H89.9513V12.3603H89.041C87.9962 16.6534 87.4341 18.6933 85.8272 18.6933H81.704V9.89186H83.2035C84.5424 9.89186 84.8907 10.2138 85.6937 13.5945H86.2828V5.59779H85.6937C84.8907 8.97952 84.5424 9.30141 83.2035 9.30141H81.704V1.30466H85.8571C87.407 1.30466 87.7553 2.2432 89.041 6.61774H89.9513V0.714216H75.5723V1.30466ZM109.796 18.6896V19.28H117.454V18.6933H116.061V1.30934H116.891C118.748 1.30934 119.34 3.83442 119.786 5.73518L119.786 5.73531L119.786 5.73547C119.868 6.08572 119.945 6.41476 120.024 6.70289H120.935V0.714216H106.315V6.69821H107.225C107.305 6.40924 107.382 6.0791 107.464 5.7277C107.909 3.82726 108.5 1.30466 110.331 1.30466H111.188V18.6896H109.796ZM138.688 19.28V18.6896H140.081V1.30466H139.223C137.394 1.30466 136.803 3.82522 136.357 5.72539C136.274 6.07766 136.197 6.4086 136.117 6.69821H135.207V0.714216H149.827V6.70289H148.916C148.837 6.4146 148.76 6.08536 148.678 5.73489C148.232 3.83417 147.64 1.30934 145.784 1.30934H144.954V18.6933H146.346V19.28H138.688ZM151.28 1.30466H152.539V18.6943H151.146V19.2847H165.659V12.3603H164.749C163.705 16.6534 163.142 18.6933 161.536 18.6933H157.412V9.89186H158.911C160.25 9.89186 160.598 10.2138 161.401 13.5945H161.99V5.59779H161.401C160.598 8.97952 160.25 9.30141 158.911 9.30141H157.412V1.30466H161.562C163.116 1.30466 163.463 2.2432 164.749 6.61774H165.659V0.714216H151.28V1.30466ZM175.153 0.714216H182.996V1.30466H181.121L184.389 13.5945H184.442L186.987 4.81927L186.076 1.30466H184.736V0.714216H192.766V1.30466H190.757L193.864 13.5945H193.917L197.539 1.30466H195.316V0.714216H199.115V1.30466H198.204L193.013 19.28H190.871L187.337 6.05443H187.283L183.428 19.28H181.313L176.466 1.30466H175.153V0.714216ZM200.048 1.30466H201.311V18.6943H199.918V19.2847H214.427V12.3603H213.517C212.472 16.6534 211.91 18.6933 210.303 18.6933H206.18V9.89186H207.679C209.018 9.89186 209.367 10.2138 210.17 13.5945H210.759V5.59779H210.17C209.367 8.97952 209.018 9.30141 207.679 9.30141H206.18V1.30466H210.33C211.883 1.30466 212.231 2.2432 213.517 6.61774H214.427V0.714216H200.048V1.30466ZM218.18 1.30466H216.921V0.714216H231.3V6.61774H230.394C229.109 2.2432 228.761 1.30466 227.208 1.30466H223.058V9.30141H224.557C225.896 9.30141 226.244 8.97952 227.047 5.59779H227.637V13.5945H227.047C226.244 10.2138 225.896 9.89186 224.557 9.89186H223.058V18.6933H227.181C228.788 18.6933 229.35 16.6534 230.394 12.3603H231.304V19.2847H216.787V18.6943H218.18V1.30466ZM233.833 18.6896V19.28H241.489V18.6933H240.097V1.30466H241.489V0.714216H233.833V1.30466H235.225V18.6896H233.833ZM240.178 9.40809L245.159 19.28H250.806V18.6933H250.059L243.498 6.69821L248.265 1.30466H249.765V0.714216H244.784V1.30466H247.141L240.178 9.40809ZM265.846 19.28H251.976V18.7186H253.368V1.30466H251.976V0.714216H260.33V1.30466H258.242V18.6933H261.776C263.329 18.6933 263.784 17.1634 264.935 11.8503H265.846V19.28ZM271.074 0.714216H262.479V1.30466H263.924L268.563 10.9913V18.6896H267.171V19.28H274.827V18.6933H273.435V10.1333L277.879 1.30466H279V0.714216H274.501V1.30466H277.04L272.97 9.56903L269.142 1.30466H271.074V0.714216ZM49.6452 18.6943L43.7545 0.49993H40.7284L34.3559 18.6943H33.0169V19.281H37.4053V18.6905H35.1056L36.8096 13.8144H43.2428L44.7181 18.6905H42.4959V19.281H50.7965V18.6905L49.6452 18.6943ZM37.0169 13.2277L37.4912 11.8784H37.5351L37.7051 11.2833L40.1672 3.96213H40.2204L42.4697 11.288H42.4567L42.6247 11.8784H42.6574L43.0654 13.2277H37.0169ZM129.907 0.49993L135.798 18.6943L136.947 18.6905V19.281H128.646V18.6905H130.868L129.394 13.8144H122.961L121.256 18.6905H123.558V19.281H119.17V18.6943H120.509L126.881 0.49993H129.907ZM123.641 11.8784L123.17 13.2277H129.216L128.808 11.8784H128.776L128.608 11.288H128.621L126.371 3.96213H126.317L123.855 11.2833L123.685 11.8784H123.641Z" fill="black"/>
</svg>
