<svg width="210" height="16" viewBox="0 0 210 16" fill="none" xmlns="http://www.w3.org/2000/svg">
<path fill-rule="evenodd" clip-rule="evenodd" d="M79.2988 5.32306H78.616C78.5538 5.14687 78.4944 4.97706 78.4371 4.81347C77.513 2.17518 77.1565 1.15719 75.3247 1.15719C73.3793 1.15719 72.2316 1.92215 72.2316 3.24995C72.2316 4.68455 73.8176 5.23251 75.5766 5.84025C77.7665 6.59682 80.2245 7.44604 80.2245 10.2139C80.2245 13.313 78.2161 15.2858 74.7217 15.2858C73.1958 15.2858 71.8506 14.8226 70.3842 13.9573V9.73105H71.067L71.1229 9.90935C72.3999 13.9823 72.6698 14.8429 75.1839 14.8429C76.6097 14.8429 78.2161 13.9573 78.2161 12.3867C78.2161 10.8962 76.6257 10.3191 74.8638 9.67962C72.6758 8.88556 70.2232 7.99549 70.2232 5.1413C70.2211 2.60921 72.1293 0.714355 75.282 0.714355C76.6587 0.715904 78.0223 0.982259 79.2988 1.49897V5.32306ZM0.857422 14.5174V14.9603H6.86228V14.5202H5.55697V7.87842H5.59689L9.09126 14.9603H13.6725V14.5202H12.8426L9.13118 7.597C11.0996 7.57665 12.6858 6.48956 12.6858 4.3968C12.6858 2.04227 10.9386 1.03589 7.62488 1.03589H0.857422V1.47872H1.90153V14.5174H0.857422ZM5.8777 7.55629H5.55697V1.47872H6.73974C8.35037 1.47872 9.02894 2.26333 9.02894 4.51751C9.02894 6.77168 8.46872 7.55629 5.8777 7.55629ZM14.4727 1.47872H15.4166V14.5209H14.3725V14.9638H25.2569V9.77046H24.5741C23.7912 12.9903 23.3697 14.5202 22.1645 14.5202H19.0721V7.91912H20.1967C21.2002 7.91912 21.4614 8.16054 22.0644 10.6961H22.5055V4.69857H22.0644C21.4614 7.23487 21.2002 7.47629 20.1967 7.47629H19.0721V1.47872H22.1848C23.3494 1.47872 23.6106 2.18263 24.5741 5.46353H25.2569V1.03589H14.4727V1.47872ZM49.6171 14.9603H39.2145V14.5392H40.2587V1.47872H39.2145V1.03589H45.4806V1.47872H43.9141V14.5202H46.5646C47.7292 14.5202 48.0709 13.3728 48.9344 9.38799H49.6171V14.9603ZM57.4294 1.47872H58.3734V14.5209H57.3293V14.9638H68.2136V9.77046H67.5309C66.7473 12.9903 66.3257 14.5202 65.1205 14.5202H62.0281V7.91912H63.1527C64.1569 7.91912 64.4181 8.16054 65.0204 10.6961H65.4622V4.69857H65.0204C64.4181 7.23487 64.1569 7.47629 63.1527 7.47629H62.0281V1.47872H65.1429C66.3054 1.47872 66.5666 2.18263 67.5309 5.46353H68.2136V1.03589H57.4294V1.47872ZM83.097 14.5174V14.9603H88.8406V14.5202H87.7958V1.48223H88.4184C89.8114 1.48223 90.2554 3.37603 90.5896 4.8016C90.6512 5.06437 90.7091 5.31123 90.7685 5.52739H91.4512V1.03589H80.4863V5.52389H81.1691C81.2285 5.30729 81.2865 5.05987 81.3481 4.79651L81.3482 4.79626L81.3483 4.7961L81.3483 4.796C81.6822 3.37067 82.1253 1.47872 83.4982 1.47872H84.1411V14.5174H83.097ZM104.766 14.9603V14.5174H105.811V1.47872H105.168C103.795 1.47872 103.352 3.36915 103.018 4.79428L103.018 4.79456L103.018 4.79497L103.017 4.79553C102.956 5.05926 102.897 5.30702 102.838 5.52389H102.155V1.03589H113.12V5.52739H112.437C112.378 5.31118 112.32 5.06424 112.258 4.80139C111.924 3.37584 111.48 1.48223 110.088 1.48223H109.465V14.5202H110.509V14.9603H104.766ZM114.21 1.47872H115.154V14.5209H114.11V14.9638H124.994V9.77046H124.312C123.529 12.9903 123.106 14.5202 121.902 14.5202H118.809V7.91912H119.933C120.938 7.91912 121.199 8.16054 121.801 10.6961H122.243V4.69857H121.801C121.199 7.23487 120.938 7.47629 119.933 7.47629H118.809V1.47872H121.921C123.087 1.47872 123.347 2.18263 124.312 5.46353H124.994V1.03589H114.21V1.47872ZM132.115 1.03589H137.997V1.47872H136.591L139.042 10.6961H139.082L140.99 4.11468L140.307 1.47872H139.302V1.03589H145.324V1.47872H143.818L146.148 10.6961H146.188L148.904 1.47872H147.237V1.03589H150.086V1.47872H149.403L145.51 14.9603H143.903L141.253 5.04105H141.212L138.321 14.9603H136.735L133.1 1.47872H132.115V1.03589ZM150.786 1.47872H151.733V14.5209H150.688V14.9638H161.571V9.77046H160.888C160.104 12.9903 159.683 14.5202 158.477 14.5202H155.385V7.91912H156.51C157.514 7.91912 157.775 8.16054 158.377 10.6961H158.819V4.69857H158.377C157.775 7.23487 157.514 7.47629 156.51 7.47629H155.385V1.47872H158.498C159.662 1.47872 159.924 2.18263 160.888 5.46353H161.571V1.03589H150.786V1.47872ZM164.385 1.47872H163.441V1.03589H174.225V5.46353H173.545C172.582 2.18263 172.321 1.47872 171.156 1.47872H168.043V7.47629H169.168C170.172 7.47629 170.433 7.23487 171.036 4.69857H171.478V10.6961H171.036C170.433 8.16054 170.172 7.91912 169.168 7.91912H168.043V14.5202H171.136C172.341 14.5202 172.763 12.9903 173.545 9.77046H174.228V14.9638H163.34V14.5209H164.385V1.47872ZM176.125 14.5174V14.9603H181.867V14.5202H180.823V1.47872H181.867V1.03589H176.125V1.47872H177.169V14.5174H176.125ZM180.884 7.55629L184.619 14.9603H188.854V14.5202H188.294L183.374 5.52389L186.949 1.47872H188.073V1.03589H184.338V1.47872H186.106L180.884 7.55629ZM200.134 14.9603H189.732V14.5392H190.776V1.47872H189.732V1.03589H195.998V1.47872H194.431V14.5202H197.082C198.247 14.5202 198.588 13.3728 199.452 9.38799H200.134V14.9603ZM204.055 1.03589H197.609V1.47872H198.693L202.172 8.74374V14.5174H201.128V14.9603H206.871V14.5202H205.826V8.10019L209.16 1.47872H210V1.03589H206.626V1.47872H208.53L205.478 7.677L202.607 1.47872H204.055V1.03589ZM37.9841 14.5209L33.566 0.875122H31.2964L26.517 14.5209H25.5128V14.9609H28.8041V14.5181H27.0794L28.3574 10.861H33.1823L34.2887 14.5181H32.622V14.9609H38.8475V14.5181L37.9841 14.5209ZM28.5128 10.421L28.8686 9.40898H28.9015L29.0289 8.96264L30.8756 3.47177H30.9155L32.6024 8.96615H32.5926L32.7187 9.40898H32.7432L33.0492 10.421H28.5128ZM98.1806 0.875122L102.599 14.5209L103.46 14.5181V14.9609H97.2346V14.5181H98.9012L97.7955 10.861H92.9706L91.6919 14.5181H93.4188V14.9609H90.1275V14.5209H91.1317L95.911 0.875122H98.1806ZM93.4811 9.40898L93.1274 10.421H97.6624L97.3564 9.40898H97.3319L97.2058 8.96615H97.2157L95.528 3.47177H95.4881L93.6414 8.96264L93.514 9.40898H93.4811Z" fill="black"/>
</svg>
