<svg width="191" height="34" viewBox="0 0 191 34" fill="none" xmlns="http://www.w3.org/2000/svg">
<path fill-rule="evenodd" clip-rule="evenodd" d="M145.017 0.758888C145.546 0.758888 146.427 0.934794 147.132 1.64047C147.661 2.16922 147.839 3.22671 147.661 4.1083C147.485 4.81296 147.132 5.34171 146.426 5.87046C145.546 6.39921 144.665 6.39921 144.665 6.39921V9.74761L146.251 11.1579L144.665 12.3914V17.1511C144.665 17.1511 146.251 16.0936 147.309 13.9776L147.485 13.6248C147.485 14.3294 147.485 15.3879 146.78 16.9742C146.426 18.0317 145.37 19.0902 144.312 19.7948C142.373 20.8513 140.788 20.8513 139.2 20.6754C137.439 20.1467 135.676 19.0902 134.617 17.327C133.736 16.0936 133.383 14.5064 133.383 12.9201C133.383 9.7466 135.85 7.10286 138.495 6.04536C138.849 5.86945 139.024 5.86945 139.554 5.86945C139.201 5.86945 139.026 6.04386 138.676 6.3937L138.671 6.39819C137.791 6.92593 137.086 7.98444 136.732 8.86603L142.022 6.57411V13.9776L137.79 16.0936C138.318 16.7983 139.729 17.8568 140.963 17.8568C143.078 18.2086 144.311 17.1521 144.311 17.1521V12.3924L142.726 11.159L144.311 9.74862V6.40022C143.757 6.28879 143.132 6.10801 142.569 5.94522C142.238 5.84952 141.929 5.76005 141.668 5.69455C141.34 5.62917 140.697 5.46635 139.989 5.28753C138.794 4.98516 137.417 4.63705 137.085 4.63705C136.731 4.46114 136.026 4.46113 135.675 4.81397C135.321 5.16681 135.146 5.69556 135.146 6.22431C135.319 6.57119 135.494 6.74707 135.666 6.92007L135.675 6.92897C135.675 6.92897 135.499 6.92897 135.146 6.75306C134.617 6.40022 134.087 5.69555 134.087 4.81397C133.911 3.75647 134.441 2.69797 135.322 1.99331C136.204 1.46456 137.085 1.11172 138.143 1.28864C139.241 1.4105 140.594 1.87095 141.907 2.31818L141.907 2.31822C142.49 2.51661 143.065 2.71241 143.607 2.87489C144.487 3.0508 145.017 3.05081 145.546 2.69797L145.546 2.69736C145.723 2.52125 146.074 2.16962 145.722 1.64047C145.435 1.06652 144.915 0.960058 144.351 0.844711L144.35 0.844697C144.222 0.81843 144.091 0.791702 143.961 0.758888C144.488 0.582975 144.666 0.582975 145.017 0.758888ZM138.849 15.39V8.16238L136.732 9.21987C136.732 9.21987 136.027 10.4533 136.205 12.2165C136.205 13.6268 137.086 15.213 137.616 15.9187L138.849 15.39ZM183.623 21.3831C183.269 21.5611 181.86 21.2072 181.506 19.6199C181.197 18.227 181.977 17.3781 183.246 15.9957L183.247 15.9956C183.422 15.8048 183.606 15.6039 183.799 15.39L181.86 13.8037V10.4543C181.86 10.4543 183.27 9.92555 184.328 9.22088L186.443 7.81055C186.443 7.81055 187.323 8.86805 188.206 8.69214C189.616 8.51522 189.616 7.45772 189.44 7.2818C189.792 7.63464 190.321 8.86805 187.853 11.8646L189.97 13.4509V17.6809C189.97 17.6809 187.502 18.9153 185.385 20.5025C185.385 20.5025 184.153 18.9153 183.094 19.6199C182.213 20.1487 182.564 21.0313 183.623 21.3831ZM181.86 18.2096C181.86 18.2096 182.918 16.4475 184.857 16.7993C186.618 17.1531 187.148 18.9143 187.148 18.9143V14.6853L185.914 13.6278C185.505 14.094 184.962 14.6181 184.405 15.1555C183.279 16.2427 182.096 17.3842 181.86 18.2096ZM184.679 9.22088V12.5703L185.738 13.6278C185.738 13.6278 188.206 11.6887 189.086 9.74964C189.086 9.74964 188.03 11.3359 186.443 10.8071C185.208 10.4543 184.679 9.22088 184.679 9.22088ZM107.648 10.6312L108.528 9.92555H108.704L107.824 10.8071V17.505C107.824 17.505 106.061 18.3875 105.004 19.0922L102.536 20.5025L99.3628 17.8588L98.6581 18.5635H98.4822L99.3628 17.6809V10.4543C99.3628 10.4543 100.773 9.92555 102.006 9.22088C103.065 8.51521 104.297 7.81055 104.297 7.81055L107.648 10.6312ZM102.36 16.6244L104.826 18.9153V11.6887L102.36 9.3968V16.6244ZM113.817 9.92555L115.756 7.98646C115.756 7.98646 115.932 8.16238 116.285 8.3393C116.461 8.51522 116.989 8.69214 117.519 8.51521C117.695 8.42738 117.783 8.3393 117.871 8.25122C117.959 8.16288 118.047 8.07454 118.224 7.98646C118.224 9.57271 117.519 10.6312 116.637 10.983C116.11 11.159 115.051 11.5118 113.817 10.1015V17.329L115.227 18.3875L116.11 17.6809H116.286L113.112 20.5025L110.644 18.2096L109.764 19.0922L109.588 18.9143L110.822 17.6799V11.5108L109.94 10.1004L109.059 10.8061H108.883L112.057 7.98545L113.817 9.92555ZM122.102 13.0991L125.626 7.81055C125.626 7.81055 126.155 8.3393 127.038 8.51521C128.094 8.86805 129.153 7.81055 129.153 7.81055C128.977 9.22089 128.272 10.8071 126.685 10.9841C125.45 11.16 124.217 10.1025 124.217 10.1025L124.041 10.6312L128.978 18.2106L130.034 17.3301L130.21 17.506L126.686 20.5036L122.102 13.0991ZM14.7503 1.64047C14.0446 0.934794 13.3389 0.758888 12.8112 0.758888C12.2825 0.582975 12.1055 0.582975 11.5768 0.758888C11.7128 0.79304 11.8489 0.820599 11.9837 0.847907C12.5473 0.962066 13.0892 1.07183 13.5159 1.64047C13.823 2.10293 13.4591 2.42979 13.2446 2.6224C13.2134 2.65043 13.1854 2.67562 13.163 2.69797C12.6333 3.05081 12.1045 3.0508 11.3999 2.87489C10.7086 2.68639 9.99481 2.45305 9.29058 2.22282C8.0194 1.80726 6.77928 1.40184 5.75853 1.28864C4.70103 1.11172 3.81945 1.46456 3.11479 1.99331C2.05628 2.69797 1.70344 3.75647 1.70344 4.81397C1.70344 5.69555 2.2332 6.40022 2.76195 6.75306C3.11377 6.92897 3.28969 6.92897 3.28969 6.92897L3.28818 6.92746C3.11277 6.75205 2.93685 6.57614 2.93685 6.22431C2.76195 5.69556 2.93786 5.16681 3.28969 4.81397C3.64151 4.46113 4.34718 4.46114 4.87593 4.63705C5.05224 4.63705 5.93279 4.85716 6.90171 5.09936L6.90172 5.09936C7.8719 5.34187 8.93068 5.60653 9.45977 5.69454C10.3286 5.97397 11.211 6.20949 12.1035 6.40022V9.74862L10.3403 11.159L12.1035 12.3924V17.1521C12.1035 17.1521 10.8701 18.2086 8.57818 17.8568C7.34477 17.8568 5.93444 16.7983 5.40569 16.0936L9.63669 13.9776V6.57411L4.3482 8.86603C4.70103 7.98444 5.40569 6.92593 6.28728 6.39819C6.64011 6.04536 6.99295 5.86945 7.16886 5.86945H7.16883C6.64011 5.86945 6.46419 5.86945 6.11136 6.04536C3.46661 7.10286 1.1757 9.7466 0.998779 12.9201C0.998779 14.5064 1.35162 16.0936 2.2332 17.327C3.2907 19.0902 5.05387 20.1467 6.99295 20.6754C8.5792 20.8513 9.98953 20.8513 11.9286 19.7948C13.163 19.0902 14.0436 18.0317 14.3964 16.9742C15.1021 15.3879 15.1021 14.3294 15.1021 13.6248L14.9252 13.9776C13.8677 16.0936 12.2814 17.1511 12.2814 17.1511V12.3914L13.8677 11.1579L12.2814 9.74761V6.3992C12.2814 6.3992 13.163 6.39921 14.0446 5.87046C14.9252 5.34171 15.1021 4.81296 15.278 4.1083C15.455 3.22671 15.455 2.16921 14.7503 1.64047ZM6.46521 8.16238V15.39L5.2318 15.9187C4.70305 15.213 3.99738 13.6268 3.82147 12.2165C3.82147 10.4533 4.35022 9.21987 4.35022 9.21987L6.46521 8.16238ZM30.4378 9.57372C31.4953 8.86805 33.2585 7.81055 33.2585 7.81055L35.5494 12.0426L30.7897 15.5679V16.2726L33.2575 18.5645L36.0782 16.2726L36.2551 16.4495L30.9666 20.5036L27.97 17.8598L27.0884 18.5645L26.9125 18.3886L27.97 17.6819V10.8081L30.4378 9.57372ZM30.7907 15.214L33.2585 13.4509L30.7907 9.3968V15.214ZM20.0365 23.1549L20.0364 23.1549C19.9108 23.1504 19.7942 23.1463 19.686 23.1463C19.7646 23.1147 19.8376 23.0859 19.9061 23.0589L19.9067 23.0587C20.6039 22.784 20.8223 22.6979 21.624 21.737C22.5056 20.8544 22.5056 18.9153 22.5056 17.3301V11.5128L20.9194 9.74963L20.0378 10.6312V17.3301L20.9194 18.2106L21.624 17.506L21.8009 17.6819L18.4515 20.3276L16.3365 18.3886L15.6309 18.9153L15.455 18.7394L17.0412 17.6819V5.51965C17.0412 4.84695 16.7327 4.68755 16.5084 4.57163C16.4388 4.53563 16.3772 4.50383 16.3355 4.46214L20.0378 1.64148V10.2784L23.0344 7.81055L25.3263 10.2784L26.3838 9.57372V9.74963L25.5022 10.4543V15.9187L25.3263 18.3875C25.3263 20.1497 24.6206 21.737 23.0344 22.6175C21.6919 23.2139 20.7282 23.1796 20.0365 23.1549ZM40.8389 20.8544C40.8389 21.5611 41.3677 22.2657 42.778 22.4416C41.0148 22.7924 40.1333 21.9119 39.6065 21.2082C38.9019 20.3276 38.9019 19.0932 39.4306 18.0347C40.4891 16.2715 42.4282 16.2715 43.1329 16.2715V11.8646C43.1329 11.6887 41.7235 11.6887 41.5466 12.3934C41.3697 13.098 42.0754 13.4509 42.0754 13.4509C42.0754 13.4509 41.5466 13.4509 41.0179 13.098C40.665 12.7452 40.1363 11.8636 40.1363 11.159C40.1363 8.86704 42.2513 8.86704 43.1329 8.86704V5.69353C43.0968 5.63939 43.0608 5.5834 43.0242 5.52651L43.0241 5.52637L43.0241 5.52631C42.7031 5.0277 42.3378 4.46012 41.5466 4.46012C40.665 4.46012 40.4891 5.87046 40.4891 5.87046C40.4891 5.87046 40.3132 5.51864 40.4891 4.28422C40.665 3.05081 41.7225 1.81739 43.1329 1.81739C44.5432 1.81739 45.2479 2.69797 45.7766 3.57956L51.7698 14.3325V5.87147C51.6574 5.84889 51.5478 5.82919 51.44 5.8098C50.7033 5.67732 50.0486 5.55957 49.126 4.63705L48.2444 5.69454L48.0675 5.51864L51.0641 1.99331C51.0641 1.99331 51.9447 3.0508 53.1791 3.0508C54.0597 2.87489 54.7653 2.17023 54.7653 1.46456C54.9413 1.64148 55.6459 3.40364 54.0597 4.98989C53.5309 5.34272 52.6503 5.69556 51.9447 5.87147V20.5025C51.9447 20.5025 51.9447 20.6785 51.7688 20.6785C51.4159 20.6785 51.24 20.5025 51.24 20.5025L43.3078 5.87147V16.2715C44.5422 16.4485 45.7756 17.1541 46.4803 18.0347L47.3619 17.1541H47.5378L44.3653 20.6785C43.6596 19.7979 42.9549 19.444 42.0734 19.6199C41.3677 19.6199 40.8389 20.5025 40.8389 20.8544ZM56.8793 9.57372C58.1138 8.86805 59.7 7.81055 59.7 7.81055L61.9899 12.0426L57.4071 15.5679V16.2726L59.699 18.5645L62.5197 16.2726L62.6956 16.4495L57.4081 20.5036L54.5874 17.8598L53.5299 18.5645L53.354 18.3886L54.4115 17.6819V10.8081L56.8793 9.57372ZM57.4081 15.214L59.7 13.4509L57.4081 9.3968V15.214ZM64.2828 18.3875L66.9276 20.5025L69.5713 18.3835L72.392 20.4985L77.8564 17.1501V10.98L79.9714 9.04093L79.7955 8.86502L78.9139 9.7466L76.4471 7.80752L73.9792 10.0994L75.0367 10.981V18.7363L74.6839 18.9123L72.392 17.1511V10.8051L73.2736 9.92352L70.9817 7.80853L68.5138 10.1004L69.5713 10.982V18.2086L69.0426 18.5625L67.2794 17.1521V10.4533C67.1821 9.38177 66.3843 8.90267 65.6307 8.45011C65.0212 8.08411 64.4406 7.73547 64.2828 7.10488C64.1069 6.04739 65.1644 5.51864 65.1644 5.51864C65.1644 5.51864 64.4587 5.51863 63.93 5.69454C63.2253 6.04738 62.1678 6.92896 62.1678 7.98646C62.0766 9.34974 62.6414 9.8228 63.2101 10.2992C63.7447 10.7469 64.2828 11.1976 64.2828 12.3934V18.2096L63.0484 19.0922L63.2253 19.2681L64.2828 18.3875ZM175.161 9.57372C176.218 8.86805 177.981 7.81055 177.981 7.81055L180.274 12.0426L175.513 15.5679V16.2726L177.981 18.5645L180.801 16.2726L180.979 16.4495L175.689 20.5036L172.693 17.8598L171.813 18.5645L171.635 18.3886L172.693 17.6819V10.8081L175.161 9.57372ZM175.513 15.214L177.981 13.4509L175.513 9.3968V15.214ZM153.831 10.8071H153.656L156.829 7.98646L158.944 10.2774L161.939 7.98646L164.056 10.2774L167.051 7.98646L169.166 10.2774L170.401 9.3968V9.57271L169.344 10.4543V16.8003L170.577 18.0337L171.283 17.329L171.458 17.5049L168.286 20.5025L165.995 17.8588L166.522 17.329V11.8646L164.76 9.92555L164.232 10.4543V17.329L165.112 18.2096L162.821 20.3266L160.705 18.0337L161.234 17.5049V11.8646L159.649 9.92555L159.119 10.4543V17.1531L159.999 18.2096L157.71 20.5025L155.417 17.8588L156.122 17.329V11.6877L154.712 10.1015L153.831 10.8071ZM148.19 9.92568L147.309 10.6314L150.305 7.98659L152.421 10.4544L153.477 9.57284V9.74976L152.421 10.6314V16.9763L153.655 18.3877L154.536 17.681L154.712 17.8589L151.716 20.5027L149.599 18.0338L148.719 18.9144L148.543 18.7395L149.424 17.8589V11.5119L148.19 9.92568ZM150.305 3.22684L148.19 5.16593L149.953 7.28193L152.244 5.16593L150.305 3.22684ZM117.869 4.11099C118.575 4.11099 119.104 4.81565 119.104 6.04906L119.103 17.6836L117.517 19.0949L117.693 19.2708L118.574 18.3902L120.691 20.5052L123.864 17.6836L123.686 17.5076L122.982 18.2123L121.925 17.1558V1.46624L117.869 4.11099ZM84.7299 4.10998C85.4355 4.10998 85.9643 4.63873 85.9643 5.69623V9.92723C84.9068 9.92723 84.0252 10.1031 83.4965 10.9847C82.6884 12.1153 83.2139 13.098 83.4426 13.5258C83.4634 13.5647 83.4818 13.599 83.4965 13.6285C84.2011 14.3331 84.9068 14.3331 84.9068 14.3331C84.9068 14.3331 84.0252 13.9813 84.378 13.0997C84.7299 12.571 85.7884 12.571 85.9643 12.7469V19.7986C85.9643 19.7986 83.6724 20.5032 83.6724 22.4423C83.4965 23.8526 84.378 25.0871 85.4355 25.6158C86.9263 26.2365 88.855 25.8069 90.7895 25.376C91.5995 25.1956 92.4106 25.015 93.1909 24.9111C94.4253 24.7332 94.7781 24.9111 94.954 25.4399C95.3058 26.4964 94.0724 27.201 94.0724 27.201C94.0724 27.201 96.3644 26.8492 96.8931 25.086C97.247 24.0275 97.247 22.7931 95.3069 21.9125C94.1857 21.3514 91.9747 21.7812 89.9343 22.1779C88.1257 22.5295 86.4511 22.8551 85.7884 22.4413C85.0837 21.9125 85.0837 21.2079 85.2596 20.854C85.9643 19.4447 88.2552 19.6196 89.6655 19.9735C90.3467 20.0301 91.0459 20.2148 91.7399 20.3982C93.2017 20.7844 94.64 21.1644 95.8356 20.3273C96.7172 19.7975 96.8931 18.9149 96.8931 18.0344V4.46181L98.1275 3.40431H97.9516L96.8931 4.2859L94.4253 2.1709L91.2518 4.81464V2.34681H91.0759V19.9755C91.0759 19.9755 90.723 19.9755 90.1943 19.7996C89.8414 19.7996 89.3127 19.6216 89.3127 19.6216V4.99157C89.3127 3.93407 88.7839 2.70066 87.1977 2.34783C85.7874 1.99499 84.7299 2.87657 84.2011 3.40532C83.3205 4.28589 83.4965 5.52032 83.4965 5.52032C83.4965 5.52032 83.6724 3.93306 84.7299 4.10998ZM92.839 19.7986C92.3103 20.3283 91.2528 20.1504 91.2528 20.1504L91.2518 12.9228C91.2518 12.9228 91.7815 12.2171 92.4862 12.2171C93.1908 12.2171 93.5437 12.9228 93.5437 12.9228V18.3882C93.5437 18.3882 93.7206 19.0939 92.839 19.7986ZM92.1344 4.46282L93.5447 5.69623V10.1042C93.5447 10.1042 93.1929 10.6329 92.4872 10.6329C91.7815 10.6329 91.2528 10.1042 91.2528 10.1042V4.99157L92.1344 4.46282ZM92.4872 10.8088C93.1919 10.8088 93.5447 10.456 93.5447 10.456V12.572C93.5447 12.572 93.1929 12.0432 92.4872 12.0432C91.7815 12.0432 91.2528 12.572 91.2528 12.572V10.456C91.2528 10.456 91.7825 10.8088 92.4872 10.8088ZM115.614 24.2148C115.755 24.3628 115.755 24.6457 115.755 25.4409L115.756 29.1411C115.756 30.1996 115.756 30.3756 115.227 30.3756H114.876V30.7294H119.988C120.164 30.3766 120.34 29.6719 120.34 29.3181C120.34 29.1421 120.164 29.1421 120.164 29.1421C120.029 29.345 119.92 29.5219 119.827 29.6729C119.677 29.9162 119.568 30.0921 119.459 30.2006C119.284 30.3766 118.93 30.3766 118.049 30.3766C117.439 30.3766 117.167 30.2925 116.998 30.2406C116.923 30.2174 116.869 30.2006 116.815 30.2006C116.637 30.0247 116.637 29.6709 116.637 28.9662V27.5559C116.637 27.378 116.637 27.2021 116.991 27.2021H117.695C117.902 27.2021 118.048 27.2625 118.169 27.3125C118.254 27.3478 118.327 27.378 118.4 27.378C118.576 27.378 118.754 27.5559 118.754 27.7318V28.0857C118.93 28.2616 119.106 28.2616 119.106 28.0857V26.1466C119.106 25.9686 118.93 25.9686 118.754 26.1466V26.4984C118.754 26.6743 118.576 26.8522 118.576 26.8522H116.991C116.637 26.8522 116.637 26.8522 116.637 26.6743V24.5593C116.637 24.3837 116.637 24.2958 116.681 24.2517C116.725 24.2075 116.813 24.2075 116.991 24.2075H118.754C119.189 24.3523 119.266 24.6164 119.378 25.0004C119.402 25.0827 119.427 25.1706 119.458 25.264C119.634 25.264 119.81 25.264 119.81 25.0881C119.81 24.8805 119.75 24.5523 119.7 24.2809C119.664 24.0895 119.634 23.9264 119.634 23.8536H115.051V24.0296H115.226C115.415 24.0925 115.536 24.1331 115.614 24.2148ZM120.692 26.8502C121.043 26.8502 121.221 27.0261 121.397 27.2021L122.277 28.6114C122.386 28.7215 122.36 28.7634 122.325 28.8211C122.303 28.8567 122.277 28.8982 122.277 28.9652C122.188 29.0542 122.009 29.2785 121.831 29.5015C121.657 29.7193 121.483 29.9358 121.397 30.0237C121.222 30.3756 121.044 30.3756 120.868 30.3756H120.514C120.514 30.5515 120.514 30.7294 120.692 30.7294H122.101C122.277 30.7294 122.277 30.5515 122.101 30.3756H121.925C121.856 30.3756 121.814 30.3756 121.799 30.3552C121.774 30.3229 121.816 30.2395 121.925 30.0237L122.452 29.317C122.452 29.1411 122.452 29.1411 122.63 28.9652C122.63 29.1411 122.63 29.1411 122.806 29.317L123.335 30.1996C123.511 30.3756 123.511 30.3756 123.159 30.3756H122.805V30.7294H124.92V30.3756H124.744C124.393 30.3756 124.215 30.3756 124.039 30.0237L123.159 28.6124C123.07 28.5244 123.025 28.4804 123.025 28.4365C123.025 28.3925 123.07 28.3485 123.159 28.2606C123.511 27.7308 123.864 27.202 124.039 27.0261C124.214 26.8502 124.392 26.8502 124.568 26.8502H124.744V26.4964H123.159V26.8502H123.335C123.511 26.8502 123.511 27.0261 123.335 27.2021C123.16 27.5559 122.806 28.0846 122.806 28.0846C122.806 28.0846 122.63 28.0846 122.63 27.9067L122.101 27.2021C121.925 27.0261 121.925 26.8502 122.277 26.8502H122.453V26.4964H120.514V26.8502H120.692ZM126.685 27.2021C126.509 27.378 126.509 27.5549 126.509 27.9067V29.6699C126.509 29.9283 126.603 29.9975 126.723 30.0851C126.767 30.1171 126.814 30.1516 126.861 30.1986C127.039 30.3745 127.39 30.5505 127.566 30.5505C128.448 30.5505 128.977 29.6699 128.977 28.6114C128.977 27.7308 128.448 26.8502 127.566 26.8502C127.039 26.8502 126.861 27.0261 126.685 27.2021ZM125.45 33.0193C125.803 33.0193 125.803 32.8434 125.803 32.1387L125.802 27.7318C125.802 27.2031 125.802 27.2031 125.449 27.0271V26.8512C125.566 26.7327 125.843 26.6146 126.119 26.4966C126.255 26.4386 126.39 26.3805 126.507 26.3225V26.8512H126.683C126.683 26.8512 127.389 26.4974 128.093 26.4974C129.152 26.4974 129.856 27.202 129.856 28.2606C129.856 29.8458 128.798 30.9043 127.213 30.9043C127.125 30.9043 127.037 30.8604 126.949 30.8165C126.861 30.7725 126.772 30.7284 126.684 30.7284C126.684 30.7284 126.508 30.9043 126.508 31.0802V32.1387C126.508 32.8434 126.508 33.0193 126.86 33.0193L127.389 33.1952V33.3731H125.274C125.098 33.3731 125.098 33.1952 125.098 33.1952L125.45 33.0193ZM131.267 27.7308H131.443H132.147C132.852 27.7308 133.03 27.7308 133.206 27.5549V27.3769C133.206 27.0261 133.03 26.6723 132.501 26.6723C131.796 26.6723 131.267 27.3769 131.267 27.7308ZM133.911 27.9067C133.911 28.0846 133.736 28.0846 133.382 28.0846L131.443 28.0836C131.355 28.0836 131.311 28.0836 131.289 28.1056C131.267 28.1276 131.267 28.1716 131.267 28.2595C131.267 29.316 131.796 30.1986 132.852 30.1986C133.206 30.1986 133.559 30.1986 133.911 29.6699L134.086 29.8458C133.736 30.5505 133.03 30.9043 132.501 30.9043C131.797 30.9043 131.268 30.5515 130.916 30.1996C130.562 29.6699 130.562 29.316 130.562 28.7893C130.562 27.5549 131.267 26.4964 132.501 26.4964C133.382 26.4964 134.086 27.0261 134.086 27.7308C134.086 27.9067 134.087 27.9067 133.911 27.9067ZM138.144 27.0261C138.144 26.8502 138.144 26.6723 137.966 26.6723C137.79 26.4964 137.26 26.4964 137.084 26.4984C135.321 26.4984 134.616 27.5569 134.616 28.7913C134.616 29.496 134.791 30.0247 135.145 30.3766C135.499 30.7294 136.027 30.9053 136.555 30.9053C137.26 30.9053 137.965 30.5515 138.319 29.8468C138.319 29.6709 138.143 29.6709 138.143 29.6709C137.965 30.0237 137.613 30.1996 136.908 30.1996C135.85 30.1996 135.321 29.317 135.321 28.4365C135.321 27.378 136.027 26.8512 136.731 26.8512C137.085 26.8512 137.614 27.0261 137.79 27.378H137.966C137.966 27.378 138.144 27.202 138.144 27.0261ZM140.082 27.2021C140.082 27.0261 140.082 27.0261 140.258 27.0261L141.316 27.0251C141.492 27.0251 141.492 26.6723 141.316 26.4964H140.258C140.082 26.4964 140.082 26.4964 140.082 26.3205V25.9666C139.904 25.7907 139.904 25.7907 139.728 25.7907C139.728 26.1435 139.552 26.3195 139.376 26.4954C139.266 26.4954 139.156 26.563 139.005 26.6569C138.912 26.7143 138.804 26.7816 138.669 26.8492V27.0251H139.023C139.091 27.0251 139.133 27.0251 139.158 27.0454C139.199 27.0777 139.199 27.1611 139.199 27.3769V29.6699C139.199 30.3756 139.377 30.9043 140.258 30.9043C140.781 30.9043 141.13 30.5592 141.31 30.3815L141.316 30.3756C141.492 30.3756 141.316 30.1996 141.316 30.1996C141.316 30.1996 141.138 30.3756 140.962 30.3756H140.786C140.082 30.3756 140.082 29.8458 140.082 29.1411V27.2021ZM145.721 27.2021C145.721 27.0261 145.721 27.0261 145.899 27.0261L147.13 27.0251V26.4964H145.898C145.72 26.4964 145.72 26.4964 145.72 26.3205V25.9666C145.72 25.7907 145.544 25.7907 145.544 25.7907C145.369 26.1435 145.193 26.3195 145.015 26.4954C145.015 26.4954 144.665 26.6713 144.487 26.8492C144.311 26.8492 144.487 27.0251 144.487 27.0251H144.84C144.908 27.0251 144.95 27.0251 144.976 27.0454C145.016 27.0777 145.016 27.1611 145.016 27.3769V29.6699C145.016 30.3756 145.194 30.9043 146.075 30.9043C146.603 30.9043 146.953 30.5541 147.129 30.3775L147.131 30.3756C147.131 30.3756 147.131 30.1996 146.955 30.1996L146.78 30.3756H146.426C145.721 30.3756 145.721 29.8458 145.721 29.1411V27.2021ZM147.838 24.0285C148.19 24.2065 148.19 24.2065 148.19 24.7332H148.191V29.494C148.191 30.1986 148.191 30.3745 147.662 30.3745H147.486V30.7284H149.425C149.601 30.7284 149.601 30.5505 149.425 30.3745H149.249C148.896 30.3745 148.895 30.1986 148.895 29.494V27.7308C148.895 27.378 148.896 27.378 149.071 27.2021C149.249 27.0261 149.6 26.8502 149.954 26.8502C150.659 26.8502 150.835 27.378 150.835 28.0846V29.495C150.835 30.1996 150.835 30.3756 150.483 30.3756H150.305V30.7294H152.244C152.422 30.7294 152.422 30.5515 152.244 30.3756H152.068C151.716 30.3756 151.716 30.1996 151.716 29.495V27.7318C151.716 27.0261 151.363 26.4974 150.305 26.4974C149.777 26.4974 149.248 26.6723 148.895 27.0261V23.3229C148.754 23.37 148.626 23.417 148.508 23.4606C148.179 23.5817 147.92 23.6767 147.66 23.6767V23.8526L147.838 24.0285ZM153.655 27.7308H153.831H154.536C155.24 27.7308 155.416 27.7308 155.594 27.5549V27.3769C155.594 27.0261 155.416 26.6723 154.888 26.6723C154.182 26.6723 153.655 27.3769 153.655 27.7308ZM156.299 27.9067C156.299 28.0846 156.122 28.0846 155.77 28.0846L153.831 28.0836C153.743 28.0836 153.699 28.0836 153.677 28.1056C153.655 28.1276 153.655 28.1716 153.655 28.2595C153.655 29.316 154.182 30.1986 155.24 30.1986C155.594 30.1986 155.945 30.1986 156.299 29.6699L156.475 29.8458C156.122 30.5505 155.416 30.9043 154.888 30.9043C154.183 30.9043 153.656 30.5515 153.302 30.1996C152.949 29.6699 152.949 29.316 152.949 28.7893C152.949 27.5549 153.655 26.4964 154.888 26.4964C155.77 26.4964 156.475 27.0261 156.475 27.7308C156.475 27.9067 156.475 27.9067 156.299 27.9067ZM158.944 23.8526V24.0285L159.292 24.0296C159.644 24.0296 159.82 24.3814 159.995 24.7327L159.996 24.7342C160.253 25.3125 160.486 25.8671 160.714 26.4068C161.11 27.3485 161.487 28.2446 161.935 29.1411C162.113 29.494 162.464 30.3755 162.64 30.9043H162.994C163.17 30.0237 163.874 28.6114 164.228 27.9067C164.701 28.8795 165.113 29.8806 165.463 30.9043H165.814C166.168 29.6709 166.52 28.6124 167.049 27.5559L167.754 25.7927C167.921 25.4586 168.048 25.1837 168.153 24.9589C168.489 24.2355 168.585 24.0296 168.988 24.0296H169.164C169.342 24.0296 169.342 23.8536 169.164 23.8536H167.225V24.0296H167.579C167.755 24.0296 167.932 24.2075 167.932 24.2075C167.932 24.3834 167.755 24.9122 167.579 25.264C167.579 25.3589 167.378 25.8049 167.164 26.2803C166.977 26.6956 166.78 27.1334 166.698 27.379C166.522 27.7315 166.39 28.0839 166.258 28.436C166.125 28.7896 165.993 29.1429 165.815 29.496C165.64 29.1442 165.464 28.7484 165.289 28.3526C165.112 27.9545 164.935 27.5564 164.759 27.2031V26.6733C164.809 26.574 164.873 26.4322 164.947 26.2679C165.134 25.8517 165.386 25.2912 165.64 24.9122C165.668 24.8556 165.696 24.7946 165.725 24.7319C165.876 24.4028 166.049 24.0296 166.344 24.0296H166.698C166.874 24.0296 166.698 23.8536 166.698 23.8536H164.759C164.759 23.8536 164.581 23.8536 164.759 24.0296H165.111C165.287 24.0296 165.465 24.2075 165.111 25.0881C164.76 25.6178 164.582 25.9697 164.406 26.4984C164.296 26.0565 164.116 25.6142 163.954 25.2154C163.857 24.9782 163.767 24.7565 163.701 24.5593C163.526 24.2085 163.526 24.0306 163.877 24.0306H164.055C164.231 24.0306 164.231 23.8547 164.055 23.8547H161.938C161.762 23.8547 161.762 24.0306 161.938 24.0306H162.116C162.383 24.0306 162.548 24.2344 162.691 24.4094C162.736 24.4647 162.778 24.5171 162.821 24.5593L163.877 27.2031L164.055 27.379C164.055 27.379 163.877 27.5559 163.877 27.9077C163.701 28.1721 163.569 28.4367 163.437 28.7013C163.305 28.966 163.173 29.2306 162.997 29.495C162.732 28.8778 162.424 28.2168 162.115 27.5559C161.807 26.895 161.498 26.234 161.234 25.6168C160.883 24.9111 160.705 24.3824 160.705 24.2065C160.705 24.2065 160.883 24.0285 161.059 24.0285H161.235C161.411 24.0285 161.411 23.8526 161.235 23.8526H158.944ZM170.753 30.5505C171.634 30.5505 171.812 29.494 171.812 28.7893C171.812 27.9067 171.458 26.6723 170.577 26.6723C169.872 26.6723 169.343 27.3769 169.343 28.6114C169.343 29.494 169.695 30.5505 170.753 30.5505ZM168.46 28.6114C168.46 27.3769 169.519 26.4964 170.577 26.4964C171.812 26.4964 172.692 27.3769 172.692 28.6114C172.692 29.8458 171.812 30.9043 170.577 30.9043C169.343 30.9043 168.46 30.0227 168.46 28.6114ZM174.052 27.1726C174.103 27.2635 174.103 27.3823 174.103 27.7308V29.495C174.103 30.1996 174.103 30.3756 173.751 30.3756H173.573C173.397 30.5515 173.397 30.7294 173.573 30.7294H175.688V30.3756H175.336C174.983 30.3756 174.807 30.1996 174.807 29.495V28.0846C174.807 27.7318 174.983 27.378 174.983 27.378C175.051 27.3104 175.094 27.2429 175.13 27.1853C175.187 27.0929 175.229 27.0261 175.337 27.0261C175.424 27.0261 175.511 27.0697 175.599 27.1135C175.688 27.1577 175.776 27.2021 175.866 27.2021C175.866 27.378 176.042 27.378 176.042 27.378C176.217 27.378 176.57 27.2031 176.57 26.8512C176.57 26.6733 176.396 26.4974 176.042 26.4974C175.688 26.4974 175.337 26.6723 174.983 27.0261H174.807V26.3215C174.72 26.4083 174.502 26.4954 174.284 26.5828C174.062 26.6715 173.839 26.7606 173.751 26.8502V27.0261H173.927C173.987 27.0861 174.026 27.1256 174.052 27.1726ZM178.509 30.3745C178.156 30.3745 178.156 30.1986 178.156 29.494H178.157V23.3229C177.805 23.5008 177.276 23.6767 177.1 23.6767C176.922 23.6767 176.922 23.8526 177.1 23.8526V24.0285C177.256 24.1074 177.343 24.1514 177.391 24.2217C177.452 24.31 177.452 24.44 177.452 24.7332V29.494C177.452 30.1986 177.452 30.3745 177.1 30.3745H176.746V30.7284H178.861V30.3745H178.509ZM182.564 30.0237C182.739 30.0237 182.739 29.8458 182.739 29.6699L182.74 27.5559C182.74 27.4667 182.696 27.4222 182.652 27.3778C182.608 27.3337 182.565 27.2898 182.565 27.2021L182.56 27.1976C182.383 27.0212 182.033 26.6733 181.684 26.6733C180.8 26.6733 180.274 27.5559 180.274 28.4365C180.274 29.495 180.8 30.3756 181.859 30.3756C182.035 30.3756 182.388 30.1996 182.564 30.0237ZM183.444 23.3239V24.5583V29.1421C183.444 30.0247 183.444 30.3766 183.798 30.3766C183.798 30.3766 183.974 30.3766 184.152 30.2006C184.328 30.3766 184.328 30.5525 184.152 30.5525C183.799 30.7304 183.094 30.9063 182.74 30.9063V30.3766H182.565C182.213 30.7294 181.859 30.9053 181.33 30.9053C180.274 30.9053 179.391 29.8468 179.391 28.7903C179.391 27.378 180.449 26.4974 181.859 26.4974H182.564C182.739 26.4974 182.739 26.4974 182.739 26.3215V24.7342C182.739 24.441 182.739 24.311 182.679 24.2227C182.63 24.1524 182.544 24.1085 182.388 24.0296L182.212 23.8536V23.6777C182.472 23.6777 182.733 23.5815 183.065 23.4594C183.182 23.4164 183.307 23.3702 183.444 23.3239ZM187.146 24.0285C186.97 24.0285 186.97 24.2065 186.97 24.2065V25.262C186.97 25.3311 186.97 25.3733 186.991 25.3992C187.024 25.4399 187.107 25.4399 187.322 25.4399C187.675 25.4399 187.851 25.0871 187.851 24.7332C187.851 24.3824 187.675 24.0285 187.146 24.0285ZM186.388 26.6542C186.442 26.6167 186.442 26.5011 186.442 26.1456H186.44V24.7322C186.44 24.2055 186.44 24.0275 186.264 24.0275H186.088V23.8516H187.32C187.674 23.8516 188.379 24.0275 188.379 24.7322C188.379 25.0019 188.174 25.1682 187.998 25.3111C187.943 25.3551 187.892 25.3969 187.85 25.4389V25.6148C187.913 25.709 187.97 25.7976 188.024 25.8806C188.272 26.2638 188.442 26.5267 188.733 26.6713C188.733 26.8492 188.909 26.8492 188.909 26.8492C188.909 27.0251 188.733 27.0251 188.733 27.0251C188.379 27.0251 188.028 26.8492 187.85 26.3205C187.675 26.1446 187.499 25.9676 187.321 25.6158H187.145C187.057 25.6158 187.013 25.6158 186.991 25.6378C186.969 25.6598 186.969 25.7038 186.969 25.7917V26.1456C186.969 26.5011 186.969 26.6167 187.024 26.6542C187.05 26.6723 187.088 26.6723 187.145 26.6723L187.321 26.8502H186.09L186.266 26.6723C186.323 26.6723 186.362 26.6723 186.388 26.6542ZM190.144 25.4409C190.144 26.8502 188.91 28.0846 187.322 28.0846C185.736 28.0846 184.679 26.8502 184.679 25.4409C184.679 23.8536 185.737 22.7951 187.322 22.7951C188.91 22.7951 190.144 23.8536 190.144 25.4409ZM187.322 22.9731C186.09 22.9731 185.031 24.0296 185.031 25.4409C185.031 26.6723 186.09 27.7308 187.322 27.7318C188.735 27.7318 189.615 26.6733 189.615 25.4409C189.615 24.0296 188.734 22.9731 187.322 22.9731Z" fill="black"/>
</svg>
