<svg width="143" height="26" viewBox="0 0 143 26" fill="none" xmlns="http://www.w3.org/2000/svg">
<path fill-rule="evenodd" clip-rule="evenodd" d="M108.596 0.819166C108.993 0.819166 109.654 0.951096 110.182 1.48035C110.579 1.87691 110.712 2.67004 110.579 3.33122C110.447 3.85972 110.182 4.25628 109.653 4.65285C108.993 5.04941 108.332 5.0494 108.332 5.0494V7.56071L109.521 8.61846L108.332 9.54352V13.1133C108.332 13.1133 109.521 12.3202 110.315 10.7332L110.447 10.4686C110.447 10.9971 110.447 11.7909 109.919 12.9806C109.653 13.7738 108.861 14.5676 108.068 15.0961C106.613 15.8885 105.424 15.8885 104.233 15.7566C102.912 15.36 101.59 14.5676 100.796 13.2453C100.136 12.3202 99.8703 11.1298 99.8703 9.94008C99.8703 7.55995 101.721 5.57714 103.705 4.78402C103.97 4.65209 104.101 4.65209 104.499 4.65209C104.234 4.65209 104.103 4.78291 103.84 5.0453L103.837 5.04865C103.176 5.44445 102.648 6.23833 102.382 6.89952L106.35 5.18058V10.7332L103.176 12.3202C103.572 12.8487 104.63 13.6426 105.556 13.6426C107.142 13.9065 108.067 13.1141 108.067 13.1141V9.54427L106.878 8.61922L108.067 7.56147V5.05016C107.651 4.96659 107.182 4.831 106.76 4.70891C106.512 4.63714 106.28 4.57003 106.084 4.52091C105.839 4.47188 105.356 4.34976 104.825 4.21564C103.929 3.98886 102.896 3.72779 102.647 3.72779C102.382 3.59585 101.853 3.59585 101.589 3.86048C101.324 4.1251 101.193 4.52167 101.193 4.91823C101.322 5.17842 101.454 5.31033 101.583 5.4401L101.589 5.44673C101.589 5.44673 101.457 5.44673 101.193 5.31479C100.796 5.05017 100.399 4.52167 100.399 3.86048C100.267 3.06735 100.664 2.27348 101.325 1.74498C101.987 1.34842 102.647 1.08379 103.441 1.21648C104.264 1.30787 105.279 1.65321 106.264 1.98864C106.701 2.13745 107.132 2.2843 107.538 2.40617C108.199 2.5381 108.596 2.5381 108.993 2.27348L108.993 2.27303C109.125 2.14095 109.389 1.87722 109.125 1.48035C108.91 1.04989 108.519 0.970044 108.096 0.883534C108 0.86383 107.902 0.843781 107.804 0.819166C108.2 0.687231 108.333 0.687231 108.596 0.819166ZM103.97 11.7925V6.37178L102.382 7.16491C102.382 7.16491 101.854 8.08997 101.987 9.41234C101.987 10.4701 102.648 11.6598 103.045 12.189L103.97 11.7925ZM137.551 16.2873C137.285 16.4208 136.228 16.1554 135.963 14.965C135.731 13.9202 136.316 13.2836 137.268 12.2468L137.27 12.2445C137.401 12.1021 137.539 11.9521 137.682 11.7925L136.228 10.6028V8.09072C136.228 8.09072 137.286 7.69416 138.079 7.16566L139.665 6.10792C139.665 6.10792 140.326 6.90104 140.988 6.76911C142.045 6.63641 142.045 5.84329 141.913 5.71135C142.177 5.97598 142.574 6.90104 140.723 9.14847L142.311 10.3382V13.5107C142.311 13.5107 140.46 14.4365 138.872 15.6269C138.872 15.6269 137.948 14.4365 137.154 14.965C136.493 15.3615 136.757 16.0235 137.551 16.2873ZM136.228 13.9072C136.228 13.9072 137.022 12.5856 138.476 12.8495C139.797 13.1148 140.195 14.4357 140.195 14.4357V11.264L139.269 10.4708C138.962 10.8205 138.555 11.2136 138.137 11.6166C137.292 12.432 136.405 13.2881 136.228 13.9072ZM138.343 7.16566V9.67773L139.137 10.4708C139.137 10.4708 140.988 9.01654 141.648 7.56223C141.648 7.56223 140.856 8.75191 139.665 8.35535C138.739 8.09072 138.343 7.16566 138.343 7.16566ZM80.5693 8.22342L81.2297 7.69416H81.3616L80.7012 8.35535V13.3787C80.7012 13.3787 79.3788 14.0407 78.5864 14.5692L76.7356 15.6269L74.3554 13.6441L73.8269 14.1726H73.695L74.3554 13.5107V8.09072C74.3554 8.09072 75.4132 7.69416 76.3382 7.16566C77.1321 6.63641 78.0564 6.10792 78.0564 6.10792L80.5693 8.22342ZM76.6036 12.7183L78.453 14.4365V9.01654L76.6036 7.2976V12.7183ZM85.1961 7.69416L86.6504 6.23985C86.6504 6.23985 86.7823 6.37179 87.0469 6.50448C87.1789 6.63641 87.5754 6.7691 87.9727 6.63641C88.1045 6.57054 88.1705 6.50447 88.2364 6.43841C88.3026 6.37216 88.3687 6.30591 88.5012 6.23985C88.5012 7.42953 87.9727 8.22342 87.3108 8.48729C86.9157 8.61922 86.1219 8.88385 85.1961 7.8261V13.2468L86.2538 14.0407L86.9158 13.5107H87.0477L84.6676 15.6269L82.8167 13.9072L82.1563 14.5692L82.0243 14.4357L82.9501 13.5099V8.88309L82.2882 7.82534L81.6278 8.35459H81.4958L83.876 6.23909L85.1961 7.69416ZM91.4099 10.0743L94.0531 6.10792C94.0531 6.10792 94.4497 6.50448 95.1116 6.63641C95.904 6.90104 96.6979 6.10792 96.6979 6.10792C96.5659 7.16567 96.0374 8.35535 94.847 8.48804C93.9212 8.61998 92.9961 7.82685 92.9961 7.82685L92.8642 8.22342L96.5667 13.908L97.359 13.2475L97.491 13.3795L94.8477 15.6277L91.4099 10.0743ZM10.8962 1.48035C10.3669 0.951095 9.83764 0.819166 9.44184 0.819166C9.04528 0.687231 8.91259 0.687231 8.51603 0.819166C8.61804 0.84478 8.72009 0.865449 8.8212 0.88593C9.2439 0.971549 9.65032 1.05387 9.97034 1.48035C10.2007 1.82719 9.92774 2.07234 9.76691 2.2168C9.7435 2.23783 9.72247 2.25672 9.70571 2.27348C9.30839 2.5381 8.91183 2.5381 8.38333 2.40617C7.86487 2.26479 7.32955 2.08979 6.80137 1.91712L6.80137 1.91712C5.84798 1.60544 4.91789 1.30138 4.15233 1.21648C3.35921 1.08379 2.69802 1.34842 2.16952 1.74498C1.37564 2.27348 1.11102 3.06735 1.11102 3.86048C1.11102 4.52167 1.50834 5.05017 1.9049 5.31479C2.16877 5.44673 2.3007 5.44672 2.3007 5.44672L2.29957 5.44559C2.16801 5.31404 2.03607 5.1821 2.03607 4.91823C1.9049 4.52167 2.03683 4.1251 2.3007 3.86048C2.56457 3.59585 3.09382 3.59585 3.49039 3.72779C3.62261 3.72779 4.28302 3.89287 5.00971 4.07452L5.00972 4.07452C5.73736 4.2564 6.53144 4.4549 6.92826 4.52091C7.5799 4.73047 8.24168 4.90711 8.91107 5.05016V7.56147L7.58869 8.61922L8.91107 9.54427V13.1141C8.91107 13.1141 7.98601 13.9064 6.26707 13.6426C5.34202 13.6426 4.28427 12.8487 3.8877 12.3202L7.06096 10.7332V5.18058L3.09458 6.89952C3.35921 6.23833 3.8877 5.44445 4.54889 5.04865C4.81352 4.78402 5.07815 4.65209 5.21008 4.65209H5.21005C4.81351 4.65209 4.68158 4.65209 4.41696 4.78402C2.43339 5.57714 0.715212 7.55995 0.58252 9.94008C0.58252 11.1298 0.847147 12.3202 1.50834 13.2453C2.30146 14.5676 3.62384 15.36 5.07815 15.7566C6.26783 15.8885 7.32558 15.8885 8.77989 15.0961C9.70571 14.5676 10.3661 13.7738 10.6308 12.9806C11.16 11.7909 11.16 10.9971 11.16 10.4686L11.0273 10.7332C10.2342 12.3202 9.04452 13.1133 9.04452 13.1133V9.54352L10.2342 8.61846L9.04452 7.56071V5.0494C9.04452 5.0494 9.70571 5.04941 10.3669 4.65285C11.0273 4.25628 11.16 3.85972 11.292 3.33122C11.4247 2.67004 11.4246 1.87691 10.8962 1.48035ZM4.68234 6.37178V11.7925L3.75729 12.189C3.36073 11.6598 2.83147 10.4701 2.69954 9.41234C2.69954 8.08996 3.0961 7.1649 3.0961 7.1649L4.68234 6.37178ZM22.6618 7.43029C23.4549 6.90103 24.7773 6.10791 24.7773 6.10791L26.4955 9.28192L22.9257 11.9259V12.4544L24.7766 14.1734L26.8921 12.4544L27.0248 12.5871L23.0584 15.6277L20.811 13.6449L20.1498 14.1734L20.0178 14.0414L20.811 13.5114V8.3561L22.6618 7.43029ZM22.9265 11.6605L24.7773 10.3382L22.9265 7.2976V11.6605ZM14.8608 17.6162C14.7666 17.6128 14.6791 17.6097 14.5979 17.6097C14.657 17.586 14.7119 17.5643 14.7634 17.5441L14.7635 17.544C15.2863 17.338 15.4502 17.2734 16.0515 16.5527C16.7126 15.8908 16.7126 14.4365 16.7126 13.2475V8.88461L15.523 7.56223L14.8618 8.22342V13.2475L15.523 13.908L16.0515 13.3795L16.1841 13.5114L13.6721 15.4957L12.0858 14.0414L11.5566 14.4365L11.4246 14.3045L12.6143 13.5114V4.38973C12.6143 3.88521 12.383 3.76567 12.2147 3.67872C12.1625 3.65172 12.1163 3.62787 12.0851 3.59661L14.8618 1.48111V7.95879L17.1092 6.10791L18.8281 7.95879L19.6213 7.43029V7.56223L18.9601 8.09072V12.189L18.8281 14.0407C18.8281 15.3623 18.2989 16.5527 17.1092 17.2132C16.1024 17.6604 15.3796 17.6347 14.8608 17.6162ZM30.4626 15.8908C30.4626 16.4208 30.8592 16.9493 31.917 17.0812C30.5946 17.3443 29.9334 16.6839 29.5383 16.1562C29.0098 15.4957 29.0098 14.5699 29.4064 13.776C30.2003 12.4537 31.6546 12.4537 32.1831 12.4537V9.14847C32.1831 9.01654 31.1261 9.01653 30.9934 9.54503C30.8607 10.0735 31.39 10.3382 31.39 10.3382C31.39 10.3382 30.9934 10.3382 30.5968 10.0735C30.3322 9.8089 29.9357 9.14771 29.9357 8.61922C29.9357 6.90028 31.5219 6.90028 32.1831 6.90028V4.52015C32.156 4.47949 32.129 4.43745 32.1015 4.39473C31.8608 4.02078 31.5868 3.59509 30.9934 3.59509C30.3322 3.59509 30.2003 4.65285 30.2003 4.65285C30.2003 4.65285 30.0684 4.38898 30.2003 3.46316C30.3322 2.5381 31.1253 1.61304 32.1831 1.61304C33.2408 1.61304 33.7693 2.27348 34.1659 2.93467L38.6608 10.9993V4.6536C38.5765 4.63667 38.4943 4.62189 38.4135 4.60735C37.8609 4.50799 37.3699 4.41968 36.678 3.72779L36.0168 4.52091L35.8841 4.38898L38.1315 1.74498C38.1315 1.74498 38.7919 2.5381 39.7178 2.5381C40.3782 2.40617 40.9074 1.87767 40.9074 1.34842C41.0394 1.48111 41.5679 2.80273 40.3782 3.99241C39.9816 4.25704 39.3212 4.52167 38.7919 4.6536V15.6269C38.7919 15.6269 38.7919 15.7588 38.66 15.7588C38.3954 15.7588 38.2635 15.6269 38.2635 15.6269L32.3143 4.6536V12.4537C33.2401 12.5863 34.1651 13.1156 34.6936 13.776L35.3548 13.1156H35.4868L33.1074 15.7588C32.5781 15.0984 32.0496 14.833 31.3885 14.965C30.8592 14.965 30.4626 15.6269 30.4626 15.8908ZM42.4929 7.43029C43.4188 6.90103 44.6084 6.10791 44.6084 6.10791L46.3259 9.28192L42.8887 11.9259V12.4544L44.6077 14.1734L46.7232 12.4544L46.8551 12.5871L42.8895 15.6277L40.774 13.6449L39.9809 14.1734L39.8489 14.0414L40.6421 13.5114V8.3561L42.4929 7.43029ZM42.8895 11.6605L44.6084 10.3382L42.8895 7.2976V11.6605ZM48.0456 14.0407L50.0291 15.6269L52.0119 14.0376L54.1274 15.6239L58.2257 13.1126V8.48501L59.812 7.0307L59.6801 6.89876L59.0189 7.55995L57.1687 6.10564L55.3179 7.82458L56.111 8.48577V14.3023L55.8464 14.4342L54.1274 13.1133V8.35383L54.7886 7.69264L53.0697 6.1064L51.2188 7.82534L52.0119 8.48653V13.9064L51.6154 14.1718L50.293 13.1141V8.08996C50.22 7.28632 49.6217 6.927 49.0564 6.58758C48.5993 6.31308 48.1639 6.0516 48.0456 5.57866C47.9136 4.78554 48.7067 4.38898 48.7067 4.38898C48.7067 4.38898 48.1775 4.38897 47.7809 4.52091C47.2524 4.78554 46.4593 5.44672 46.4593 6.23985C46.3909 7.2623 46.8145 7.6171 47.241 7.97437C47.642 8.3102 48.0456 8.64822 48.0456 9.54503V13.9072L47.1197 14.5692L47.2524 14.7011L48.0456 14.0407ZM131.204 7.43029C131.997 6.90103 133.319 6.10791 133.319 6.10791L135.039 9.28192L131.468 11.9259V12.4544L133.319 14.1734L135.434 12.4544L135.567 12.5871L131.6 15.6277L129.354 13.6449L128.693 14.1734L128.56 14.0414L129.354 13.5114V8.3561L131.204 7.43029ZM131.468 11.6605L133.319 10.3382L131.468 7.2976V11.6605ZM115.207 8.35535H115.075L117.455 6.23985L119.041 7.95803L121.287 6.23985L122.875 7.95803L125.122 6.23985L126.708 7.95803L127.634 7.2976V7.42953L126.842 8.09072V12.8502L127.767 13.7753L128.296 13.2468L128.427 13.3787L126.048 15.6269L124.329 13.6441L124.725 13.2468V9.14847L123.404 7.69416L123.007 8.09072V13.2468L123.668 13.9072L121.949 15.495L120.362 13.7753L120.759 13.3787V9.14847L119.57 7.69416L119.173 8.09072V13.1148L119.833 13.9072L118.116 15.6269L116.396 13.6441L116.925 13.2468V9.01578L115.867 7.82609L115.207 8.35535ZM110.976 7.69442L110.315 8.22367L112.562 6.2401L114.149 8.09098L114.941 7.42979V7.56248L114.149 8.22367V12.9824L115.075 14.0409L115.735 13.5109L115.867 13.6444L113.62 15.6272L112.033 13.7755L111.372 14.436L111.24 14.3048L111.901 13.6444V8.8841L110.976 7.69442ZM112.562 2.67029L110.976 4.12461L112.298 5.71161L114.016 4.12461L112.562 2.67029ZM88.2352 3.3333C88.7645 3.3333 89.161 3.86179 89.161 4.78685L89.1603 13.5127L87.9714 14.5712L88.1033 14.7032L88.7637 14.0427L90.3515 15.629L92.7316 13.5127L92.5982 13.3808L92.0697 13.9093L91.2773 13.1169V1.34973L88.2352 3.3333ZM63.3807 3.33254C63.91 3.33254 64.3066 3.7291 64.3066 4.52222V7.69548C63.5134 7.69548 62.8522 7.82741 62.4557 8.4886C61.8496 9.33652 62.2438 10.0736 62.4153 10.3944C62.4309 10.4236 62.4447 10.4493 62.4557 10.4714C62.9842 10.9999 63.5134 10.9999 63.5134 10.9999C63.5134 10.9999 62.8522 10.736 63.1169 10.0748C63.3807 9.67828 64.1746 9.67828 64.3066 9.81021V15.099C64.3066 15.099 62.5876 15.6275 62.5876 17.0818C62.4557 18.1395 63.1169 19.0653 63.91 19.4619C65.0281 19.9274 66.4746 19.6052 67.9255 19.2821C68.533 19.1468 69.1413 19.0113 69.7265 18.9334C70.6523 18.8 70.9169 18.9334 71.0489 19.33C71.3127 20.1223 70.3877 20.6508 70.3877 20.6508C70.3877 20.6508 72.1066 20.387 72.5032 19.0646C72.7686 18.2707 72.7686 17.3449 71.3135 16.6845C70.4726 16.2636 68.8144 16.586 67.2841 16.8835C65.9276 17.1472 64.6717 17.3913 64.1746 17.081C63.6461 16.6845 63.6461 16.156 63.7781 15.8906C64.3066 14.8336 66.0247 14.9648 67.0825 15.2301C67.5933 15.2726 68.1178 15.4112 68.6382 15.5487C69.7346 15.8383 70.8133 16.1233 71.7101 15.4955C72.3712 15.0982 72.5032 14.4363 72.5032 13.7758V3.59641L73.429 2.80328H73.2971L72.5032 3.46447L70.6523 1.87823L68.2722 3.86103V2.01016H68.1402V15.2317C68.1402 15.2317 67.8756 15.2317 67.479 15.0997C67.2144 15.0997 66.8179 14.9663 66.8179 14.9663V3.99373C66.8179 3.2006 66.4213 2.27555 65.2316 2.01092C64.1739 1.74629 63.3807 2.40748 62.9842 2.80404C62.3237 3.46447 62.4557 4.39029 62.4557 4.39029C62.4557 4.39029 62.5876 3.19985 63.3807 3.33254ZM69.4626 15.099C69.0661 15.4963 68.2729 15.3628 68.2729 15.3628L68.2722 9.94215C68.2722 9.94215 68.6695 9.4129 69.198 9.4129C69.7265 9.4129 69.9911 9.94215 69.9911 9.94215V14.0412C69.9911 14.0412 70.1238 14.5705 69.4626 15.099ZM68.9341 3.59716L69.9919 4.52222V7.82817C69.9919 7.82817 69.728 8.22473 69.1988 8.22473C68.6695 8.22473 68.2729 7.82817 68.2729 7.82817V3.99373L68.9341 3.59716ZM69.1988 8.35666C69.7272 8.35666 69.9919 8.09204 69.9919 8.09204V9.67904C69.9919 9.67904 69.728 9.28248 69.1988 9.28248C68.6695 9.28248 68.2729 9.67904 68.2729 9.67904V8.09204C68.2729 8.09204 68.6703 8.35666 69.1988 8.35666ZM86.2532 18.2722C86.6497 18.4049 86.6497 18.4049 86.6497 19.3307L86.6505 22.1059C86.6505 22.8998 86.6505 23.0317 86.2539 23.0317H85.9901V23.2971H89.8245C89.9564 23.0325 90.0884 22.504 90.0884 22.2386C90.0884 22.1067 89.9564 22.1067 89.9564 22.1067C89.8551 22.2588 89.7732 22.3915 89.7034 22.5047C89.5908 22.6872 89.5094 22.8191 89.4279 22.9005C89.296 23.0325 89.0306 23.0325 88.3702 23.0325C87.9126 23.0325 87.7082 22.9694 87.5821 22.9305C87.5258 22.9131 87.4851 22.9005 87.4444 22.9005C87.3109 22.7686 87.3109 22.5032 87.3109 21.9747V20.917C87.3109 20.7835 87.3109 20.6516 87.5763 20.6516H88.1048C88.2599 20.6516 88.3694 20.6969 88.4601 20.7344C88.5241 20.7609 88.5787 20.7835 88.6333 20.7835C88.7652 20.7835 88.8987 20.917 88.8987 21.0489V21.3143C89.0306 21.4462 89.1626 21.4462 89.1626 21.3143V19.86C89.1626 19.7265 89.0306 19.7265 88.8987 19.86V20.1239C88.8987 20.2558 88.7652 20.3892 88.7652 20.3892H87.5763C87.3109 20.3892 87.3109 20.3892 87.3109 20.2558V18.6695C87.3109 18.5379 87.3109 18.4719 87.3439 18.4388C87.377 18.4057 87.4434 18.4057 87.5763 18.4057H88.8987C89.2252 18.5143 89.2829 18.7124 89.3667 19.0003C89.3847 19.0621 89.4039 19.128 89.4272 19.198C89.5591 19.198 89.6911 19.198 89.6911 19.0661C89.6911 18.9105 89.6457 18.6643 89.6081 18.4607C89.5817 18.3172 89.5591 18.1948 89.5591 18.1403H86.1212V18.2722H86.2532ZM90.3522 20.3877C90.6154 20.3877 90.7488 20.5197 90.8807 20.6516L91.5412 21.7086C91.6228 21.7912 91.6034 21.8226 91.5768 21.8659C91.5603 21.8925 91.5412 21.9237 91.5412 21.974C91.4744 22.0407 91.34 22.2089 91.2063 22.3761C91.0757 22.5395 90.9459 22.7019 90.8807 22.7678C90.7496 23.0317 90.6161 23.0317 90.4842 23.0317H90.2188C90.2188 23.1637 90.2188 23.2971 90.3522 23.2971H91.4092C91.5412 23.2971 91.5412 23.1637 91.4092 23.0317H91.2773C91.2257 23.0317 91.194 23.0317 91.1823 23.0164C91.1638 22.9922 91.1955 22.9296 91.2773 22.7678L91.6723 22.2378C91.6723 22.1819 91.6723 22.1497 91.6825 22.1211C91.6963 22.0822 91.7289 22.05 91.8058 21.974C91.8058 22.1059 91.8058 22.1059 91.9377 22.2378L92.3343 22.8998C92.4662 23.0317 92.4662 23.0317 92.2024 23.0317H91.937V23.2971H93.5232V23.0317H93.3913C93.1282 23.0317 92.9947 23.0317 92.8628 22.7678L92.2024 21.7093C92.1356 21.6434 92.1023 21.6104 92.1023 21.5774C92.1023 21.5444 92.1356 21.5114 92.2024 21.4455C92.4662 21.0481 92.7316 20.6516 92.8628 20.5197C92.994 20.3877 93.1274 20.3877 93.2594 20.3877H93.3913V20.1223H92.2024V20.3877H92.3343C92.4662 20.3877 92.4662 20.5197 92.3343 20.6516C92.2031 20.917 91.9377 21.3135 91.9377 21.3135C91.9377 21.3135 91.8058 21.3135 91.8058 21.1801L91.4092 20.6516C91.2773 20.5197 91.2773 20.3877 91.5412 20.3877H91.6731V20.1223H90.2188V20.3877H90.3522ZM94.8471 20.6516C94.7152 20.7835 94.7152 20.9162 94.7152 21.1801V22.5025C94.7152 22.6963 94.786 22.7482 94.8757 22.8139C94.9085 22.8379 94.9438 22.8637 94.979 22.899C95.1125 23.031 95.3756 23.1629 95.5075 23.1629C96.1695 23.1629 96.5661 22.5025 96.5661 21.7086C96.5661 21.0481 96.1695 20.3877 95.5075 20.3877C95.1125 20.3877 94.979 20.5197 94.8471 20.6516ZM93.9205 25.0145C94.1859 25.0145 94.1859 24.8826 94.1859 24.3541L94.1852 21.0489C94.1852 20.8281 94.1852 20.7302 94.1394 20.6641C94.1029 20.6114 94.0374 20.5789 93.9198 20.5204V20.3885C94.0082 20.2996 94.2154 20.211 94.4223 20.1225C94.5243 20.079 94.6261 20.0354 94.7137 19.9919V20.3885H94.8456C94.8456 20.3885 95.3749 20.1231 95.9034 20.1231C96.6972 20.1231 97.2257 20.6516 97.2257 21.4455C97.2257 22.6344 96.4318 23.4283 95.2429 23.4283C95.1774 23.4283 95.1114 23.3954 95.0452 23.3625C94.9789 23.3294 94.9124 23.2963 94.8464 23.2963C94.8464 23.2963 94.7144 23.4283 94.7144 23.5602V24.3541C94.7144 24.8826 94.7144 25.0145 94.9783 25.0145L95.3749 25.1465V25.2799H93.7886C93.6567 25.2799 93.6567 25.1465 93.6567 25.1465L93.9205 25.0145ZM98.2835 21.0481H98.4154H98.9439C99.4724 21.0481 99.6059 21.0482 99.7378 20.9162V20.7828C99.7378 20.5197 99.6059 20.2543 99.2093 20.2543C98.68 20.2543 98.2835 20.7828 98.2835 21.0481ZM100.266 21.1801C100.266 21.3135 100.135 21.3135 99.8697 21.3135L98.4154 21.3128C98.3494 21.3128 98.3165 21.3128 98.3 21.3293C98.2835 21.3458 98.2835 21.3787 98.2835 21.4447C98.2835 22.2371 98.68 22.899 99.4724 22.899C99.7378 22.899 100.002 22.899 100.266 22.5025L100.398 22.6344C100.135 23.1629 99.6059 23.4283 99.2093 23.4283C98.6808 23.4283 98.2842 23.1636 98.0204 22.8998C97.755 22.5025 97.755 22.2371 97.755 21.842C97.755 20.9162 98.2835 20.1223 99.2093 20.1223C99.8697 20.1223 100.398 20.5197 100.398 21.0481C100.398 21.1801 100.398 21.1801 100.266 21.1801ZM103.441 20.5197C103.441 20.3877 103.441 20.2543 103.308 20.2543C103.176 20.1223 102.778 20.1223 102.646 20.1239C101.324 20.1239 100.796 20.9177 100.796 21.8435C100.796 22.372 100.927 22.7686 101.192 23.0325C101.457 23.2971 101.853 23.429 102.25 23.429C102.778 23.429 103.307 23.1637 103.572 22.6352C103.572 22.5032 103.44 22.5032 103.44 22.5032C103.307 22.7678 103.043 22.8998 102.514 22.8998C101.721 22.8998 101.324 22.2378 101.324 21.5774C101.324 20.7835 101.853 20.3885 102.382 20.3885C102.647 20.3885 103.044 20.5197 103.176 20.7835H103.308C103.308 20.7835 103.441 20.6516 103.441 20.5197ZM104.895 20.6516C104.895 20.5197 104.895 20.5197 105.027 20.5197L105.82 20.5189C105.952 20.5189 105.952 20.2543 105.82 20.1223H105.027C104.895 20.1223 104.895 20.1223 104.895 19.9904V19.725C104.761 19.5931 104.761 19.5931 104.629 19.5931C104.629 19.8577 104.497 19.9896 104.365 20.1216C104.283 20.1216 104.201 20.1723 104.087 20.2427C104.018 20.2858 103.936 20.3363 103.835 20.387V20.5189H104.101C104.233 20.5189 104.233 20.5189 104.233 20.7828V22.5025C104.233 23.0317 104.366 23.4283 105.027 23.4283C105.419 23.4283 105.681 23.1695 105.816 23.0361L105.82 23.0317C105.952 23.0317 105.82 22.8998 105.82 22.8998C105.82 22.8998 105.687 23.0317 105.555 23.0317H105.423C104.895 23.0317 104.895 22.6344 104.895 22.1059V20.6516ZM109.124 20.6516C109.124 20.5197 109.124 20.5197 109.258 20.5197L110.181 20.5189V20.1223H109.257C109.123 20.1223 109.123 20.1223 109.123 19.9904V19.725C109.123 19.5931 108.991 19.5931 108.991 19.5931C108.86 19.8577 108.728 19.9896 108.595 20.1216C108.595 20.1216 108.332 20.2535 108.198 20.387C108.066 20.387 108.198 20.5189 108.198 20.5189H108.464C108.596 20.5189 108.596 20.5189 108.596 20.7828V22.5025C108.596 23.0317 108.729 23.4283 109.389 23.4283C109.785 23.4283 110.048 23.1656 110.18 23.0332L110.182 23.0317C110.182 23.0317 110.182 22.8998 110.05 22.8998L109.918 23.0317H109.653C109.124 23.0317 109.124 22.6344 109.124 22.1059V20.6516ZM110.712 18.2715C110.976 18.4049 110.976 18.4049 110.976 18.8H110.976V22.3705C110.976 22.899 110.976 23.031 110.58 23.031H110.448V23.2963H111.902C112.034 23.2963 112.034 23.1629 111.902 23.031H111.77C111.505 23.031 111.505 22.899 111.505 22.3705V21.0481C111.505 20.7835 111.505 20.7835 111.637 20.6516C111.77 20.5197 112.033 20.3877 112.299 20.3877C112.827 20.3877 112.959 20.7835 112.959 21.3135V22.3713C112.959 22.8998 112.959 23.0317 112.695 23.0317H112.562V23.2971H114.016C114.15 23.2971 114.15 23.1637 114.016 23.0317H113.884C113.62 23.0317 113.62 22.8998 113.62 22.3713V21.0489C113.62 20.5197 113.356 20.1231 112.562 20.1231C112.166 20.1231 111.77 20.2543 111.504 20.5197V17.7422C111.399 17.7776 111.303 17.8128 111.214 17.8455C110.967 17.9363 110.773 18.0076 110.578 18.0076V18.1395L110.712 18.2715ZM115.075 21.0481H115.207H115.735C116.264 21.0481 116.396 21.0482 116.529 20.9162V20.7828C116.529 20.5197 116.396 20.2543 115.999 20.2543C115.47 20.2543 115.075 20.7828 115.075 21.0481ZM117.058 21.1801C117.058 21.3135 116.925 21.3135 116.661 21.3135L115.207 21.3128C115.141 21.3128 115.108 21.3128 115.091 21.3293C115.075 21.3458 115.075 21.3787 115.075 21.4447C115.075 22.2371 115.47 22.899 116.264 22.899C116.529 22.899 116.792 22.899 117.058 22.5025L117.19 22.6344C116.925 23.1629 116.396 23.4283 115.999 23.4283C115.471 23.4283 115.076 23.1636 114.81 22.8998C114.545 22.5025 114.545 22.2371 114.545 21.842C114.545 20.9162 115.075 20.1223 115.999 20.1223C116.661 20.1223 117.19 20.5197 117.19 21.0481C117.19 21.1801 117.19 21.1801 117.058 21.1801ZM119.041 18.1395V18.2715L119.302 18.2722C119.566 18.2722 119.698 18.5361 119.83 18.7996L119.831 18.8007C120.023 19.2344 120.198 19.6504 120.369 20.0552C120.666 20.7614 120.949 21.4335 121.285 22.1059C121.418 22.3705 121.681 23.0317 121.813 23.4283H122.079C122.211 22.7678 122.739 21.7086 123.005 21.1801C123.359 21.9097 123.668 22.6605 123.93 23.4283H124.194C124.46 22.5032 124.723 21.7093 125.12 20.917L125.648 19.5946C125.774 19.344 125.87 19.1378 125.948 18.9692C126.2 18.4267 126.272 18.2722 126.574 18.2722H126.706C126.84 18.2722 126.84 18.1403 126.706 18.1403H125.252V18.2722H125.517C125.649 18.2722 125.783 18.4057 125.783 18.4057C125.783 18.5376 125.649 18.9342 125.517 19.198C125.517 19.2693 125.367 19.6037 125.206 19.9602C125.066 20.2717 124.918 20.6001 124.857 20.7843C124.724 21.0487 124.625 21.313 124.527 21.5771C124.427 21.8423 124.328 22.1072 124.195 22.372C124.063 22.1082 123.932 21.8113 123.8 21.5145C123.667 21.2159 123.535 20.9174 123.403 20.6523V20.255C123.44 20.1805 123.488 20.0741 123.543 19.9509C123.684 19.6387 123.873 19.2185 124.063 18.9342C124.084 18.8918 124.105 18.846 124.127 18.799C124.241 18.5522 124.37 18.2722 124.592 18.2722H124.857C124.989 18.2722 124.857 18.1403 124.857 18.1403H123.403C123.403 18.1403 123.269 18.1403 123.403 18.2722H123.666C123.798 18.2722 123.932 18.4057 123.666 19.0661C123.403 19.4634 123.27 19.7273 123.138 20.1239C123.055 19.7924 122.92 19.4607 122.799 19.1616C122.726 18.9838 122.659 18.8174 122.609 18.6695C122.478 18.4064 122.478 18.273 122.741 18.273H122.875C123.007 18.273 123.007 18.141 122.875 18.141H121.287C121.155 18.141 121.155 18.273 121.287 18.273H121.421C121.62 18.273 121.745 18.4258 121.851 18.5571C121.885 18.5986 121.917 18.6379 121.949 18.6695L122.741 20.6523L122.875 20.7843C122.875 20.7843 122.741 20.917 122.741 21.1808C122.609 21.3791 122.51 21.5776 122.411 21.7761C122.312 21.9745 122.213 22.173 122.081 22.3713C121.883 21.9084 121.651 21.4127 121.42 20.917C121.188 20.4213 120.957 19.9256 120.759 19.4627C120.495 18.9334 120.362 18.5368 120.362 18.4049C120.362 18.4049 120.495 18.2715 120.627 18.2715H120.759C120.891 18.2715 120.891 18.1395 120.759 18.1395H119.041ZM127.898 23.1629C128.559 23.1629 128.692 22.3705 128.692 21.842C128.692 21.1801 128.427 20.2543 127.766 20.2543C127.237 20.2543 126.84 20.7828 126.84 21.7086C126.84 22.3705 127.104 23.1629 127.898 23.1629ZM126.179 21.7086C126.179 20.7828 126.972 20.1223 127.766 20.1223C128.692 20.1223 129.353 20.7828 129.353 21.7086C129.353 22.6344 128.692 23.4283 127.766 23.4283C126.84 23.4283 126.179 22.7671 126.179 21.7086ZM130.372 20.6295C130.41 20.6977 130.41 20.7868 130.41 21.0481V22.3713C130.41 22.8998 130.41 23.0317 130.146 23.0317H130.013C129.881 23.1637 129.881 23.2971 130.013 23.2971H131.599V23.0317H131.335C131.071 23.0317 130.939 22.8998 130.939 22.3713V21.3135C130.939 21.0489 131.071 20.7835 131.071 20.7835C131.122 20.7329 131.154 20.6822 131.181 20.639C131.224 20.5697 131.255 20.5197 131.336 20.5197C131.401 20.5197 131.467 20.5524 131.533 20.5852C131.599 20.6183 131.666 20.6516 131.733 20.6516C131.733 20.7835 131.865 20.7835 131.865 20.7835C131.996 20.7835 132.261 20.6523 132.261 20.3885C132.261 20.255 132.13 20.1231 131.865 20.1231C131.599 20.1231 131.336 20.2543 131.071 20.5197H130.939V19.9912C130.873 20.0563 130.71 20.1216 130.546 20.1872C130.38 20.2537 130.213 20.3205 130.146 20.3877V20.5197H130.278C130.323 20.5646 130.353 20.5943 130.372 20.6295ZM133.715 23.031C133.45 23.031 133.45 22.899 133.45 22.3705H133.451V17.7422C133.187 17.8757 132.79 18.0076 132.658 18.0076C132.525 18.0076 132.525 18.1395 132.658 18.1395V18.2715C132.922 18.4049 132.922 18.4049 132.922 18.8V22.3705C132.922 22.899 132.922 23.031 132.658 23.031H132.393V23.2963H133.979V23.031H133.715ZM136.756 22.7678C136.888 22.7678 136.888 22.6344 136.888 22.5025L136.889 20.917C136.889 20.8501 136.856 20.8167 136.822 20.7834C136.79 20.7504 136.757 20.7174 136.757 20.6516L136.753 20.6483C136.62 20.516 136.358 20.255 136.096 20.255C135.434 20.255 135.039 20.917 135.039 21.5774C135.039 22.3713 135.434 23.0317 136.228 23.0317C136.359 23.0317 136.624 22.8998 136.756 22.7678ZM137.416 17.743V18.6688V22.1067C137.416 22.7686 137.416 23.0325 137.682 23.0325C137.682 23.0325 137.814 23.0325 137.947 22.9005C138.079 23.0325 138.079 23.1644 137.947 23.1644C137.683 23.2979 137.154 23.4298 136.889 23.4298V23.0325H136.757C136.493 23.2971 136.228 23.429 135.831 23.429C135.039 23.429 134.377 22.6352 134.377 21.8428C134.377 20.7835 135.17 20.1231 136.228 20.1231H136.756C136.888 20.1231 136.888 20.1231 136.888 19.9912V18.8007C136.888 18.5808 136.888 18.4833 136.842 18.4171C136.806 18.3643 136.741 18.3314 136.624 18.2722L136.492 18.1403V18.0084C136.687 18.0084 136.883 17.9362 137.132 17.8446C137.22 17.8123 137.314 17.7777 137.416 17.743ZM140.193 18.2715C140.061 18.2715 140.061 18.4049 140.061 18.4049V19.1965C140.061 19.2483 140.061 19.28 140.077 19.2994C140.101 19.33 140.164 19.33 140.325 19.33C140.59 19.33 140.722 19.0653 140.722 18.8C140.722 18.5368 140.59 18.2715 140.193 18.2715ZM139.624 20.2407C139.665 20.2126 139.665 20.1259 139.665 19.8592H139.663V18.7992C139.663 18.4042 139.663 18.2707 139.531 18.2707H139.399V18.1388H140.324C140.589 18.1388 141.117 18.2707 141.117 18.7992C141.117 19.0015 140.964 19.1262 140.832 19.2334C140.791 19.2664 140.752 19.2978 140.721 19.3292V19.4611C140.768 19.5318 140.811 19.5983 140.851 19.6605C141.037 19.9479 141.165 20.1451 141.383 20.2535C141.383 20.387 141.515 20.387 141.515 20.387C141.515 20.5189 141.383 20.5189 141.383 20.5189C141.117 20.5189 140.854 20.387 140.721 19.9904C140.59 19.8585 140.458 19.7258 140.324 19.4619H140.192C140.126 19.4619 140.093 19.4619 140.077 19.4784C140.06 19.4949 140.06 19.5279 140.06 19.5938V19.8592C140.06 20.1259 140.06 20.2126 140.101 20.2407C140.121 20.2543 140.15 20.2543 140.192 20.2543L140.324 20.3877H139.401L139.533 20.2543C139.576 20.2543 139.605 20.2543 139.624 20.2407ZM142.441 19.3307C142.441 20.3877 141.516 21.3135 140.325 21.3135C139.135 21.3135 138.342 20.3877 138.342 19.3307C138.342 18.1403 139.136 17.3464 140.325 17.3464C141.516 17.3464 142.441 18.1403 142.441 19.3307ZM140.325 17.4799C139.401 17.4799 138.607 18.2722 138.607 19.3307C138.607 20.2543 139.401 21.0481 140.325 21.0489C141.384 21.0489 142.045 20.255 142.045 19.3307C142.045 18.2722 141.384 17.4799 140.325 17.4799Z" fill="black"/>
</svg>
