<svg width="217" height="32" viewBox="0 0 217 32" fill="none" xmlns="http://www.w3.org/2000/svg">
<path fill-rule="evenodd" clip-rule="evenodd" d="M4.3561 11.9577C4.78246 10.8026 5.37059 9.89239 6.11933 9.22706C6.21951 9.18656 6.32494 9.1605 6.43246 9.14967C6.53529 9.13927 6.79527 9.1335 7.21239 9.1335C7.44117 9.1335 7.64338 9.14967 7.82016 9.18085C7.99695 9.21204 8.17951 9.27442 8.36669 9.36798C8.55388 9.4627 8.77226 9.59091 9.02184 9.75724L5.83855 12.2846L6.58844 12.8783V21.3023C5.77632 20.9072 5.10195 20.2769 4.65305 19.4935C4.0291 18.4123 3.71713 16.965 3.71713 15.1561C3.71597 14.1789 3.92858 13.1128 4.3561 11.9577ZM4.05915 8.72922C4.24633 8.72922 4.48551 8.76041 4.77668 8.82278C5.06786 8.88516 5.33824 8.94753 5.58897 9.00991C3.84076 9.78035 2.48772 11.059 1.531 12.8471C0.699766 14.424 0.270728 16.1817 0.281953 17.9641C0.281953 20.2512 1.07691 22.2125 2.66913 23.8458C4.26135 25.4791 6.20252 26.2957 8.49033 26.2957C10.6949 26.2957 12.5587 25.4525 14.077 23.7684C15.5952 22.0832 16.3555 20.0953 16.3555 17.8082C16.1475 18.2864 15.913 18.6884 15.653 19.0083C15.3196 19.403 14.9484 19.7644 14.5449 20.0872C14.233 20.3551 13.951 20.5584 13.7026 20.6936C13.4542 20.8287 13.1306 20.98 12.7355 21.1475V9.91434C13.2358 9.70642 13.6356 9.49388 13.9372 9.27442C14.2387 9.05726 14.5669 8.73962 14.9216 8.32263C15.8367 7.30385 16.3463 6.16955 16.4514 4.92206C15.7847 5.35868 15.1862 5.6821 14.6559 5.88886C14.1255 6.09678 13.527 6.23192 12.8614 6.29545C12.7563 6.29545 12.6107 6.30585 12.4235 6.32548C11.6956 6.32548 10.6083 6.04018 9.1628 5.46726C7.71733 4.89549 6.57689 4.60903 5.74496 4.60903C4.10074 4.60903 2.78005 5.37947 1.78058 6.91804C0.886258 8.29028 0.43794 9.92358 0.43794 11.8156C0.562729 11.2334 0.864304 10.6825 1.34382 10.1627C1.69735 9.77091 2.10744 9.43415 2.56052 9.16353C3.01923 8.87476 3.51839 8.72922 4.05915 8.72922ZM19.2592 26.1398L21.9757 23.1123L20.6018 21.6777V13.5644L21.3829 13.0354L23.5679 14.6883V25.389C23.5679 25.9931 23.5309 26.5083 23.4581 26.9345C23.3944 27.3389 23.2281 27.7203 22.9752 28.0422L22.2102 28.994C21.8671 29.4202 21.4349 29.7564 20.915 30.007C21.9549 29.9031 22.8088 29.6686 23.4743 29.3059C24.1399 28.9432 24.8273 28.3657 25.5345 27.5756C26.0544 26.9911 26.445 26.4089 26.705 25.8268C26.9689 25.2317 27.1426 24.6007 27.2203 23.9544V11.9738L26.2844 12.0362L23.3495 10.0703L21.2269 11.8168L20.5406 11.4425V5.51462L19.9167 4.17241L17.1389 6.88686V22.2703L16.2966 23.2671L19.2592 26.1398ZM28.5606 22.7381L33.5857 25.9192L38.3601 20.8969L35.7695 22.7381L32.5863 20.4591V18.3384L38.2665 14.0946L34.6464 9.22706L28.8726 13.2525V22.0508L28.5606 22.7381ZM45.2582 7.04395V12.8783C44.8422 12.9199 44.5048 12.9938 44.2448 13.0966C43.9837 13.2005 43.7087 13.3784 43.4175 13.6268C42.5844 14.2725 42.1685 15.103 42.1685 16.1229C42.1626 16.4398 42.2051 16.7556 42.2944 17.0597C42.5844 16.8113 42.871 16.6427 43.1518 16.5607C43.4325 16.4775 43.7815 16.4348 44.1986 16.4348C44.4054 16.4348 44.573 16.4579 44.6978 16.4983C44.8226 16.5411 45.0109 16.6219 45.2593 16.749V22.4886L49.5669 26.8271L53.5312 22.8005L58.3067 26.8271L65.2672 20.0883V8.54209L60.9597 5.23508L57.7764 8.10547L53.4388 5.23508L49.568 8.48088V6.5773C49.568 5.95355 49.1209 5.24664 48.2265 4.45656C47.9562 4.26944 47.7008 4.07654 47.4616 3.87902C47.2224 3.6815 47.0815 3.39965 47.041 3.03696C47.004 2.74185 46.9832 2.44493 46.9786 2.14755C46.9786 1.44063 47.2178 0.878108 47.6973 0.462278C47.5219 0.428877 47.3442 0.408031 47.1658 0.399902C46.2299 0.399902 45.4026 0.789167 44.6851 1.57C43.9664 2.35084 43.6082 3.21946 43.6082 4.17587C43.6082 4.32141 43.629 4.51893 43.6706 4.76843C43.8531 5.78606 44.3835 6.54495 45.2582 7.04395ZM66.1084 22.894L69.9792 25.6085L72.7881 22.9576L76.1274 25.2966L78.9987 22.2079H78.0004L76.7213 20.8969V11.7555L76.0338 11.8791L72.7881 9.16468L66.6388 13.4073V22.3615L66.1084 22.894ZM84.7251 9.77341C84.3295 9.58465 83.9579 9.34928 83.6182 9.07228L78.5307 12.66V18.7138L78.9987 19.088H82.026L78.094 25.9192C78.6971 25.4006 79.1662 25.0575 79.499 24.89C79.9751 24.6576 80.4991 24.5401 81.0288 24.5469C81.6944 24.5469 82.234 24.6255 82.6511 24.7814C83.0682 24.9374 83.4934 25.2123 83.9313 25.6073L88.9241 21.6777V15.5315L88.5497 15.1561H85.2093V14.8442L88.1753 9.63249C87.8622 9.82077 87.6126 9.92935 87.4254 9.96054C87.1254 9.99804 86.823 10.0135 86.5207 10.0067H85.8656C85.4729 10.0132 85.0837 9.93351 84.7251 9.77341ZM92.6377 25.702L95.3842 22.6457L94.0116 21.2088V13.0977L94.7603 12.5676L96.9753 14.2517V24.9223C96.9832 25.4397 96.9464 25.9568 96.8655 26.4679C96.7927 26.8721 96.6217 27.2418 96.3502 27.5756C96.1838 27.7835 95.955 28.0827 95.6639 28.48C95.2889 28.9161 94.833 29.2755 94.3212 29.5381C95.2779 29.4572 96.126 29.2227 96.8655 28.8392C97.6039 28.4535 98.296 27.8875 98.9407 27.1378C99.4191 26.5764 99.7946 25.9897 100.065 25.3763C100.335 24.763 100.512 24.1334 100.595 23.4877V11.506L99.6906 11.5996L96.7257 9.63365L94.6031 11.3501L93.9168 10.9759V5.07915L93.3241 3.70691L90.5151 6.42136V21.8348L89.6728 22.8005L92.6377 25.702ZM107.651 7.26226L104.842 4.98444L102.563 7.48172L104.935 9.63365L107.651 7.26226ZM103.249 14.3129V22.7982L102.657 23.7049H103.717L106.152 25.7621L108.711 23.4231L111.988 26.074L114.858 22.8929L113.954 21.7401V13.7827L114.702 13.4085L116.357 15.2185V23.0176L119.259 25.5461L122.07 22.3627H120.758L120.009 21.1464V12.6588L120.384 11.8791L119.635 12.0351L116.765 9.75724L113.955 12.6588L110.678 10.0691L107.963 13.0954H109.024L109.929 14.1558V21.9549L108.12 22.5798L106.964 21.6754V12.9383L107.339 12.4082L104.093 10.0056L101.44 12.8136L102.345 13.0943L103.249 14.3129ZM159.368 22.5186L158.465 21.3635V13.4085L159.212 13.0342L160.866 14.8442V22.6769L163.771 25.1719L166.579 21.9884H165.267L164.519 20.7721V12.2846L164.893 11.5361L164.144 11.6608L161.274 9.383L158.466 12.2846L155.187 9.69487L152.472 12.7223H153.533L154.437 13.7827V21.6142L153.313 23.1123L156.777 25.389L159.368 22.5186ZM122.663 22.5822C123.078 22.5822 123.458 22.6341 123.803 22.7381C124.146 22.842 124.482 23.0245 124.816 23.2844C125.15 23.5466 125.394 23.7938 125.55 24.0329C125.706 24.272 125.836 24.5989 125.94 25.0148L124.318 27.1066L122.601 29.4168C123.039 29.1661 123.413 29.0148 123.725 28.9628C124.037 28.9109 124.495 28.8866 125.099 28.8866C125.805 28.9478 126.408 29.1142 126.906 29.3856C127.408 29.6559 127.863 30.0602 128.28 30.6019C129.28 30.2277 130.44 29.3948 131.76 28.1069C133.083 26.8167 133.744 25.7563 133.744 24.9235C133.744 24.7791 133.593 24.3298 133.29 23.5836C132.987 22.8291 132.834 22.0229 132.838 21.2099V11.5072L128.499 8.79159L123.037 12.6611V21.8983L122.663 22.5822ZM133.43 11.9115H135.242V22.7381L134.804 23.5813H135.865L138.144 25.3278L141.078 21.9884H139.799L138.955 21.084V12.1298L140.797 9.85196H138.955V3.89173L135.243 7.35583V9.72721L133.43 11.9115ZM141.329 22.5822L145.197 25.3278L151.94 20.6173V11.4437L151.254 11.5996L148.006 8.85397L141.859 13.0966V22.052L141.329 22.5822ZM173.007 7.10632V10.0079C172.465 10.0079 172.007 10.0657 171.633 10.18C171.259 10.2944 170.902 10.5173 170.556 10.8511C170.213 11.1838 170.012 11.5684 169.949 12.005C169.887 12.4417 169.855 13.0146 169.855 13.7215C169.855 14.0126 169.843 14.2101 169.823 14.3141C170.281 13.5863 170.915 13.2849 171.728 13.4096C172.27 13.4928 172.696 13.7227 173.007 14.0957V18.9332C172.05 19.4322 171.217 20.0883 170.511 20.898C169.718 21.8348 169.188 22.7993 168.918 23.7996C169.271 23.5232 169.647 23.2778 170.042 23.0661C170.354 22.9102 170.791 22.7508 171.353 22.5833C171.561 22.5198 171.8 22.4528 172.071 22.38C172.341 22.3072 172.653 22.2714 173.008 22.2714V31.5999L177.097 28.2606L178.47 29.2574V23.9532L180.219 24.5469L186.118 20.4591V6.73208L182.339 3.70575L178.469 6.95039V5.23393L177.722 4.61018V7.35583L177.097 7.79245V4.92206L173.913 2.48829L170.137 6.2019C170.449 6.01362 170.771 5.92005 171.103 5.92005C171.373 5.92005 171.633 5.96279 171.884 6.0448C172.445 6.25387 172.82 6.60733 173.007 7.10632ZM186.647 22.894L190.518 25.6085L197.29 20.898V11.7567L196.604 11.8803L193.327 9.16584L187.177 13.4085V22.3627L186.647 22.894ZM204.563 9.63365C204.161 9.43574 203.774 9.20632 203.408 8.94753L198.351 12.504V18.5578L198.788 18.9321H201.817L197.884 25.7633C198.319 25.389 198.685 25.1095 198.976 24.9212C199.515 24.5689 200.14 24.391 200.849 24.391C201.495 24.391 202.023 24.4696 202.44 24.6255C202.855 24.7814 203.282 25.0563 203.719 25.4514L208.713 21.5218V15.3744L208.338 15.0002H204.998V14.6871L207.963 9.47656C207.651 9.66368 207.401 9.77226 207.214 9.8046C207.027 9.83694 206.724 9.85196 206.309 9.85196H205.655C205.238 9.85196 204.874 9.77919 204.563 9.63365ZM208.806 12.0674H210.618V22.894L210.18 23.7372H211.241L213.488 25.4837L216.453 22.1444H215.174L214.331 21.2399V12.2857L216.14 10.0079H214.331V4.04881L210.618 7.51176V9.88315L208.806 12.0674ZM70.3524 12.3481L72.7869 14.1581V21.4271L72.0059 22.2703L70.3512 20.8357L70.3524 12.3481ZM130.778 25.1407C131.277 25.4953 131.527 25.9411 131.527 26.4829C131.527 26.7312 131.504 26.9183 131.463 27.0419C131.34 27.2291 131.245 27.3538 131.181 27.4162C131.013 27.5844 130.794 27.6938 130.559 27.7281C130.288 27.7708 129.934 27.6403 129.498 27.3399C129.06 27.0373 128.404 26.886 127.533 26.886C126.969 26.886 126.46 26.938 126.003 27.0419C125.545 27.1459 125.066 27.3238 124.565 27.5744L129.124 21.9573V22.6769C129.124 23.0915 129.159 23.4346 129.232 23.7061C129.306 23.9763 129.467 24.2362 129.715 24.4869C130.07 24.7144 130.425 24.9327 130.778 25.1407ZM126.753 11.9738L129.125 13.7215V20.7733L128.436 21.5218L126.753 19.8365V11.9738ZM32.5863 17.4339V12.8783L34.8648 15.7487L32.5863 17.4339ZM86.0528 12.2857L83.9302 16.0617H82.338V11.9738C82.9619 12.3689 83.6379 12.5664 84.3658 12.5664C84.9493 12.5664 85.5109 12.4728 86.0528 12.2857ZM145.572 12.0362L148.006 13.8774V21.1475L147.227 21.9896L145.57 20.5226V12.0362H145.572ZM82.9307 18.3384H85.2093V22.3627C84.8887 22.2493 84.56 22.1605 84.226 22.097C84.0076 22.0681 83.5547 22.052 82.8683 22.052C82.4697 22.0463 82.0717 22.0878 81.6828 22.1756C81.35 22.2587 80.9549 22.3939 80.4973 22.5822L82.9307 18.3384ZM177.096 9.85196L177.721 9.32178V27.1367L177.096 26.7624V9.85196ZM178.469 8.85397L180.373 7.63766L181.747 8.63565V20.3679C181.098 19.9936 180.747 19.7972 180.684 19.7741L179.997 19.5558C179.486 19.4346 178.977 19.3098 178.467 19.1816L178.469 8.85397ZM11.706 10.2262C11.9139 10.2262 12.0803 10.2054 12.2051 10.165V21.5229C11.4192 21.9123 10.5541 22.1154 9.67698 22.1167C9.15703 22.1167 8.63707 22.0531 8.11596 21.9295C7.59485 21.8059 7.18928 21.6384 6.89926 21.4282L10.4569 17.8706V10.0714C10.6047 10.1553 10.7701 10.2036 10.9399 10.2124C11.1167 10.2227 11.2369 10.2274 11.3004 10.2274L11.706 10.2262ZM190.892 12.3481L193.327 14.1581V21.4271L192.578 22.2703L190.892 20.8357V12.3481ZM49.5657 9.38415L50.7212 8.47972L53.1245 10.9135V22.1155L52.1574 23.1123L49.5669 20.6173L49.5657 9.38415ZM205.061 12.3481C205.332 12.3077 205.592 12.2337 205.84 12.1298L203.719 15.9046H202.128V11.8168C202.745 12.205 203.459 12.4108 204.188 12.4105C204.5 12.4105 204.791 12.3897 205.061 12.3481ZM202.719 18.1836H204.999V22.2079C204.68 22.092 204.351 22.0036 204.017 21.9434C203.796 21.9122 203.344 21.896 202.658 21.896C202.259 21.8893 201.861 21.9308 201.471 22.0196C201.076 22.1246 200.69 22.2606 200.316 22.4262L202.719 18.1836ZM57.7741 9.38415L58.8983 8.47972L61.3329 10.9135V22.1155L60.3334 23.1123L57.7741 20.6173V9.38415Z" fill="black"/>
</svg>
