<svg width="163" height="24" viewBox="0 0 163 24" fill="none" xmlns="http://www.w3.org/2000/svg">
<path fill-rule="evenodd" clip-rule="evenodd" d="M3.6837 8.96814C4.00347 8.10182 4.44457 7.41917 5.00612 6.92017C5.08126 6.8898 5.16033 6.87025 5.24097 6.86213C5.3181 6.85433 5.51308 6.85 5.82592 6.85C5.9975 6.85 6.14916 6.86213 6.28175 6.88552C6.41434 6.90891 6.55126 6.95569 6.69165 7.02586C6.83204 7.0969 6.99582 7.19306 7.183 7.31781L4.79554 9.21331L5.35796 9.65859V15.9766C4.74887 15.6803 4.24309 15.2076 3.90641 14.62C3.43845 13.8091 3.20447 12.7236 3.20447 11.367C3.20361 10.6341 3.36306 9.83445 3.6837 8.96814ZM3.46099 6.54679C3.60137 6.54679 3.78076 6.57018 3.99914 6.61696C4.21752 6.66374 4.4203 6.71053 4.60836 6.75731C3.2972 7.33514 2.28242 8.29415 1.56488 9.6352C0.941451 10.8179 0.619672 12.1361 0.628091 13.473C0.628091 15.1883 1.22431 16.6593 2.41847 17.8842C3.61264 19.1092 5.06852 19.7217 6.78437 19.7217C8.43783 19.7217 9.83565 19.0893 10.9744 17.8262C12.1131 16.5622 12.6833 15.0713 12.6833 13.356C12.5273 13.7147 12.3514 14.0161 12.1564 14.2561C11.9063 14.5522 11.628 14.8231 11.3253 15.0653C11.0913 15.2662 10.8799 15.4187 10.6936 15.5201C10.5073 15.6214 10.2646 15.7349 9.96824 15.8605V7.43563C10.3435 7.27969 10.6433 7.12029 10.8695 6.95569C11.0957 6.79282 11.3418 6.55459 11.6078 6.24185C12.2942 5.47776 12.6763 4.62704 12.7552 3.69142C12.2552 4.01889 11.8063 4.26146 11.4085 4.41653C11.0107 4.57246 10.5619 4.67382 10.0627 4.72147C9.98384 4.72147 9.87464 4.72926 9.73426 4.74399C9.1883 4.74399 8.37284 4.53001 7.28873 4.10032C6.20462 3.6715 5.34929 3.45665 4.72535 3.45665C3.49218 3.45665 2.50167 4.03448 1.75206 5.18841C1.08132 6.21759 0.745081 7.44256 0.745081 8.86159C0.838673 8.42496 1.06485 8.01172 1.42449 7.62188C1.68964 7.32806 1.99721 7.07549 2.33701 6.87252C2.68105 6.65595 3.05542 6.54679 3.46099 6.54679ZM14.861 19.6047L16.8984 17.3341L15.868 16.2582V10.1732L16.4538 9.77641L18.0926 11.0161V19.0416C18.0926 19.4947 18.0648 19.8811 18.0102 20.2008C17.9624 20.5041 17.8377 20.7901 17.648 21.0316L17.0743 21.7454C16.8169 22.0651 16.4928 22.3172 16.1029 22.5052C16.8828 22.4272 17.5232 22.2513 18.0224 21.9793C18.5215 21.7073 19.0371 21.2741 19.5675 20.6816C19.9575 20.2432 20.2504 19.8066 20.4454 19.37C20.6433 18.9237 20.7736 18.4504 20.8319 17.9657V8.98026L20.1299 9.02705L17.9288 7.55258L16.3368 8.86245L15.8221 8.58176V4.13584L15.3541 3.12918L13.2708 5.16502V16.7026L12.6391 17.4502L14.861 19.6047ZM21.8371 17.0534L25.6059 19.4393L29.1867 15.6725L27.2438 17.0534L24.8563 15.3442V13.7537L29.1165 10.5708L26.4015 6.92017L22.0711 9.93928V16.538L21.8371 17.0534ZM34.3602 5.28284V9.65859C34.0483 9.68978 33.7952 9.74522 33.6002 9.82232C33.4044 9.90029 33.1981 10.0337 32.9798 10.22C32.355 10.7042 32.043 11.3271 32.043 12.0921C32.0386 12.3297 32.0705 12.5666 32.1374 12.7946C32.355 12.6084 32.5699 12.4819 32.7804 12.4204C32.991 12.358 33.2527 12.326 33.5656 12.326C33.7207 12.326 33.8464 12.3433 33.9399 12.3736C34.0335 12.4057 34.1748 12.4663 34.3611 12.5616V16.8663L37.5918 20.1202L40.5651 17.1002L44.1467 20.1202L49.3671 15.0661V6.40645L46.1364 3.92619L43.7489 6.07898L40.4957 3.92619L37.5926 6.36054V4.93285C37.5926 4.46504 37.2573 3.93486 36.5865 3.3423C36.3837 3.20196 36.1922 3.05728 36.0128 2.90914C35.8335 2.761 35.7277 2.54962 35.6974 2.2776C35.6696 2.05626 35.654 1.83358 35.6506 1.61054C35.6506 1.08035 35.83 0.658459 36.1896 0.346586C36.058 0.321535 35.9248 0.305901 35.791 0.299805C35.0891 0.299805 34.4686 0.591753 33.9304 1.17738C33.3914 1.76301 33.1228 2.41447 33.1228 3.13178C33.1228 3.24094 33.1384 3.38908 33.1695 3.5762C33.3065 4.33942 33.7042 4.90859 34.3602 5.28284ZM49.9979 17.1704L52.901 19.2062L55.0077 17.218L57.5122 18.9723L59.6656 16.6558H58.9169L57.9576 15.6725V8.81653L57.442 8.90923L55.0077 6.87339L50.3957 10.0554V16.771L49.9979 17.1704ZM63.9605 7.32994C63.6638 7.18837 63.3851 7.01184 63.1303 6.80409L59.3147 9.49486V14.0352L59.6656 14.3159H61.9361L58.9871 19.4393C59.4395 19.0503 59.7913 18.793 60.0409 18.6674C60.3979 18.4931 60.7909 18.405 61.1883 18.4101C61.6874 18.4101 62.0921 18.469 62.405 18.586C62.7178 18.7029 63.0367 18.9091 63.3651 19.2054L67.1097 16.2582V11.6485L66.8289 11.367H64.3236V11.1331L66.5481 7.22425C66.3133 7.36546 66.1261 7.44689 65.9857 7.47028C65.7607 7.49841 65.5339 7.50999 65.3072 7.50494H64.8158C64.5213 7.50974 64.2294 7.45001 63.9605 7.32994ZM69.8949 19.2764L71.9548 16.9841L70.9253 15.9064V9.82319L71.4868 9.42555L73.1481 10.6886V18.6916C73.154 19.0797 73.1265 19.4675 73.0658 19.8508C73.0112 20.154 72.8829 20.4312 72.6793 20.6816C72.5545 20.8375 72.3829 21.0619 72.1645 21.3599C71.8833 21.687 71.5414 21.9565 71.1575 22.1534C71.8751 22.0928 72.5112 21.9169 73.0658 21.6293C73.6195 21.34 74.1386 20.9155 74.6222 20.3532C74.981 19.9322 75.2626 19.4921 75.4654 19.0321C75.6682 18.5721 75.8008 18.1 75.8632 17.6157V8.62941L75.1846 8.69958L72.9609 7.22511L71.369 8.51245L70.8542 8.23177V3.80924L70.4097 2.78006L68.303 4.8159V16.376L67.6712 17.1002L69.8949 19.2764ZM81.1546 5.44658L79.0479 3.7382L77.339 5.61117L79.1181 7.22511L81.1546 5.44658ZM77.8537 10.7346V17.0985L77.4091 17.7786H78.2047L80.0306 19.3215L81.9501 17.5672L84.4078 19.5554L86.5604 17.1695L85.8818 16.3049V10.3369L86.4434 10.0562L87.6844 11.4137V17.2631L89.8612 19.1595L91.9688 16.7719H90.9852L90.4237 15.8597V9.49399L90.7044 8.90923L90.1429 9.02618L87.9903 7.31781L85.8827 9.49399L83.425 7.55172L81.3885 9.82146H82.185L82.8635 10.6167V16.4661L81.5064 16.9348L80.6398 16.2564V9.70364L80.9206 9.306L78.4863 7.50407L76.4966 9.61008L77.1752 9.82059L77.8537 10.7346ZM119.942 16.8888L119.266 16.0225V10.0562L119.825 9.77554L121.066 11.1331V17.0075L123.245 18.8788L125.351 16.4912H124.367L123.806 15.579V9.21331L124.086 8.65193L123.525 8.7455L121.372 7.03713L119.266 9.21331L116.807 7.27103L114.771 9.54164H115.566L116.245 10.3369V16.2105L115.401 17.3341L118 19.0416L119.942 16.8888ZM92.4142 16.9365C92.7253 16.9365 93.0104 16.9755 93.2687 17.0534C93.5261 17.1314 93.7782 17.2683 94.0287 17.4632C94.2791 17.6599 94.462 17.8453 94.579 18.0246C94.696 18.2039 94.7939 18.4491 94.8719 18.7609L93.6552 20.3298L92.3674 22.0625C92.6959 21.8745 92.9766 21.761 93.2106 21.722C93.4446 21.683 93.7878 21.6648 94.241 21.6648C94.7705 21.7107 95.2228 21.8355 95.5964 22.0391C95.9725 22.2418 96.3139 22.545 96.6267 22.9513C97.3763 22.6706 98.2464 22.046 99.2369 21.0801C100.229 20.1124 100.725 19.3171 100.725 18.6925C100.725 18.5842 100.611 18.2472 100.384 17.6876C100.157 17.1217 100.042 16.5171 100.045 15.9073V8.63027L96.7905 6.59357L92.6941 9.49572V16.4236L92.4142 16.9365ZM100.489 8.93348H101.848V17.0534L101.52 17.6859H102.315L104.025 18.9957L106.225 16.4912H105.266L104.633 15.8129V9.09722L106.015 7.38885H104.633V2.91867L101.849 5.51675V7.29528L100.489 8.93348ZM106.413 16.9365L109.315 18.9957L114.372 15.4629V8.58263L113.857 8.69958L111.421 6.64035L106.811 9.82232V16.5389L106.413 16.9365ZM130.172 5.32962V7.5058C129.765 7.5058 129.422 7.54912 129.141 7.63488C128.861 7.72065 128.593 7.88784 128.334 8.13821C128.076 8.38771 127.925 8.67619 127.879 9.00366C127.832 9.33112 127.808 9.76081 127.808 10.291C127.808 10.5093 127.799 10.6574 127.784 10.7354C128.127 10.1896 128.603 9.96353 129.212 10.0571C129.619 10.1195 129.939 10.2919 130.172 10.5717V14.1998C129.454 14.5741 128.829 15.0661 128.3 15.6734C127.705 16.376 127.308 17.0994 127.105 17.8496C127.37 17.6423 127.652 17.4582 127.948 17.2995C128.182 17.1825 128.51 17.063 128.932 16.9374C129.088 16.8897 129.267 16.8395 129.47 16.7849C129.673 16.7303 129.907 16.7035 130.173 16.7035V23.6998L133.239 21.1953L134.269 21.9429V17.9648L135.581 18.4101L140.005 15.3442V5.04894L137.171 2.77919L134.268 5.21267V3.92533L133.708 3.45752V5.51675L133.239 5.84421V3.69142L130.851 1.8661L128.019 4.6513C128.253 4.51009 128.495 4.43992 128.744 4.43992C128.946 4.43992 129.141 4.47197 129.329 4.53348C129.751 4.69028 130.031 4.95537 130.172 5.32962ZM140.402 17.1704L143.305 19.2062L148.384 15.6734V8.8174L147.869 8.9101L145.412 6.87426L140.8 10.0562V16.7719L140.402 17.1704ZM153.839 7.22511C153.537 7.07668 153.247 6.90462 152.973 6.71053L149.18 9.3779V13.9183L149.508 14.1989H151.779L148.829 19.3223C149.156 19.0416 149.43 18.832 149.648 18.6908C150.053 18.4265 150.522 18.2931 151.053 18.2931C151.538 18.2931 151.934 18.352 152.246 18.469C152.558 18.586 152.878 18.7921 153.206 19.0884L156.951 16.1412V11.5307L156.67 11.25H154.165V11.0152L156.389 7.1073C156.155 7.24764 155.968 7.32907 155.827 7.35333C155.687 7.37759 155.46 7.38885 155.149 7.38885H154.658C154.345 7.38885 154.072 7.33427 153.839 7.22511ZM157.021 9.05044H158.38V17.1704L158.052 17.8028H158.847L160.533 19.1127L162.757 16.6082H161.797L161.165 15.9298V9.21417L162.522 7.5058H161.165V3.03649L158.38 5.6337V7.41224L157.021 9.05044ZM53.1809 9.26095L55.0068 10.6185V16.0702L54.421 16.7026L53.1801 15.6266L53.1809 9.26095ZM98.5003 18.8554C98.8747 19.1213 99.0619 19.4557 99.0619 19.862C99.0619 20.0483 99.0445 20.1886 99.0142 20.2813C98.9215 20.4217 98.8504 20.5152 98.8027 20.562C98.6763 20.6882 98.5125 20.7702 98.3357 20.7959C98.1329 20.828 97.8668 20.7301 97.5401 20.5048C97.2117 20.2779 96.7195 20.1644 96.066 20.1644C95.6432 20.1644 95.2618 20.2034 94.9187 20.2813C94.5755 20.3593 94.2159 20.4927 93.8406 20.6807L97.2594 16.4678V17.0075C97.2594 17.3185 97.2862 17.5758 97.3408 17.7794C97.3963 17.9821 97.5167 18.177 97.703 18.365C97.9691 18.5357 98.2351 18.6994 98.5003 18.8554ZM95.4811 8.98026L97.2602 10.291V15.5798L96.7437 16.1412L95.4811 14.8773V8.98026ZM24.8563 13.0753V9.65859L26.5652 11.8114L24.8563 13.0753ZM64.9562 9.21417L63.3643 12.0461H62.1701V8.98026C62.6381 9.27654 63.145 9.42468 63.691 9.42468C64.1286 9.42468 64.5498 9.35452 64.9562 9.21417ZM109.595 9.02705L111.421 10.408V15.8605L110.837 16.4921L109.594 15.3919V9.02705H109.595ZM62.6147 13.7537H64.3236V16.7719C64.0832 16.6869 63.8366 16.6202 63.5861 16.5726C63.4223 16.551 63.0826 16.5389 62.5679 16.5389C62.2689 16.5346 61.9704 16.5657 61.6787 16.6315C61.4292 16.6939 61.1328 16.7953 60.7896 16.9365L62.6147 13.7537ZM133.239 7.38885L133.707 6.99121V20.3524L133.239 20.0717V7.38885ZM134.268 6.64035L135.696 5.72813L136.727 6.47662V15.2758C136.24 14.9951 135.977 14.8478 135.929 14.8305L135.415 14.6667C135.032 14.5758 134.649 14.4822 134.267 14.3861L134.268 6.64035ZM9.1961 7.66953C9.35209 7.66953 9.47688 7.65394 9.57047 7.62362V16.1421C8.98101 16.4341 8.33221 16.5864 7.67436 16.5874C7.2844 16.5874 6.89443 16.5397 6.5036 16.447C6.11276 16.3543 5.80859 16.2287 5.59107 16.071L8.25931 13.4028V7.55345C8.37018 7.61639 8.49422 7.65258 8.62155 7.65914C8.75414 7.66694 8.84426 7.6704 8.89193 7.6704L9.1961 7.66953ZM143.586 9.26095L145.412 10.6185V16.0702L144.85 16.7026L143.586 15.6266V9.26095ZM37.5909 7.03799L38.4575 6.35967L40.26 8.18499V16.5865L39.5347 17.3341L37.5918 15.4629L37.5909 7.03799ZM154.213 9.26095C154.416 9.23063 154.611 9.17519 154.797 9.09722L153.206 11.9283H152.012V8.86245C152.475 9.15362 153.011 9.30799 153.558 9.30774C153.792 9.30774 154.01 9.29214 154.213 9.26095ZM152.456 13.6376H154.166V16.6558C153.926 16.5689 153.68 16.5025 153.429 16.4574C153.264 16.434 152.925 16.4219 152.41 16.4219C152.111 16.4169 151.812 16.448 151.52 16.5146C151.224 16.5933 150.934 16.6953 150.654 16.8195L152.456 13.6376ZM43.7472 7.03799L44.5904 6.35967L46.4163 8.18499V16.5865L45.6667 17.3341L43.7472 15.4629V7.03799Z" fill="black"/>
</svg>
