<svg width="72" height="22" viewBox="0 0 72 22" fill="none" xmlns="http://www.w3.org/2000/svg">
<path fill-rule="evenodd" clip-rule="evenodd" d="M13.4633 5.80716H9.21898L6.73163 11.8858L4.24428 5.80716H0C1.54176 9.5749 3.08292 13.3433 4.62529 17.1106L2.91676 21.2858H7.16104C9.28348 16.0988 11.3545 10.9604 13.4632 5.80727L13.4633 5.80716ZM67.4323 0.746771H72L67.8695 10.9878H63.3019L67.4323 0.746771ZM64.4246 11.9754C65.8468 11.9754 66.9999 13.1584 66.9999 14.6178C66.9999 16.0772 65.8469 17.2603 64.4246 17.2603C63.0023 17.2603 61.8494 16.0772 61.8494 14.6178C61.8494 13.1585 63.0023 11.9754 64.4246 11.9754ZM55.4436 5.49974C58.6419 5.49974 61.2346 8.16016 61.2346 11.4419C61.2346 14.7237 58.6418 17.384 55.4436 17.384C52.2452 17.384 49.6526 14.7236 49.6526 11.4419C49.6526 8.16006 52.2453 5.49974 55.4436 5.49974ZM55.4436 9.12171C56.6924 9.12171 57.7048 10.1606 57.7048 11.442C57.7048 12.7234 56.6924 13.7623 55.4436 13.7623C54.1948 13.7623 53.1823 12.7234 53.1823 11.442C53.1823 10.1606 54.1948 9.12171 55.4436 9.12171ZM43.0112 5.49974C46.2095 5.49974 48.8022 8.16016 48.8022 11.4419C48.8022 14.7237 46.2094 17.384 43.0112 17.384C39.8128 17.384 37.2202 14.7236 37.2202 11.4419C37.2202 8.16006 39.8129 5.49974 43.0112 5.49974ZM43.0112 9.12171C44.26 9.12171 45.2724 10.1606 45.2724 11.442C45.2724 12.7234 44.26 13.7623 43.0112 13.7623C41.7623 13.7623 40.7499 12.7234 40.7499 11.442C40.7499 10.1606 41.7623 9.12171 43.0112 9.12171ZM25.9144 0.714459H29.7438V6.82325C29.7438 6.82325 30.4138 5.49974 32.627 5.49974C34.8402 5.49974 36.2596 6.49889 36.288 10.5902V17.2603H32.4585V10.5902C32.4585 9.82092 31.8508 9.19734 31.1011 9.19734C30.3341 9.19734 29.7252 9.8444 29.7444 10.6296L29.7437 17.2603H25.9143V0.714355L25.9144 0.714459ZM20.7 5.80716H24.5295V17.2604H20.7V16.1807C19.8424 16.9358 18.7737 17.3842 17.6148 17.3842C14.7907 17.3842 12.5013 14.7238 12.5013 11.4421C12.5013 8.16027 14.7907 5.49995 17.6148 5.49995C18.7737 5.49995 19.8425 5.94825 20.7 6.70346V5.80737V5.80716ZM18.5431 9.12171C19.7919 9.12171 20.8043 10.1606 20.8043 11.442C20.8043 12.7234 19.7919 13.7623 18.5431 13.7623C17.2942 13.7623 16.2818 12.7234 16.2818 11.442C16.2818 10.1606 17.2942 9.12171 18.5431 9.12171Z" fill="#5623C9"/>
</svg>
