<svg width="96" height="28" viewBox="0 0 96 28" fill="none" xmlns="http://www.w3.org/2000/svg">
<path fill-rule="evenodd" clip-rule="evenodd" d="M17.951 7.07605H12.292L8.97551 15.1809L5.65903 7.07605H0C2.05568 12.0997 4.11056 17.1242 6.16705 22.1473L3.88902 27.7142H9.54805C12.378 20.7983 15.1393 13.9471 17.9509 7.07619L17.951 7.07605ZM89.9098 0.328865H96L90.4927 13.9835H84.4025L89.9098 0.328865ZM85.8995 15.3003C87.7958 15.3003 89.3332 16.8777 89.3332 18.8236C89.3332 20.7695 87.7959 22.3469 85.8995 22.3469C84.0031 22.3469 82.4659 20.7695 82.4659 18.8236C82.4659 16.8779 84.0031 15.3003 85.8995 15.3003ZM73.9248 6.66615C78.1893 6.66615 81.6461 10.2134 81.6461 14.589C81.6461 18.9648 78.1891 22.5119 73.9248 22.5119C69.6603 22.5119 66.2035 18.9646 66.2035 14.589C66.2035 10.2133 69.6605 6.66615 73.9248 6.66615ZM73.9248 11.4954C75.5899 11.4954 76.9398 12.8806 76.9398 14.5892C76.9398 16.2977 75.5899 17.6829 73.9248 17.6829C72.2597 17.6829 70.9098 16.2977 70.9098 14.5892C70.9098 12.8806 72.2597 11.4954 73.9248 11.4954ZM57.3482 6.66615C61.6127 6.66615 65.0696 10.2134 65.0696 14.589C65.0696 18.9648 61.6126 22.5119 57.3482 22.5119C53.0838 22.5119 49.6269 18.9646 49.6269 14.589C49.6269 10.2133 53.0839 6.66615 57.3482 6.66615ZM57.3482 11.4954C59.0134 11.4954 60.3633 12.8806 60.3633 14.5892C60.3633 16.2977 59.0134 17.6829 57.3482 17.6829C55.6831 17.6829 54.3332 16.2977 54.3332 14.5892C54.3332 12.8806 55.6831 11.4954 57.3482 11.4954ZM34.5525 0.285783H39.6585V8.43084C39.6585 8.43084 40.5518 6.66615 43.5027 6.66615C46.4535 6.66615 48.3461 7.99836 48.3839 13.4534V22.3469H43.278V13.4534C43.278 12.4277 42.4677 11.5963 41.4682 11.5963C40.4455 11.5963 39.6336 12.459 39.6591 13.506L39.6583 22.3469H34.5524V0.285645L34.5525 0.285783ZM27.6 7.07605H32.706V22.347H27.6V20.9075C26.4566 21.9143 25.0316 22.5121 23.4864 22.5121C19.7209 22.5121 16.6684 18.9649 16.6684 14.5893C16.6684 10.2135 19.7209 6.66643 23.4864 6.66643C25.0316 6.66643 26.4567 7.26417 27.6 8.27112V7.07633V7.07605ZM24.7241 11.4954C26.3892 11.4954 27.7391 12.8806 27.7391 14.5892C27.7391 16.2977 26.3892 17.6829 24.7241 17.6829C23.059 17.6829 21.7091 16.2977 21.7091 14.5892C21.7091 12.8806 23.059 11.4954 24.7241 11.4954Z" fill="#5623C9"/>
</svg>
