<svg width="57" height="32" viewBox="0 0 57 32" fill="none" xmlns="http://www.w3.org/2000/svg">
<path d="M41.5947 23.9132C41.1252 23.9132 40.6662 23.774 40.2757 23.5131C39.8853 23.2522 39.581 22.8815 39.4013 22.4476C39.2217 22.0138 39.1746 21.5365 39.2663 21.0759C39.3579 20.6154 39.584 20.1924 39.916 19.8604C40.248 19.5283 40.671 19.3022 41.1316 19.2106C41.5921 19.119 42.0695 19.166 42.5033 19.3457C42.9371 19.5254 43.3079 19.8297 43.5687 20.2201C43.8296 20.6105 43.9688 21.0696 43.9688 21.5391C43.9688 22.1688 43.7187 22.7726 43.2735 23.2179C42.8282 23.6631 42.2244 23.9132 41.5947 23.9132ZM15.4549 23.9132C14.9853 23.9132 14.5263 23.774 14.1359 23.5131C13.7455 23.2522 13.4412 22.8815 13.2615 22.4476C13.0818 22.0138 13.0348 21.5365 13.1264 21.0759C13.218 20.6154 13.4441 20.1924 13.7761 19.8604C14.1082 19.5283 14.5312 19.3022 14.9917 19.2106C15.4522 19.119 15.9296 19.166 16.3634 19.3457C16.7972 19.5254 17.168 19.8297 17.4289 20.2201C17.6897 20.6105 17.829 21.0696 17.829 21.5391C17.829 22.1688 17.5788 22.7726 17.1336 23.2179C16.6884 23.6631 16.0845 23.9132 15.4549 23.9132ZM42.4356 9.6686L47.1838 1.4829C47.2478 1.37081 47.2891 1.24717 47.3053 1.11909C47.3214 0.990996 47.3121 0.860979 47.2778 0.736503C47.2436 0.612026 47.1851 0.495544 47.1057 0.393747C47.0263 0.29195 46.9275 0.206843 46.8151 0.143317C46.7028 0.0797912 46.5789 0.0390971 46.4508 0.0235726C46.3226 0.00804817 46.1926 0.0179993 46.0683 0.0528543C45.944 0.0877093 45.8278 0.146781 45.7264 0.226677C45.625 0.306573 45.5404 0.405718 45.4774 0.518416L40.6797 8.80304C36.8693 7.06178 32.7266 6.16744 28.5372 6.18164C24.3428 6.17137 20.1946 7.05666 16.3699 8.77831L11.5722 0.493686C11.4436 0.26874 11.2312 0.103866 10.9814 0.0351239C10.7316 -0.0336187 10.4647 -0.00063615 10.2391 0.126858C10.0136 0.254353 9.84767 0.465983 9.77772 0.715467C9.70777 0.96495 9.73945 1.23198 9.86585 1.45817L14.5893 9.64387C10.5052 11.8713 7.04116 15.0821 4.51073 18.9857C1.98029 22.8893 0.463419 27.3624 0.0974121 32H56.9027C56.548 27.3657 55.0381 22.894 52.511 18.9932C49.9839 15.0924 46.52 11.8867 42.4356 9.6686Z" fill="#3DDC84"/>
</svg>
