<svg width="32" height="32" viewBox="0 0 32 32" fill="none" xmlns="http://www.w3.org/2000/svg">
<g clip-path="url(#clip0_1620_8067)">
<path d="M28.8812 23.8192C28.4545 24.0424 28.0145 24.239 27.5637 24.408C26.1286 24.9449 24.6084 25.2185 23.0762 25.2155C17.1612 25.2155 12.0087 21.1467 12.0087 15.9255C12.0162 15.2252 12.2106 14.5396 12.5716 13.9395C12.9326 13.3394 13.4473 12.8465 14.0624 12.5117C8.7124 12.7367 7.3374 18.3117 7.3374 21.578C7.3374 30.813 15.8487 31.7492 17.6824 31.7492C18.6712 31.7492 20.1624 31.4617 21.0574 31.1792L21.2212 31.1242C24.6652 29.9336 27.6013 27.6059 29.5462 24.5242C29.6057 24.4304 29.6323 24.3193 29.6217 24.2087C29.6112 24.098 29.564 23.9941 29.4877 23.9132C29.4114 23.8323 29.3104 23.7792 29.2006 23.7622C29.0907 23.7452 28.9783 23.7652 28.8812 23.8192Z" fill="url(#paint0_linear_1620_8067)"/>
<path opacity="0.35" d="M28.8812 23.8192C28.4545 24.0424 28.0145 24.239 27.5637 24.408C26.1286 24.9449 24.6084 25.2185 23.0762 25.2155C17.1612 25.2155 12.0087 21.1467 12.0087 15.9255C12.0162 15.2252 12.2106 14.5396 12.5716 13.9395C12.9326 13.3394 13.4473 12.8465 14.0624 12.5117C8.7124 12.7367 7.3374 18.3117 7.3374 21.578C7.3374 30.813 15.8487 31.7492 17.6824 31.7492C18.6712 31.7492 20.1624 31.4617 21.0574 31.1792L21.2212 31.1242C24.6652 29.9336 27.6013 27.6059 29.5462 24.5242C29.6057 24.4304 29.6323 24.3193 29.6217 24.2087C29.6112 24.098 29.564 23.9941 29.4877 23.9132C29.4114 23.8323 29.3104 23.7792 29.2006 23.7622C29.0907 23.7452 28.9783 23.7652 28.8812 23.8192Z" fill="url(#paint1_radial_1620_8067)"/>
<path d="M13.2139 30.1756C12.099 29.4836 11.1327 28.5769 10.3714 27.5081C9.50363 26.3192 8.90648 24.9549 8.62184 23.5108C8.3372 22.0666 8.37196 20.5777 8.72368 19.1485C9.07539 17.7192 9.73555 16.3842 10.6579 15.2371C11.5802 14.09 12.7423 13.1586 14.0626 12.5081C14.4526 12.3244 15.1189 11.9919 16.0051 12.0081C16.6295 12.0127 17.2444 12.1617 17.8015 12.4437C18.3587 12.7256 18.8429 13.1327 19.2164 13.6331C19.7212 14.3071 19.9995 15.1237 20.0114 15.9656C20.0114 15.9394 23.0689 6.01562 10.0114 6.01562C4.52389 6.01562 0.0113947 11.2231 0.0113947 15.7919C-0.0102504 18.2087 0.506861 20.6 1.52514 22.7919C3.1893 26.3426 6.09946 29.1585 9.70301 30.705C13.3066 32.2514 17.3525 32.4207 21.0726 31.1806C19.7701 31.5913 18.3939 31.7146 17.0391 31.5419C15.6843 31.3693 14.3831 30.9049 13.2251 30.1806L13.2139 30.1756Z" fill="url(#paint2_linear_1620_8067)"/>
<path opacity="0.41" d="M13.2139 30.1756C12.099 29.4836 11.1327 28.5769 10.3714 27.5081C9.50363 26.3192 8.90648 24.9549 8.62184 23.5108C8.3372 22.0666 8.37196 20.5777 8.72368 19.1485C9.07539 17.7192 9.73555 16.3842 10.6579 15.2371C11.5802 14.09 12.7423 13.1586 14.0626 12.5081C14.4526 12.3244 15.1189 11.9919 16.0051 12.0081C16.6295 12.0127 17.2444 12.1617 17.8015 12.4437C18.3587 12.7256 18.8429 13.1327 19.2164 13.6331C19.7212 14.3071 19.9995 15.1237 20.0114 15.9656C20.0114 15.9394 23.0689 6.01562 10.0114 6.01562C4.52389 6.01562 0.0113947 11.2231 0.0113947 15.7919C-0.0102504 18.2087 0.506861 20.6 1.52514 22.7919C3.1893 26.3426 6.09946 29.1585 9.70301 30.705C13.3066 32.2514 17.3525 32.4207 21.0726 31.1806C19.7701 31.5913 18.3939 31.7146 17.0391 31.5419C15.6843 31.3693 14.3831 30.9049 13.2251 30.1806L13.2139 30.1756Z" fill="url(#paint3_radial_1620_8067)"/>
<path d="M19.0388 18.6075C18.9376 18.7388 18.6263 18.92 18.6263 19.315C18.6263 19.6413 18.8388 19.955 19.2163 20.2188C21.0138 21.4688 24.4026 21.3038 24.4113 21.3038C25.7432 21.3006 27.0499 20.9401 28.1951 20.26C29.3503 19.5855 30.3091 18.6206 30.9764 17.4611C31.6436 16.3016 31.9961 14.9878 31.9988 13.65C32.0313 10.8488 30.9988 8.98625 30.5813 8.16125C27.9326 2.98 22.2151 7.83303e-08 15.9976 7.83303e-08C11.7928 -0.000415696 7.75686 1.65437 4.76266 4.60646C1.76847 7.55856 0.0566881 11.5706 -0.00244141 15.775C0.0575586 11.2075 4.59756 7.51875 9.99756 7.51875C10.4351 7.51875 12.9301 7.56125 15.2476 8.7775C17.2901 9.85 18.3601 11.145 19.1038 12.4288C19.8763 13.7625 20.0138 15.4475 20.0138 16.1187C20.0138 16.79 19.6713 17.785 19.0388 18.6075Z" fill="url(#paint4_radial_1620_8067)"/>
<path d="M19.0388 18.6075C18.9376 18.7388 18.6263 18.92 18.6263 19.315C18.6263 19.6413 18.8388 19.955 19.2163 20.2188C21.0138 21.4688 24.4026 21.3038 24.4113 21.3038C25.7432 21.3006 27.0499 20.9401 28.1951 20.26C29.3503 19.5855 30.3091 18.6206 30.9764 17.4611C31.6436 16.3016 31.9961 14.9878 31.9988 13.65C32.0313 10.8488 30.9988 8.98625 30.5813 8.16125C27.9326 2.98 22.2151 7.83303e-08 15.9976 7.83303e-08C11.7928 -0.000415696 7.75686 1.65437 4.76266 4.60646C1.76847 7.55856 0.0566881 11.5706 -0.00244141 15.775C0.0575586 11.2075 4.59756 7.51875 9.99756 7.51875C10.4351 7.51875 12.9301 7.56125 15.2476 8.7775C17.2901 9.85 18.3601 11.145 19.1038 12.4288C19.8763 13.7625 20.0138 15.4475 20.0138 16.1187C20.0138 16.79 19.6713 17.785 19.0388 18.6075Z" fill="url(#paint5_radial_1620_8067)"/>
</g>
<defs>
<linearGradient id="paint0_linear_1620_8067" x1="7.3374" y1="22.133" x2="29.6299" y2="22.133" gradientUnits="userSpaceOnUse">
<stop stop-color="#0C59A4"/>
<stop offset="1" stop-color="#114A8B"/>
</linearGradient>
<radialGradient id="paint1_radial_1620_8067" cx="0" cy="0" r="1" gradientUnits="userSpaceOnUse" gradientTransform="translate(19.6499 22.3087) scale(11.9225 11.3264)">
<stop offset="0.72" stop-opacity="0"/>
<stop offset="0.95" stop-opacity="0.53"/>
<stop offset="1"/>
</radialGradient>
<linearGradient id="paint2_linear_1620_8067" x1="19.0901" y1="12.4594" x2="5.1664" y2="27.6256" gradientUnits="userSpaceOnUse">
<stop stop-color="#1B9DE2"/>
<stop offset="0.16" stop-color="#1595DF"/>
<stop offset="0.67" stop-color="#0680D7"/>
<stop offset="1" stop-color="#0078D4"/>
</linearGradient>
<radialGradient id="paint3_radial_1620_8067" cx="0" cy="0" r="1" gradientUnits="userSpaceOnUse" gradientTransform="translate(8.82196 24.8742) rotate(-81.3844) scale(17.9283 14.4842)">
<stop offset="0.76" stop-opacity="0"/>
<stop offset="0.95" stop-opacity="0.5"/>
<stop offset="1"/>
</radialGradient>
<radialGradient id="paint4_radial_1620_8067" cx="0" cy="0" r="1" gradientUnits="userSpaceOnUse" gradientTransform="translate(3.23037 5.9221) rotate(92.2906) scale(25.324 53.9348)">
<stop stop-color="#35C1F1"/>
<stop offset="0.11" stop-color="#34C1ED"/>
<stop offset="0.23" stop-color="#2FC2DF"/>
<stop offset="0.31" stop-color="#2BC3D2"/>
<stop offset="0.67" stop-color="#36C752"/>
</radialGradient>
<radialGradient id="paint5_radial_1620_8067" cx="0" cy="0" r="1" gradientUnits="userSpaceOnUse" gradientTransform="translate(30.0066 9.67576) rotate(73.7398) scale(12.1675 9.89461)">
<stop stop-color="#66EB6E"/>
<stop offset="1" stop-color="#66EB6E" stop-opacity="0"/>
</radialGradient>
<clipPath id="clip0_1620_8067">
<rect width="32" height="32" fill="white"/>
</clipPath>
</defs>
</svg>
