<svg width="32" height="31" viewBox="0 0 32 31" fill="none" xmlns="http://www.w3.org/2000/svg">
<path d="M31.6961 16.137C31.6961 13.6553 31.0545 11.3238 29.9293 9.29781C34.7253 -1.55651 24.7904 0.0333256 24.2372 0.141557C22.1324 0.553423 20.1851 1.21466 18.3889 2.05287C18.124 2.03795 17.8576 2.02976 17.589 2.02976C10.8855 2.02976 5.27431 6.70537 3.8382 12.9733C7.37138 9.00953 9.84403 7.41019 11.3248 6.77016C11.0884 6.98136 10.857 7.1949 10.6294 7.41005C10.5537 7.48157 10.4807 7.55411 10.406 7.62607C10.2559 7.77043 10.1061 7.91493 9.95987 8.06075C9.87284 8.14748 9.78816 8.23495 9.70245 8.32226C9.57272 8.45433 9.44328 8.58626 9.31662 8.71906C9.22667 8.8134 9.13892 8.90803 9.05058 9.00251C8.93225 9.12917 8.81466 9.25598 8.69926 9.38322C8.6096 9.4821 8.52141 9.58097 8.43336 9.68013C8.32396 9.80328 8.21558 9.92643 8.10867 10.0499C8.02003 10.1523 7.93213 10.2546 7.84526 10.3572C7.7439 10.4768 7.64386 10.5964 7.54484 10.7161C7.45723 10.822 7.36991 10.9277 7.28421 11.0335C7.19148 11.1478 7.10079 11.2621 7.01026 11.3761C6.92251 11.4867 6.83475 11.5971 6.74904 11.7076C6.66743 11.8127 6.58816 11.9174 6.5083 12.0223C6.41821 12.1408 6.32738 12.2593 6.23962 12.3771C6.17688 12.4615 6.11662 12.5451 6.05505 12.6291C5.49765 13.3897 4.98838 14.1356 4.52839 14.8521C4.52722 14.8539 4.52606 14.8556 4.52503 14.8574C4.40393 15.0461 4.28707 15.232 4.17255 15.4163C4.1664 15.4262 4.15997 15.4363 4.15382 15.4464C4.03916 15.6314 3.92844 15.8132 3.8205 15.9931C3.8167 15.9994 3.81275 16.0058 3.80894 16.0121C3.51877 16.4964 3.24965 16.9632 3.0073 17.4025C1.73675 19.705 1.11822 21.3137 1.09145 21.4092C-2.92072 35.7531 9.60139 29.6958 11.3487 28.7916C13.2302 29.7211 15.3483 30.2443 17.589 30.2443C23.7231 30.2443 28.9421 26.3288 30.8847 20.8609H23.4723C22.3755 22.7139 20.264 23.9689 17.8381 23.9689C14.2839 23.9689 11.4027 21.276 11.4027 17.954H31.5806C31.6571 17.359 31.6967 16.7526 31.6967 16.137H31.6961ZM29.0609 2.25471C30.2757 3.07463 31.2501 4.3623 29.5767 8.69873C27.9718 6.1177 25.5572 4.09303 22.6873 2.98015C23.9928 2.34963 27.2259 1.01604 29.0609 2.25471ZM3.24322 28.7627C2.25378 27.7479 2.07885 25.2765 4.2622 20.7728C5.36412 23.941 7.56298 26.5956 10.4051 28.2803C8.99163 29.0583 5.23921 30.8099 3.24322 28.7627ZM11.371 14.0958C11.4837 10.8672 14.2937 8.28204 17.7461 8.28204C21.1984 8.28204 24.0085 10.8672 24.1212 14.0958H11.371Z" fill="#1EBBEE"/>
</svg>
