<svg width="32" height="32" viewBox="0 0 32 32" fill="none" xmlns="http://www.w3.org/2000/svg">
<g clip-path="url(#clip0_1620_8018)">
<path d="M16.0003 24.001C20.4189 24.001 24.0007 20.419 24.0007 16.0005C24.0007 11.582 20.4189 8 16.0003 8C11.5818 8 8 11.582 8 16.0005C8 20.419 11.5818 24.001 16.0003 24.001Z" fill="white"/>
<path d="M9.0717 19.9987L2.14425 8C0.739611 10.4322 0 13.1912 0 16C0 18.8088 0.739276 21.5678 2.14375 24C3.54822 26.4322 5.56834 28.4519 8.00084 29.8557C10.4333 31.2595 13.1927 31.9983 16.0013 31.9975L22.9288 19.9987V19.9969C22.2271 21.2137 21.2174 22.2243 20.0013 22.9269C18.7851 23.6296 17.4054 23.9996 16.0008 23.9998C14.5963 24 13.2165 23.6304 12.0001 22.9281C10.7837 22.2258 9.77375 21.2156 9.0717 19.9991V19.9987Z" fill="#229342"/>
<path d="M22.9282 20.0008L16.0009 31.9995C18.8095 32 21.5687 31.2607 24.0011 29.8566C26.4334 28.4524 28.4532 26.4325 29.8573 24C31.2614 21.5675 32.0003 18.8083 31.9999 15.9997C31.9994 13.1911 31.2594 10.432 29.8545 8H15.9997L15.998 8.00118C17.4026 8.00051 18.7825 8.36968 19.9991 9.07154C21.2158 9.77353 22.226 10.7832 22.9285 11.9996C23.631 13.2159 24.0008 14.5957 24.0008 16.0003C24.0007 17.4049 23.6309 18.7847 22.9284 20.0009L22.9282 20.0008Z" fill="#FBC116"/>
<path d="M16.0004 22.3354C19.4984 22.3354 22.334 19.4998 22.334 16.0016C22.334 12.5035 19.4984 9.66797 16.0004 9.66797C12.5024 9.66797 9.66675 12.5036 9.66675 16.0016C9.66675 19.4996 12.5024 22.3354 16.0004 22.3354Z" fill="#1A73E8"/>
<path d="M16.0004 8.0005H29.8552C28.4512 5.568 26.4316 3.54789 23.9993 2.14341C21.567 0.739037 18.8079 -0.000213178 15.9993 4.61127e-08C13.1907 0.000168025 10.4316 0.739784 7.99961 2.14459C5.56752 3.54932 3.54814 5.56961 2.14453 8.00235L9.07199 20.0011L9.07383 20.0021C8.37097 18.786 8.0007 17.4063 8.00026 16.0018C7.99982 14.5972 8.36922 13.2173 9.07131 12.0008C9.7733 10.7843 10.7835 9.77402 11.9999 9.07187C13.2162 8.36972 14.5961 8 16.0008 8.00034L16.0004 8.0005Z" fill="#E33B2E"/>
</g>
<defs>
<clipPath id="clip0_1620_8018">
<rect width="32" height="32" fill="white"/>
</clipPath>
</defs>
</svg>
