<svg width="32" height="32" viewBox="0 0 32 32" fill="none" xmlns="http://www.w3.org/2000/svg">
<path d="M16 30C23.732 30 30 23.732 30 16C30 8.26801 23.732 2 16 2C8.26801 2 2 8.26801 2 16C2 23.732 8.26801 30 16 30Z" fill="url(#paint0_linear_1624_8136)"/>
<path d="M25.5625 6.375L14.8125 14.8125L17.3125 17.3125L25.5625 6.375Z" fill="#FF0000"/>
<path d="M6.375 25.5625L14.8125 14.8125L17.3125 17.3125L6.375 25.5625Z" fill="white"/>
<path d="M16 3.375V5.4375V3.375ZM16 26.5V28.5625V26.5ZM18.1875 3.5625L17.8313 5.59375L18.1875 3.5625ZM14.1687 26.3313L13.8125 28.375L14.1687 26.3313ZM20.3125 4.1375L19.6063 6.075L20.3125 4.1375ZM12.4 25.8625L11.6938 27.8L12.4 25.8625ZM13.8125 3.5625L14.1687 5.59375L13.8125 3.5625ZM17.8313 26.3313L18.1875 28.375L17.8313 26.3313ZM11.6875 4.1375L12.3938 6.075L11.6875 4.1375ZM19.5938 25.8625L20.3 27.8L19.5938 25.8625ZM9.7 5.0625L10.7375 6.85L9.7 5.0625ZM21.2688 25.0875L22.3 26.875L21.2688 25.0875ZM7.90625 6.3125L9.23125 7.89375L7.90625 6.3125ZM22.7688 24.0312L24.0938 25.6125L22.7688 24.0312ZM6.34375 7.8625L7.925 9.1875L6.34375 7.8625ZM24.0625 22.7375L25.6438 24.0625L24.0625 22.7375ZM5.08125 9.675L6.86875 10.7063L5.08125 9.675ZM25.1187 21.2375L26.9062 22.2688L25.1187 21.2375ZM4.15625 11.6625L6.09375 12.3688L4.15625 11.6625ZM25.8813 19.5562L27.8188 20.2625L25.8813 19.5562ZM3.5875 13.7625L5.625 14.125L3.5875 13.7625ZM26.375 17.8L28.4062 18.1562L26.375 17.8ZM3.40625 15.9688H5.46875H3.40625ZM26.5312 15.9688H28.5938H26.5312ZM3.59375 18.1562L5.625 17.8L3.59375 18.1562ZM26.375 14.1375L28.4062 13.7812L26.375 14.1375ZM4.175 20.2812L6.1125 19.575L4.175 20.2812ZM25.8938 12.375L27.8313 11.6687L25.8938 12.375ZM5.09375 22.2688L6.88125 21.2375L5.09375 22.2688ZM25.1313 10.7063L26.9188 9.675L25.1313 10.7063ZM6.35 24.0625L7.93125 22.7375L6.35 24.0625ZM24.0562 9.2L25.6375 7.875L24.0562 9.2ZM7.8875 25.625L9.2125 24.0438L7.8875 25.625ZM22.75 7.90625L24.075 6.325L22.75 7.90625ZM9.7 26.875L10.7375 25.0875L9.7 26.875ZM21.2688 6.85L22.3 5.0625L21.2688 6.85ZM14.9 3.425L15 4.55L14.9 3.425ZM17 27.4L17.1 28.525L17 27.4ZM12.7375 3.8125L13.0312 4.9L12.7375 3.8125ZM18.9688 27.05L19.2625 28.1375L18.9688 27.05ZM10.675 4.5625L11.15 5.58125L10.675 4.5625ZM20.8375 26.3687L21.3188 27.3875L20.8375 26.3687ZM8.775 5.65L9.41875 6.575L8.775 5.65ZM22.5813 25.3625L23.225 26.2875L22.5813 25.3625ZM7.09375 7.0625L7.8875 7.85625L7.09375 7.0625ZM24.1125 24.0813L24.9062 24.875L24.1125 24.0813ZM5.6875 8.75L6.6125 9.39375L5.6875 8.75ZM25.4 22.5625L26.3125 23.1875L25.4 22.5625ZM4.5875 10.6438L5.60625 11.1188L4.5875 10.6438ZM26.3938 20.8062L27.4125 21.2875L26.3938 20.8062ZM3.8375 12.7063L4.925 13L3.8375 12.7063ZM27.075 18.9375L28.1625 19.2312L27.075 18.9375ZM3.45625 14.875L4.58125 14.975L3.45625 14.875ZM27.4312 16.975L28.5562 17.075L27.4312 16.975ZM3.46875 17.075L4.59375 16.975L3.46875 17.075ZM27.4438 14.975L28.5688 14.875L27.4438 14.975ZM3.8375 19.2312L4.925 18.9375L3.8375 19.2312ZM27.075 13L28.1625 12.7063L27.075 13ZM4.5875 21.2938L5.60625 20.8188L4.5875 21.2938ZM26.3938 11.1312L27.4125 10.6562L26.3938 11.1312ZM5.6875 23.1875L6.6125 22.5438L5.6875 23.1875ZM25.4 9.375L26.3125 8.75L25.4 9.375ZM8.775 26.2875L9.41875 25.3625L8.775 26.2875ZM22.575 6.575L23.225 5.65L22.575 6.575ZM10.675 27.375L11.1562 26.3563L10.675 27.375ZM20.8438 5.5625L21.325 4.54375L20.8438 5.5625ZM12.7375 28.125L13.0312 27.0375L12.7375 28.125ZM18.9688 4.8875L19.2625 3.8L18.9688 4.8875ZM14.9 28.5L15 27.375L14.9 28.5ZM17 4.525L17.1 3.4L17 4.525Z" fill="black"/>
<path d="M16 3.375V5.4375M16 26.5V28.5625M18.1875 3.5625L17.8313 5.59375M14.1688 26.3313L13.8125 28.375M20.3125 4.1375L19.6063 6.075M12.4 25.8625L11.6938 27.8M13.8125 3.5625L14.1688 5.59375M17.8313 26.3313L18.1875 28.375M11.6875 4.1375L12.3938 6.075M19.5938 25.8625L20.3 27.8M9.7 5.0625L10.7375 6.85M21.2688 25.0875L22.3 26.875M7.90625 6.3125L9.23125 7.89375M22.7688 24.0313L24.0938 25.6125M6.34375 7.8625L7.925 9.1875M24.0625 22.7375L25.6438 24.0625M5.08125 9.675L6.86875 10.7063M25.1188 21.2375L26.9063 22.2688M4.15625 11.6625L6.09375 12.3688M25.8813 19.5563L27.8188 20.2625M3.5875 13.7625L5.625 14.125M26.375 17.8L28.4063 18.1563M3.40625 15.9688H5.46875M26.5313 15.9688H28.5938M3.59375 18.1563L5.625 17.8M26.375 14.1375L28.4063 13.7813M4.175 20.2813L6.1125 19.575M25.8938 12.375L27.8313 11.6688M5.09375 22.2688L6.88125 21.2375M25.1313 10.7063L26.9188 9.675M6.35 24.0625L7.93125 22.7375M24.0563 9.2L25.6375 7.875M7.8875 25.625L9.2125 24.0438M22.75 7.90625L24.075 6.325M9.7 26.875L10.7375 25.0875M21.2688 6.85L22.3 5.0625M14.9 3.425L15 4.55M17 27.4L17.1 28.525M12.7375 3.8125L13.0313 4.9M18.9688 27.05L19.2625 28.1375M10.675 4.5625L11.15 5.58125M20.8375 26.3688L21.3188 27.3875M8.775 5.65L9.41875 6.575M22.5813 25.3625L23.225 26.2875M7.09375 7.0625L7.8875 7.85625M24.1125 24.0813L24.9063 24.875M5.6875 8.75L6.6125 9.39375M25.4 22.5625L26.3125 23.1875M4.5875 10.6438L5.60625 11.1188M26.3938 20.8063L27.4125 21.2875M3.8375 12.7063L4.925 13M27.075 18.9375L28.1625 19.2313M3.45625 14.875L4.58125 14.975M27.4313 16.975L28.5563 17.075M3.46875 17.075L4.59375 16.975M27.4438 14.975L28.5688 14.875M3.8375 19.2313L4.925 18.9375M27.075 13L28.1625 12.7063M4.5875 21.2938L5.60625 20.8188M26.3938 11.1313L27.4125 10.6563M5.6875 23.1875L6.6125 22.5438M25.4 9.375L26.3125 8.75M8.775 26.2875L9.41875 25.3625M22.575 6.575L23.225 5.65M10.675 27.375L11.1563 26.3563M20.8438 5.5625L21.325 4.54375M12.7375 28.125L13.0313 27.0375M18.9688 4.8875L19.2625 3.8M14.9 28.5L15 27.375M17 4.525L17.1 3.4" stroke="white" stroke-width="0.1875"/>
<defs>
<linearGradient id="paint0_linear_1624_8136" x1="16" y1="2" x2="16" y2="30" gradientUnits="userSpaceOnUse">
<stop stop-color="#19D7FF"/>
<stop offset="1" stop-color="#1E64F0"/>
</linearGradient>
</defs>
</svg>
