<svg width="35" height="35" viewBox="0 0 35 35" fill="none" xmlns="http://www.w3.org/2000/svg">
<g opacity="0.53" filter="url(#filter0_f_1624_8101)">
<path d="M32.8412 18.229C32.8412 20.1689 32.4444 22.0898 31.6734 23.882C30.9025 25.6742 29.7725 27.3027 28.348 28.6744C26.9235 30.0461 25.2324 31.1342 23.3712 31.8766C21.51 32.6189 19.5152 33.001 17.5007 33.001C15.4861 33.001 13.4913 32.6189 11.6301 31.8766C9.7689 31.1342 8.07778 30.0461 6.65328 28.6744C5.22879 27.3027 4.09881 25.6742 3.32788 23.882C2.55695 22.0898 2.16016 20.1689 2.16016 18.229C2.16016 14.3112 3.77638 10.5539 6.65328 7.78365C9.53019 5.01336 13.4321 3.45703 17.5007 3.45703C19.5152 3.45703 21.51 3.83912 23.3712 4.58148C25.2324 5.32384 26.9235 6.41194 28.348 7.78365C29.7725 9.15535 30.9025 10.7838 31.6734 12.576C32.4444 14.3682 32.8412 16.2891 32.8412 18.229Z" fill="black"/>
</g>
<path d="M33.4245 16.9245C33.4245 19.0158 33.0126 21.0865 32.2123 23.0186C31.412 24.9506 30.239 26.7061 28.7603 28.1849C27.2816 29.6636 25.5261 30.8366 23.594 31.6369C21.662 32.4372 19.5912 32.8491 17.5 32.8491C13.2765 32.8491 9.22605 31.1713 6.23962 28.1849C3.25319 25.1984 1.57544 21.148 1.57544 16.9245C1.57544 12.7011 3.25319 8.65062 6.23962 5.66419C9.22605 2.67776 13.2765 1 17.5 1C19.5912 1 21.662 1.4119 23.594 2.21218C25.5261 3.01247 27.2816 4.18546 28.7603 5.66419C30.239 7.14292 31.412 8.89842 32.2123 10.8305C33.0126 12.7625 33.4245 14.8333 33.4245 16.9245Z" fill="url(#paint0_linear_1624_8101)" stroke="#CDCDCD" stroke-width="0.0460382" stroke-linecap="round" stroke-linejoin="round"/>
<path d="M32.1766 16.9228C32.1766 20.8153 30.6303 24.5484 27.8779 27.3008C25.1255 30.0532 21.3924 31.5995 17.4999 31.5995C13.6074 31.5995 9.87436 30.0532 7.12195 27.3008C4.36953 24.5484 2.82324 20.8153 2.82324 16.9228C2.82324 13.0303 4.36953 9.29721 7.12195 6.5448C9.87436 3.79238 13.6074 2.24609 17.4999 2.24609C21.3924 2.24609 25.1255 3.79238 27.8779 6.5448C30.6303 9.29721 32.1766 13.0303 32.1766 16.9228Z" fill="url(#paint1_radial_1624_8101)"/>
<path d="M17.5002 3.01562C17.3816 3.01562 17.2862 3.11105 17.2862 3.2296V5.69779C17.2862 5.81634 17.3816 5.91177 17.5002 5.91177C17.6187 5.91177 17.7141 5.81634 17.7141 5.69779V3.2296C17.7141 3.11105 17.6187 3.01562 17.5002 3.01562ZM16.1003 3.1041C16.0861 3.10258 16.0715 3.10258 16.0568 3.10428C15.9389 3.11658 15.8539 3.2214 15.8662 3.33931L15.974 4.37189C15.9863 4.4898 16.0912 4.57482 16.2091 4.56251C16.327 4.55021 16.412 4.44538 16.3997 4.32747L16.2919 3.2949C16.2811 3.19173 16.1995 3.11373 16.1003 3.1041ZM18.9098 3.10512C18.8106 3.11467 18.7289 3.19266 18.7181 3.29582L18.6095 4.32831C18.5971 4.44621 18.6821 4.55113 18.8 4.56353C18.9179 4.57593 19.0227 4.491 19.0351 4.3731L19.1437 3.34052C19.1561 3.22262 19.0711 3.11779 18.9532 3.10539C18.9385 3.10387 18.924 3.10386 18.9098 3.10512ZM14.6623 3.31263C14.6481 3.31274 14.6336 3.31416 14.6191 3.31721C14.5031 3.34176 14.4295 3.45492 14.4541 3.57089L14.9652 5.98552C14.9898 6.10149 15.1029 6.1751 15.2189 6.15055C15.3349 6.126 15.4085 6.01293 15.3839 5.89695L14.8728 3.48224C14.8513 3.38076 14.762 3.31185 14.6623 3.31263ZM20.3477 3.31466C20.248 3.31365 20.1587 3.38275 20.1372 3.48422L19.6242 5.89855C19.5996 6.01452 19.6731 6.1277 19.7891 6.15234C19.9051 6.17699 20.0182 6.10343 20.0429 5.98749L20.5558 3.57315C20.5804 3.45719 20.5069 3.344 20.3909 3.31937C20.3765 3.31632 20.362 3.31466 20.3477 3.31466ZM13.29 3.69958C13.2622 3.69704 13.2336 3.70009 13.2055 3.70944C13.0927 3.7461 13.0314 3.86627 13.068 3.97902L13.3889 4.96644C13.4255 5.07919 13.5458 5.14049 13.6585 5.10386C13.7713 5.06721 13.8325 4.94694 13.7959 4.83419L13.475 3.84677C13.4476 3.76221 13.3731 3.70665 13.29 3.69958ZM21.7123 3.70009C21.6292 3.70715 21.5547 3.76274 21.5272 3.84729L21.2062 4.83462C21.1696 4.94736 21.2308 5.06764 21.3435 5.10429C21.4563 5.14094 21.5766 5.07969 21.6132 4.96697L21.9342 3.97954C21.9709 3.8668 21.9096 3.74653 21.7969 3.70988C21.7687 3.70073 21.74 3.69775 21.7123 3.70009ZM11.9328 4.1962C11.905 4.19671 11.8769 4.20281 11.8498 4.21486C11.7416 4.263 11.6931 4.38894 11.7412 4.49727L12.7437 6.75267C12.7918 6.861 12.9178 6.90943 13.0261 6.86128C13.1344 6.81314 13.183 6.6872 13.1348 6.57887L12.1322 4.32346C12.0961 4.24221 12.0162 4.19458 11.9328 4.1962ZM23.0847 4.20377C23.0014 4.20225 22.9214 4.24958 22.8852 4.33076L21.8796 6.58478C21.8314 6.69304 21.8796 6.81908 21.9879 6.86737C22.0962 6.91567 22.2222 6.8674 22.2705 6.75914L23.276 4.50512C23.3243 4.39685 23.276 4.27082 23.1678 4.22252C23.1407 4.21047 23.1125 4.20438 23.0847 4.20377ZM10.6732 4.8627C10.6321 4.85965 10.5898 4.8688 10.5513 4.89107C10.4486 4.95034 10.4137 5.0807 10.473 5.18336L10.9921 6.08249C11.0513 6.18516 11.1817 6.22008 11.2844 6.16081C11.387 6.10153 11.4219 5.97118 11.3627 5.86852L10.8436 4.96939C10.8065 4.90522 10.7417 4.86749 10.6732 4.8627ZM24.3271 4.8627C24.2587 4.86728 24.1939 4.9052 24.1569 4.96937L23.6376 5.8685C23.5784 5.97117 23.6134 6.10152 23.7161 6.16079C23.8187 6.22007 23.9491 6.18514 24.0084 6.08248L24.5275 5.18335C24.5867 5.08068 24.5518 4.95033 24.4491 4.89105C24.4107 4.86884 24.3682 4.85985 24.3271 4.8627ZM9.44999 5.62562C9.40881 5.62714 9.36757 5.64036 9.33159 5.66644C9.23563 5.73605 9.21442 5.86933 9.28406 5.96529L10.7333 7.96312C10.8029 8.05908 10.9363 8.0803 11.0323 8.01071C11.1282 7.9411 11.1494 7.80781 11.0798 7.71186L9.63044 5.71402C9.58692 5.65404 9.51858 5.62327 9.44999 5.62562ZM25.5657 5.63649C25.4971 5.63395 25.4287 5.66471 25.3851 5.7246L23.9331 7.7205C23.8633 7.81636 23.8844 7.9497 23.9803 8.01944C24.0761 8.08918 24.2095 8.06819 24.2792 7.97236L25.7312 5.97647C25.8009 5.8806 25.7798 5.74727 25.684 5.67752C25.648 5.65139 25.6068 5.63797 25.5657 5.63649ZM8.35663 6.54255C8.30201 6.5395 8.24628 6.55775 8.20222 6.59741C8.11411 6.67672 8.10703 6.81148 8.18636 6.89959L8.88103 7.67127C8.96034 7.75938 9.09509 7.76647 9.1832 7.68713C9.27131 7.60782 9.2784 7.47298 9.19906 7.38487L8.50449 6.61327C8.46484 6.5692 8.41126 6.54542 8.35663 6.54255ZM26.6453 6.54408C26.5906 6.54713 26.5371 6.57077 26.4974 6.61482L25.8027 7.38632C25.7234 7.47442 25.7304 7.60926 25.8185 7.68859C25.9066 7.76791 26.0414 7.7608 26.1207 7.67273L26.8155 6.90123C26.8948 6.81312 26.8877 6.67828 26.7996 6.59896C26.7555 6.55931 26.6999 6.54121 26.6453 6.54408ZM7.30872 7.54913C7.2541 7.55218 7.20062 7.57582 7.16096 7.61988C7.08164 7.70799 7.08874 7.84274 7.17682 7.92205L9.0112 9.57338C9.09931 9.6527 9.23406 9.64561 9.31337 9.55752C9.39269 9.46942 9.38569 9.33466 9.29756 9.25535L7.46309 7.60402C7.41902 7.56436 7.36335 7.54626 7.30872 7.54913ZM27.6983 7.55635C27.6436 7.5533 27.5878 7.5715 27.5437 7.61112L25.7083 9.26116C25.6201 9.34041 25.6129 9.47517 25.6921 9.56333C25.7713 9.65149 25.9062 9.65866 25.9944 9.5794L27.8299 7.92936C27.9181 7.8501 27.9253 7.71535 27.846 7.62718C27.8064 7.58311 27.7529 7.55926 27.6983 7.55635ZM6.4373 8.66965C6.3687 8.66711 6.3003 8.69802 6.25675 8.75794C6.18707 8.85385 6.2082 8.98711 6.30413 9.05679L7.14407 9.66705C7.23997 9.73674 7.37323 9.7157 7.44291 9.61977C7.5126 9.52386 7.49151 9.39051 7.39563 9.32083L6.5557 8.71057C6.51976 8.68444 6.47845 8.67113 6.4373 8.66965ZM28.5688 8.67743C28.5277 8.67896 28.4864 8.69212 28.4505 8.71825L27.6101 9.32796C27.5142 9.39758 27.493 9.53095 27.5626 9.6269C27.6322 9.72286 27.7655 9.74398 27.8614 9.67438L28.7018 9.06468C28.7978 8.99507 28.8189 8.86178 28.7493 8.76583C28.7058 8.70586 28.6374 8.67508 28.5688 8.67743ZM5.62294 9.86489C5.55447 9.86946 5.48969 9.90739 5.45264 9.97155C5.39337 10.0742 5.42829 10.2046 5.53096 10.2638L7.66843 11.4979C7.77109 11.5572 7.90145 11.5223 7.96072 11.4196C8.02 11.317 7.98507 11.1866 7.88241 11.1273L5.74494 9.89323C5.70645 9.87102 5.66402 9.86204 5.62294 9.86489ZM29.3774 9.86489C29.3363 9.86184 29.2939 9.87099 29.2554 9.89325L27.1179 11.1273C27.0152 11.1866 26.9803 11.317 27.0396 11.4196C27.0989 11.5223 27.2292 11.5572 27.3319 11.498L29.4695 10.2639C29.5721 10.2046 29.607 10.0742 29.5478 9.97157C29.5107 9.90741 29.4459 9.86967 29.3774 9.86489ZM5.00723 11.1389C4.92385 11.1368 4.84388 11.1846 4.80766 11.2658C4.75937 11.374 4.80763 11.5001 4.9159 11.5484L5.86416 11.9713C5.97243 12.0196 6.09847 11.9714 6.14676 11.8631C6.19505 11.7548 6.1467 11.6288 6.03843 11.5805L5.09026 11.1575C5.06321 11.1454 5.03503 11.1394 5.00723 11.1389ZM29.9972 11.1477C29.9694 11.1482 29.9412 11.1543 29.9141 11.1663L28.9657 11.5886C28.8574 11.6368 28.809 11.7628 28.8572 11.8711C28.9054 11.9794 29.0315 12.0278 29.1398 11.9796L30.0882 11.5572C30.1965 11.5091 30.2448 11.383 30.1966 11.2747C30.1605 11.1935 30.0806 11.146 29.9972 11.1477ZM4.45848 12.4704C4.37537 12.4774 4.30086 12.5329 4.27332 12.6174C4.23661 12.7302 4.29772 12.8505 4.41046 12.8872L6.7572 13.6519C6.86991 13.6886 6.99023 13.6274 7.02696 13.5147C7.06366 13.402 7.00256 13.2817 6.88982 13.245L4.54308 12.4803C4.51492 12.4711 4.48618 12.4681 4.45848 12.4704ZM30.545 12.4796C30.5173 12.477 30.4887 12.4801 30.4605 12.4894L28.1132 13.2524C28.0004 13.2891 27.9392 13.4094 27.9759 13.5221C28.0125 13.6348 28.1328 13.6961 28.2455 13.6594L30.5927 12.8964C30.7055 12.8598 30.7668 12.7395 30.7301 12.6268C30.7026 12.5422 30.6281 12.4866 30.545 12.4796ZM4.1166 13.8682C4.01691 13.8672 3.92751 13.9364 3.90594 14.0378C3.88129 14.1538 3.95485 14.2669 4.07079 14.2916L5.08638 14.5074C5.20234 14.5321 5.31551 14.4585 5.34016 14.3426C5.36482 14.2266 5.29126 14.1134 5.17531 14.0888L4.15982 13.873C4.14533 13.8699 4.13083 13.8682 4.1166 13.8682ZM30.8842 13.8702C30.87 13.8703 30.8556 13.8722 30.8411 13.8748L29.8255 14.0905C29.7095 14.1152 29.636 14.2282 29.6606 14.3442C29.6853 14.4602 29.7985 14.5338 29.9144 14.5091L30.9299 14.2934C31.0459 14.2688 31.1195 14.1556 31.0949 14.0396C31.0733 13.9382 30.9839 13.8694 30.8842 13.8702ZM3.85783 15.2741C3.7586 15.2836 3.67692 15.3615 3.66602 15.4647C3.65356 15.5825 3.73837 15.6875 3.85626 15.7L6.31077 15.9595C6.42866 15.9719 6.53363 15.887 6.54609 15.7691C6.55854 15.6512 6.47364 15.5463 6.35575 15.5338L3.90124 15.2743C3.88649 15.2728 3.87201 15.2728 3.85783 15.2741ZM31.1448 15.2926C31.1306 15.2911 31.116 15.2911 31.1013 15.2928L28.6465 15.5489C28.5286 15.5612 28.4436 15.6661 28.4559 15.784C28.4682 15.9019 28.573 15.9869 28.6909 15.9746L31.1457 15.7184C31.2636 15.7061 31.3486 15.6013 31.3363 15.4834C31.3255 15.3802 31.244 15.3022 31.1448 15.2926ZM3.81627 16.7133C3.69772 16.7133 3.60229 16.8087 3.60229 16.9273C3.60229 17.0458 3.69772 17.1413 3.81627 17.1413H4.85449C4.97303 17.1413 5.06856 17.0458 5.06856 16.9273C5.06856 16.8087 4.97303 16.7133 4.85449 16.7133H3.81627ZM30.1458 16.7133C30.0273 16.7133 29.9319 16.8087 29.9319 16.9273C29.9319 17.0458 30.0273 17.1413 30.1458 17.1413H31.1841C31.3026 17.1413 31.398 17.0458 31.398 16.9273C31.398 16.8087 31.3026 16.7133 31.1841 16.7133H30.1458ZM6.35289 17.8798C6.3387 17.8783 6.32422 17.8783 6.30947 17.88L3.85458 18.1362C3.73668 18.1485 3.65168 18.2533 3.66397 18.3712C3.67628 18.4891 3.7811 18.5741 3.89901 18.5618L6.35389 18.3056C6.4718 18.2933 6.5568 18.1885 6.5445 18.0706C6.53373 17.9674 6.45211 17.8895 6.35289 17.8798ZM28.6461 17.895C28.5469 17.9045 28.4652 17.9823 28.4543 18.0855C28.4419 18.2034 28.5267 18.3083 28.6446 18.3208L31.0991 18.5803C31.217 18.5928 31.3219 18.5079 31.3344 18.39C31.3469 18.2721 31.262 18.1671 31.1441 18.1547L28.6896 17.8951C28.6749 17.8936 28.6603 17.8936 28.6461 17.895ZM5.12923 19.3405C5.115 19.3407 5.10051 19.3421 5.08602 19.3451L4.07043 19.5608C3.95447 19.5855 3.88096 19.6987 3.90558 19.8146C3.93024 19.9306 4.04341 20.0041 4.15937 19.9795L5.17496 19.7638C5.29091 19.7392 5.36443 19.626 5.3398 19.5101C5.31824 19.4086 5.22892 19.3397 5.12923 19.3405ZM29.8708 19.3426C29.7711 19.3416 29.6818 19.4107 29.6603 19.5121C29.6356 19.6281 29.7091 19.7413 29.825 19.7659L30.8406 19.9817C30.9566 20.0064 31.0697 19.9329 31.0944 19.817C31.119 19.701 31.0455 19.5877 30.9295 19.5631L29.914 19.3473C29.8995 19.3442 29.885 19.3426 29.8708 19.3426ZM6.83939 20.1854C6.81168 20.1828 6.78308 20.1859 6.75489 20.1952L4.4076 20.9582C4.29486 20.9949 4.23362 21.1152 4.27027 21.2279C4.30692 21.3406 4.42719 21.4019 4.53994 21.3652L6.88714 20.6022C6.99988 20.5656 7.06121 20.4453 7.02456 20.3326C6.99706 20.248 6.9225 20.1924 6.83939 20.1854ZM28.1586 20.1929C28.0755 20.1999 28.001 20.2554 27.9735 20.34C27.9368 20.4527 27.9979 20.573 28.1106 20.6097L30.4573 21.3744C30.5701 21.4111 30.6904 21.3499 30.7271 21.2373C30.7639 21.1245 30.7027 21.0042 30.59 20.9675L28.2432 20.2028C28.2151 20.1936 28.1863 20.1906 28.1586 20.1929ZM5.94368 21.8566C5.91587 21.8571 5.88773 21.8631 5.86065 21.8751L4.91211 22.2974C4.80381 22.3456 4.75548 22.4716 4.80369 22.5799C4.85193 22.6882 4.9779 22.7366 5.08619 22.6884L6.03474 22.2661C6.14304 22.2179 6.19137 22.0919 6.14316 21.9836C6.10701 21.9024 6.02706 21.8549 5.94368 21.8566ZM29.0532 21.8647C28.9698 21.8627 28.8899 21.9104 28.8537 21.9916C28.8054 22.0999 28.8536 22.2259 28.9619 22.2742L29.9101 22.6971C30.0183 22.7454 30.1444 22.6972 30.1927 22.5889C30.241 22.4806 30.1927 22.3546 30.0844 22.3063L29.1363 21.8833C29.1092 21.8712 29.081 21.8653 29.0532 21.8647ZM7.79043 22.3284C7.74935 22.3253 7.70693 22.3345 7.66843 22.3568L5.53096 23.5908C5.42829 23.6501 5.39337 23.7805 5.45264 23.8831C5.51192 23.9858 5.64227 24.0207 5.74494 23.9615L7.88241 22.7275C7.98507 22.6682 8.01999 22.5377 7.96072 22.4351C7.92366 22.3709 7.8589 22.3332 7.79043 22.3284ZM27.21 22.3284C27.1415 22.333 27.0766 22.3709 27.0396 22.4351C26.9803 22.5377 27.0152 22.6682 27.1179 22.7274L29.2554 23.9614C29.3581 24.0207 29.4885 23.9858 29.5478 23.8831C29.607 23.7805 29.5721 23.6501 29.4695 23.5908L27.3319 22.3567C27.2934 22.3345 27.2511 22.3255 27.21 22.3284ZM7.25728 24.1394C7.21611 24.1409 7.17487 24.1542 7.13889 24.1803L6.29858 24.79C6.20263 24.8596 6.18141 24.9929 6.251 25.0889C6.32062 25.1848 6.4539 25.2061 6.54985 25.1364L7.39025 24.5267C7.48621 24.4571 7.50743 24.3238 7.43783 24.2279C7.39431 24.1679 7.32588 24.1371 7.25728 24.1394ZM27.738 24.1466C27.6694 24.1441 27.601 24.175 27.5574 24.2349C27.4877 24.3308 27.5089 24.4642 27.6048 24.5338L28.4447 25.1441C28.5406 25.2138 28.6739 25.1927 28.7436 25.0967C28.8133 25.0008 28.7922 24.8676 28.6963 24.7979L27.8564 24.1876C27.8204 24.1615 27.7791 24.1481 27.738 24.1466ZM9.16046 24.2205C9.10584 24.2174 9.05013 24.2356 9.00605 24.2753L7.17048 25.9253C7.08232 26.0046 7.07515 26.1393 7.15441 26.2275C7.23366 26.3156 7.36842 26.3228 7.45658 26.2435L9.29216 24.5935C9.38032 24.5143 9.38748 24.3795 9.30822 24.2913C9.26862 24.2473 9.21508 24.2234 9.16046 24.2205ZM25.8348 24.2264C25.7802 24.2294 25.7266 24.2531 25.6869 24.2971C25.6076 24.3852 25.6147 24.52 25.7028 24.5993L27.5372 26.2506C27.6253 26.33 27.7601 26.3229 27.8394 26.2348C27.9188 26.1467 27.9117 26.0119 27.8236 25.9326L25.9891 24.2813C25.945 24.2416 25.8894 24.2235 25.8348 24.2264ZM10.9018 25.794C10.8332 25.7914 10.7648 25.8221 10.7212 25.8821L9.26925 27.878C9.19951 27.9738 9.2205 28.1072 9.31633 28.1769C9.41219 28.2467 9.54553 28.2257 9.61527 28.1298L11.0672 26.1339C11.137 26.038 11.116 25.9047 11.0201 25.8349C10.9842 25.8088 10.943 25.7954 10.9018 25.794ZM24.0866 25.8029C24.0454 25.8044 24.0042 25.8176 23.9682 25.8437C23.8722 25.9134 23.851 26.0466 23.9206 26.1426L25.3699 28.1404C25.4395 28.2364 25.5728 28.2576 25.6687 28.188C25.7647 28.1184 25.7859 27.9851 25.7163 27.8892L24.267 25.8913C24.2235 25.8314 24.1552 25.8006 24.0866 25.8029ZM9.02747 26.1112C8.97285 26.1142 8.91929 26.1379 8.87962 26.1819L8.18495 26.9534C8.10562 27.0415 8.11265 27.1764 8.20076 27.2557C8.28886 27.335 8.42361 27.3279 8.50293 27.2398L9.19769 26.4683C9.27702 26.3802 9.26991 26.2453 9.18183 26.166C9.13775 26.1264 9.0821 26.1083 9.02747 26.1112ZM25.9716 26.1122C25.9169 26.1092 25.8613 26.1274 25.8172 26.1671C25.7291 26.2464 25.722 26.3811 25.8013 26.4692L26.4959 27.2409C26.5752 27.329 26.71 27.3361 26.7981 27.2568C26.8862 27.1775 26.8933 27.0426 26.8139 26.9545L26.1194 26.1829C26.0797 26.1388 26.0262 26.1151 25.9716 26.1122ZM12.9294 26.9681C12.846 26.9661 12.7662 27.0138 12.7299 27.095L11.7243 29.349C11.676 29.4573 11.7243 29.5833 11.8326 29.6316C11.9408 29.6799 12.0669 29.6317 12.1152 29.5234L13.1208 27.2694C13.1691 27.1611 13.1208 27.0351 13.0125 26.9868C12.9855 26.9747 12.9572 26.9687 12.9294 26.9681ZM22.0573 26.9743C22.0295 26.9748 22.0013 26.9808 21.9742 26.9929C21.866 27.041 21.8175 27.167 21.8656 27.2753L22.8681 29.5307C22.9162 29.639 23.0423 29.6874 23.1506 29.6393C23.2589 29.5912 23.3073 29.4652 23.2592 29.3569L22.2567 27.1015C22.2206 27.0203 22.1407 26.9727 22.0573 26.9743ZM11.1624 27.665C11.0939 27.6696 11.0291 27.7075 10.9921 27.7717L10.473 28.6708C10.4137 28.7735 10.4486 28.9038 10.5513 28.9631C10.6539 29.0224 10.7843 28.9875 10.8436 28.8848L11.3627 27.9857C11.4219 27.883 11.387 27.7526 11.2844 27.6934C11.2459 27.6711 11.2034 27.6622 11.1624 27.665ZM23.838 27.665C23.7969 27.662 23.7546 27.6712 23.7161 27.6934C23.6134 27.7527 23.5785 27.883 23.6377 27.9857L24.1569 28.8848C24.2161 28.9875 24.3465 29.0224 24.4491 28.9631C24.5518 28.9038 24.5867 28.7735 24.5275 28.6708L24.0084 27.7717C23.9713 27.7075 23.9064 27.6698 23.838 27.665ZM15.1681 27.6972C15.0684 27.6962 14.9791 27.7653 14.9575 27.8668L14.4446 30.2811C14.42 30.3971 14.4935 30.5103 14.6095 30.5349C14.7254 30.5596 14.8386 30.486 14.8633 30.3701L15.3762 27.9557C15.4008 27.8398 15.3273 27.7266 15.2113 27.702C15.1968 27.6989 15.1823 27.6972 15.1681 27.6972ZM19.8246 27.6988C19.8104 27.6989 19.796 27.7003 19.7815 27.7033C19.6656 27.7279 19.5919 27.841 19.6165 27.9569L20.1277 30.3717C20.1522 30.4876 20.2654 30.5612 20.3814 30.5367C20.4973 30.5121 20.5709 30.399 20.5464 30.283L20.0351 27.8685C20.0136 27.767 19.9243 27.698 19.8246 27.6988ZM17.5002 27.9423C17.3816 27.9423 17.2862 28.0377 17.2862 28.1563V30.6245C17.2862 30.743 17.3816 30.8384 17.5002 30.8384C17.6187 30.8384 17.7141 30.743 17.7141 30.6245V28.1563C17.7141 28.0377 17.6187 27.9423 17.5002 27.9423ZM13.5723 28.7398C13.4892 28.7469 13.4146 28.8025 13.3871 28.8871L13.0662 29.8745C13.0295 29.9872 13.0908 30.1075 13.2035 30.1441C13.3163 30.1808 13.4365 30.1194 13.4732 30.0067L13.7941 29.0194C13.8308 28.9067 13.7695 28.7864 13.6568 28.7497C13.6286 28.7406 13.6 28.7375 13.5723 28.7398ZM21.4264 28.7404C21.3987 28.7378 21.3701 28.7409 21.3419 28.7502C21.2291 28.7868 21.1678 28.9071 21.2045 29.0198L21.5253 30.0073C21.562 30.12 21.6822 30.1812 21.795 30.1446C21.9077 30.1079 21.969 29.9878 21.9324 29.875L21.6115 28.8876C21.584 28.803 21.5095 28.7474 21.4264 28.7404ZM16.157 29.2903C16.0578 29.2999 15.976 29.3778 15.9652 29.4809L15.8567 30.5135C15.8443 30.6314 15.9292 30.7362 16.0471 30.7486C16.165 30.761 16.2699 30.6761 16.2823 30.5582L16.3908 29.5257C16.4032 29.4078 16.3183 29.3029 16.2004 29.2905C16.1857 29.289 16.1712 29.289 16.157 29.2903ZM18.8347 29.2913C18.8205 29.2898 18.806 29.2898 18.7912 29.2915C18.6733 29.3038 18.5883 29.4086 18.6006 29.5265L18.7085 30.5592C18.7208 30.6771 18.8256 30.762 18.9435 30.7497C19.0614 30.7374 19.1464 30.6326 19.1341 30.5147L19.0263 29.4821C19.0156 29.3789 18.934 29.301 18.8347 29.2913Z" fill="#F4F2F3"/>
<g opacity="0.409" filter="url(#filter1_f_1624_8101)">
<path d="M27.5287 8.36719L15.8215 15.1691L8.41943 26.8221L19.2481 18.8014L27.5287 8.36719Z" fill="black"/>
</g>
<path d="M19.1774 18.682L15.8218 15.1679L27.7256 7.16016L19.1774 18.682Z" fill="#FF5150"/>
<path d="M19.1775 18.6821L15.8218 15.168L7.27368 26.6898L19.1775 18.6821Z" fill="#F1F1F1"/>
<path opacity="0.243" d="M7.27368 26.6898L19.1775 18.682L27.7257 7.16016L7.27368 26.6898Z" fill="black"/>
<defs>
<filter id="filter0_f_1624_8101" x="0.987599" y="2.28447" width="33.026" height="31.8881" filterUnits="userSpaceOnUse" color-interpolation-filters="sRGB">
<feFlood flood-opacity="0" result="BackgroundImageFix"/>
<feBlend mode="normal" in="SourceGraphic" in2="BackgroundImageFix" result="shape"/>
<feGaussianBlur stdDeviation="0.586279" result="effect1_foregroundBlur_1624_8101"/>
</filter>
<filter id="filter1_f_1624_8101" x="8.08616" y="8.03391" width="19.7759" height="19.1197" filterUnits="userSpaceOnUse" color-interpolation-filters="sRGB">
<feFlood flood-opacity="0" result="BackgroundImageFix"/>
<feBlend mode="normal" in="SourceGraphic" in2="BackgroundImageFix" result="shape"/>
<feGaussianBlur stdDeviation="0.166636" result="effect1_foregroundBlur_1624_8101"/>
</filter>
<linearGradient id="paint0_linear_1624_8101" x1="17.4994" y1="32.8487" x2="17.4994" y2="0.999916" gradientUnits="userSpaceOnUse">
<stop stop-color="#BDBDBD"/>
<stop offset="1" stop-color="white"/>
</linearGradient>
<radialGradient id="paint1_radial_1624_8101" cx="0" cy="0" r="1" gradientUnits="userSpaceOnUse" gradientTransform="translate(17.5661 14.7827) scale(15.9245 15.9245)">
<stop stop-color="#06C2E7"/>
<stop offset="0.25" stop-color="#0DB8EC"/>
<stop offset="0.5" stop-color="#12AEF1"/>
<stop offset="0.75" stop-color="#1F86F9"/>
<stop offset="1" stop-color="#107DDD"/>
</radialGradient>
</defs>
</svg>
