<svg width="100%" height="100%" viewBox="0 0 141 23" fill="none" xmlns="http://www.w3.org/2000/svg">
<g id="Union">
<path d="M116.951 2.99237L113.294 3.78837V0.781258L116.951 0V2.99237Z" fill="#B5BCC9"/>
<path fill-rule="evenodd" clip-rule="evenodd" d="M124.553 4.65785C123.125 4.65785 122.207 5.33593 121.697 5.80763L121.508 4.89371H118.303V22.0814L121.945 21.3001L121.96 17.1285C122.484 17.5118 123.256 18.0572 124.538 18.0572C127.146 18.0572 129.52 15.9345 129.52 11.2617C129.506 6.98689 127.102 4.65785 124.553 4.65785ZM123.679 14.8142C122.819 14.8142 122.309 14.5047 121.96 14.1214L121.945 8.65259C122.324 8.22511 122.848 7.9303 123.679 7.9303C125.004 7.9303 125.922 9.43385 125.922 11.3649C125.922 13.3401 125.019 14.8142 123.679 14.8142Z" fill="#B5BCC9"/>
<path fill-rule="evenodd" clip-rule="evenodd" d="M135.741 4.65785C139.194 4.65785 141 7.63548 141 11.4091C141 11.6123 140.99 11.9516 140.982 12.24L140.982 12.2413L140.982 12.2423L140.982 12.2459C140.976 12.4571 140.971 12.6402 140.971 12.721H133.847C134.008 14.4604 135.26 14.9616 136.673 14.9616C138.116 14.9616 139.252 14.6521 140.242 14.1509V17.099C139.252 17.6592 137.941 18.0572 136.207 18.0572C132.653 18.0572 130.176 15.8166 130.176 11.3796C130.176 7.63548 132.274 4.65785 135.741 4.65785ZM135.727 7.65022C134.809 7.65022 133.804 8.34304 133.804 10.0087H137.562C137.562 8.34304 136.615 7.65022 135.727 7.65022Z" fill="#B5BCC9"/>
<path d="M116.951 4.90871H113.294V17.8068H116.951V4.90871Z" fill="#B5BCC9"/>
<path d="M109.374 5.99936L109.141 4.90855H105.994V17.8067H109.636V9.06543C110.495 7.9304 111.952 8.13677 112.404 8.29892V4.90855C111.938 4.73166 110.233 4.40737 109.374 5.99936Z" fill="#B5BCC9"/>
<path d="M102.09 1.70978L98.5355 2.47629L98.5209 14.2836C98.5209 16.4652 100.138 18.072 102.294 18.072C103.488 18.072 104.363 17.8509 104.843 17.5855V14.5932C104.377 14.7848 102.075 15.4629 102.075 13.2812V8.04829H104.843V4.90851H102.075L102.09 1.70978Z" fill="#B5BCC9"/>
<path d="M92.2423 8.65259C92.2423 8.0777 92.7085 7.85659 93.4806 7.85659C94.5877 7.85659 95.9862 8.19563 97.0933 8.8V5.33593C95.8842 4.84949 94.6897 4.65786 93.4806 4.65786C90.5233 4.65786 88.5567 6.22037 88.5567 8.82948C88.5567 11.2853 90.5738 12.0224 92.1728 12.6067C93.2227 12.9904 94.0924 13.3082 94.0924 14.0035C94.0924 14.6815 93.5097 14.9027 92.6939 14.9027C91.4848 14.9027 89.9406 14.4015 88.7169 13.7234V17.2317C90.0717 17.8213 91.4411 18.0719 92.6939 18.0719C95.724 18.0719 97.8072 16.5536 97.8072 13.915C97.7981 11.1924 95.6625 10.4574 94.0399 9.89894C93.0446 9.55639 92.2423 9.28028 92.2423 8.65259Z" fill="#B5BCC9"/>
<path fill-rule="evenodd" clip-rule="evenodd" d="M52.229 16.8953C52.7232 17.2313 53.3038 17.3993 53.971 17.3993C54.3465 17.3993 54.69 17.34 55.0013 17.2214C55.3176 17.1028 55.5968 16.9373 55.8389 16.7248C56.0811 16.5123 56.2787 16.2553 56.4319 15.9539H56.5135V17.2511H58.122V6.31012H56.5135V10.6317H56.4319C56.2837 10.3352 56.086 10.0807 55.8389 9.86816C55.5968 9.65072 55.3151 9.48271 54.9939 9.36411C54.6776 9.2455 54.3342 9.1862 53.9636 9.1862C53.3014 9.1862 52.7232 9.35422 52.229 9.69026C51.7348 10.0214 51.3519 10.4933 51.0801 11.1061C50.8132 11.7188 50.6798 12.4453 50.6798 13.2854V13.2928C50.6798 14.1329 50.8132 14.8593 51.0801 15.4721C51.3519 16.0848 51.7348 16.5592 52.229 16.8953ZM55.5276 15.687C55.2113 15.9045 54.8407 16.0132 54.4157 16.0132C53.9809 16.0132 53.6053 15.9045 53.289 15.687C52.9777 15.4696 52.738 15.1583 52.57 14.753C52.402 14.3429 52.318 13.8561 52.318 13.2928V13.2854C52.318 12.722 52.402 12.2377 52.57 11.8325C52.738 11.4273 52.9802 11.1159 53.2964 10.8985C53.6127 10.6761 53.9858 10.5649 54.4157 10.5649C54.8407 10.5649 55.2089 10.6761 55.5202 10.8985C55.8365 11.1209 56.0835 11.4372 56.2615 11.8473C56.4394 12.2525 56.5283 12.7319 56.5283 13.2854V13.3002C56.5283 13.8537 56.4394 14.3355 56.2615 14.7456C56.0885 15.1509 55.8439 15.4647 55.5276 15.687Z" fill="#B5BCC9"/>
<path fill-rule="evenodd" clip-rule="evenodd" d="M1.66783 17.2511V13.5967H4.07692C4.77864 13.5967 5.39388 13.4509 5.92265 13.1593C6.45635 12.8628 6.87393 12.4502 7.17537 11.9214C7.47682 11.3877 7.62754 10.7725 7.62754 10.0757V10.0609C7.62754 9.36411 7.47682 8.7538 7.17537 8.22998C6.87393 7.70122 6.45635 7.29106 5.92265 6.99949C5.39388 6.70299 4.77864 6.55474 4.07692 6.55474H0V17.2511H1.66783ZM3.66181 12.2031H1.66783V7.95572H3.66181C4.3833 7.95572 4.94172 8.14103 5.33705 8.51166C5.73239 8.88229 5.93006 9.40364 5.93006 10.0757V10.0905C5.93006 10.7527 5.73239 11.2716 5.33705 11.6472C4.94172 12.0178 4.3833 12.2031 3.66181 12.2031Z" fill="#B5BCC9"/>
<path fill-rule="evenodd" clip-rule="evenodd" d="M12.3123 17.4067C11.5513 17.4067 10.8891 17.2412 10.3257 16.9101C9.76236 16.579 9.32749 16.1071 9.0211 15.4943C8.71472 14.8766 8.56153 14.1427 8.56153 13.2928V13.2779C8.56153 12.4329 8.71472 11.704 9.0211 11.0912C9.33243 10.4785 9.7673 10.0065 10.3257 9.67543C10.8891 9.34434 11.5513 9.17879 12.3123 9.17879C13.0733 9.17879 13.733 9.34434 14.2914 9.67543C14.8548 10.0065 15.2897 10.4785 15.5961 11.0912C15.9074 11.704 16.0631 12.4329 16.0631 13.2779V13.2928C16.0631 14.1427 15.9099 14.8766 15.6035 15.4943C15.2971 16.1071 14.8622 16.579 14.2989 16.9101C13.7404 17.2412 13.0783 17.4067 12.3123 17.4067ZM12.3197 16.0577C12.7546 16.0577 13.1277 15.9489 13.439 15.7315C13.7553 15.5141 13.9974 15.2003 14.1654 14.7901C14.3335 14.375 14.4175 13.8784 14.4175 13.3002V13.2854C14.4175 12.7022 14.3335 12.2056 14.1654 11.7954C13.9974 11.3803 13.7553 11.0665 13.439 10.854C13.1227 10.6366 12.7472 10.5279 12.3123 10.5279C11.8774 10.5279 11.5018 10.6366 11.1856 10.854C10.8742 11.0715 10.6321 11.3853 10.4591 11.7954C10.2911 12.2056 10.2071 12.7022 10.2071 13.2854V13.3002C10.2071 13.8784 10.2911 14.375 10.4591 14.7901C10.6321 15.2003 10.8742 15.5141 11.1856 15.7315C11.5018 15.9489 11.8799 16.0577 12.3197 16.0577Z" fill="#B5BCC9"/>
<path d="M18.4351 9.33445H16.8191L18.9984 17.2511H20.6514L22.2896 11.3359H22.3712L24.0167 17.2511H25.6846L27.8565 9.33445H26.2628L24.8321 15.5017H24.758L23.1124 9.33445H21.578L19.9398 15.5017H19.8583L18.4351 9.33445Z" fill="#B5BCC9"/>
<path fill-rule="evenodd" clip-rule="evenodd" d="M32.3485 17.4067C31.5726 17.4067 30.9055 17.2412 30.3471 16.9101C29.7936 16.5741 29.3662 16.0997 29.0647 15.4869C28.7682 14.8741 28.62 14.1502 28.62 13.315V13.3076C28.62 12.4823 28.7682 11.7608 29.0647 11.1431C29.3662 10.5254 29.7887 10.0436 30.3323 9.69767C30.8808 9.35175 31.5232 9.17879 32.2595 9.17879C33.0008 9.17879 33.6383 9.34434 34.172 9.67543C34.7106 10.0065 35.1233 10.4711 35.4099 11.069C35.6965 11.6669 35.8398 12.3613 35.8398 13.1519V13.7079H30.2366C30.2453 14.1917 30.3315 14.6068 30.4953 14.9532C30.6683 15.3189 30.9154 15.6006 31.2366 15.7982C31.5578 15.9909 31.9408 16.0873 32.3855 16.0873C32.7117 16.0873 32.9983 16.0404 33.2454 15.9465C33.4925 15.8476 33.6951 15.7216 33.8532 15.5684C34.0114 15.4152 34.1226 15.2546 34.1868 15.0866L34.209 15.0273H35.7583L35.736 15.094C35.6718 15.3856 35.5507 15.6697 35.3728 15.9465C35.1999 16.2183 34.9701 16.4654 34.6834 16.6877C34.4018 16.9052 34.0657 17.0806 33.6753 17.214C33.2849 17.3425 32.8427 17.4067 32.3485 17.4067ZM30.4953 11.6324C30.3705 11.8999 30.2907 12.2112 30.256 12.5663H34.2499C34.216 12.192 34.1357 11.8708 34.0089 11.6027C33.8409 11.2321 33.6061 10.9553 33.3047 10.7725C33.0082 10.5897 32.6648 10.4982 32.2744 10.4982C31.884 10.4982 31.5331 10.5946 31.2218 10.7873C30.9154 10.9751 30.6732 11.2568 30.4953 11.6324Z" fill="#B5BCC9"/>
<path d="M39.005 9.33445H37.3964V17.2511H39.005V12.5293C39.005 12.1389 39.0816 11.8053 39.2348 11.5286C39.388 11.2469 39.6029 11.0319 39.8797 10.8837C40.1613 10.7305 40.49 10.6539 40.8655 10.6539C41.0187 10.6539 41.162 10.6613 41.2955 10.6761C41.4338 10.691 41.5524 10.7132 41.6513 10.7428V9.25292C41.5821 9.23809 41.4907 9.22327 41.377 9.20844C41.2683 9.19362 41.1521 9.1862 41.0286 9.1862C40.5394 9.1862 40.1267 9.31222 39.7907 9.56425C39.4547 9.81627 39.2199 10.1647 39.0865 10.6094H39.005V9.33445Z" fill="#B5BCC9"/>
<path fill-rule="evenodd" clip-rule="evenodd" d="M46.0024 17.4067C45.2266 17.4067 44.5595 17.2412 44.0011 16.9101C43.4476 16.5741 43.0201 16.0997 42.7187 15.4869C42.4222 14.8741 42.2739 14.1502 42.2739 13.315V13.3076C42.2739 12.4823 42.4222 11.7608 42.7187 11.1431C43.0201 10.5254 43.4426 10.0436 43.9862 9.69767C44.5348 9.35175 45.1772 9.17879 45.9135 9.17879C46.6548 9.17879 47.2922 9.34434 47.8259 9.67543C48.3646 10.0065 48.7772 10.4711 49.0638 11.069C49.3505 11.6669 49.4938 12.3613 49.4938 13.1519V13.7079H43.8906C43.8992 14.1917 43.9855 14.6068 44.1493 14.9532C44.3223 15.3189 44.5694 15.6006 44.8906 15.7982C45.2118 15.9909 45.5948 16.0873 46.0395 16.0873C46.3657 16.0873 46.6523 16.0404 46.8994 15.9465C47.1465 15.8476 47.3491 15.7216 47.5072 15.5684C47.6653 15.4152 47.7765 15.2546 47.8408 15.0866L47.863 15.0273H49.4122L49.39 15.094C49.3258 15.3856 49.2047 15.6697 49.0268 15.9465C48.8538 16.2183 48.624 16.4654 48.3374 16.6877C48.0557 16.9052 47.7197 17.0806 47.3293 17.214C46.9389 17.3425 46.4966 17.4067 46.0024 17.4067ZM44.1493 11.6324C44.0244 11.8999 43.9447 12.2112 43.9099 12.5663H47.9038C47.87 12.192 47.7897 11.8708 47.6629 11.6027C47.4948 11.2321 47.2601 10.9553 46.9587 10.7725C46.6622 10.5897 46.3187 10.4982 45.9283 10.4982C45.5379 10.4982 45.1871 10.5946 44.8757 10.7873C44.5694 10.9751 44.3272 11.2568 44.1493 11.6324Z" fill="#B5BCC9"/>
<path fill-rule="evenodd" clip-rule="evenodd" d="M67.9066 17.3993C67.536 17.3993 67.1925 17.34 66.8763 17.2214C66.56 17.1028 66.2808 16.9373 66.0386 16.7248C65.8014 16.5123 65.6062 16.2553 65.453 15.9539H65.3715V17.2511H63.763V6.31012H65.3715V10.6317H65.453C65.6013 10.3352 65.7965 10.0807 66.0386 9.86816C66.2857 9.65072 66.5674 9.48271 66.8837 9.36411C67.2049 9.2455 67.5483 9.1862 67.914 9.1862C68.5861 9.1862 69.1667 9.35422 69.656 9.69026C70.1452 10.0214 70.5257 10.4933 70.7975 11.1061C71.0693 11.7188 71.2052 12.4453 71.2052 13.2854V13.2928C71.2052 14.1329 71.0693 14.8593 70.7975 15.4721C70.5307 16.0848 70.1502 16.5592 69.656 16.8953C69.1618 17.2313 68.5787 17.3993 67.9066 17.3993ZM67.4693 16.0132C67.9041 16.0132 68.2772 15.9045 68.5886 15.687C68.8999 15.4696 69.1396 15.1583 69.3076 14.753C69.4805 14.3429 69.567 13.8561 69.567 13.2928V13.2854C69.567 12.722 69.4805 12.2377 69.3076 11.8325C69.1396 11.4273 68.8999 11.1159 68.5886 10.8985C68.2772 10.6761 67.9041 10.5649 67.4693 10.5649C67.0443 10.5649 66.6737 10.6761 66.3574 10.8985C66.0411 11.1209 65.794 11.4372 65.6161 11.8473C65.4432 12.2525 65.3567 12.7319 65.3567 13.2854V13.3002C65.3567 13.8537 65.4432 14.3355 65.6161 14.7456C65.794 15.1509 66.0411 15.4647 66.3574 15.687C66.6737 15.9045 67.0443 16.0132 67.4693 16.0132Z" fill="#B5BCC9"/>
<path d="M72.9323 19.9419C73.0707 19.9567 73.2041 19.9641 73.3326 19.9641C73.8614 19.9641 74.3111 19.8875 74.6817 19.7343C75.0523 19.586 75.3711 19.3365 75.6379 18.9856C75.9048 18.6397 76.1444 18.1727 76.3569 17.5847L79.2997 9.33445H77.6097L75.625 15.7167H75.5323L73.5476 9.33445H71.7982L74.6817 17.2585L74.5557 17.6514C74.4321 18.0368 74.2542 18.3061 74.022 18.4593C73.7947 18.6125 73.4932 18.6891 73.1177 18.6891C73.0188 18.6891 72.9225 18.6842 72.8286 18.6743C72.7347 18.6644 72.6531 18.6545 72.5839 18.6447V19.9048C72.6828 19.9196 72.7989 19.932 72.9323 19.9419Z" fill="#B5BCC9"/>
</g>
</svg>
